{"glyphs":{"0":{"ha":833,"x_min":122,"x_max":711,"o":"m 418 -14 q 260 22 326 -14 q 158 126 193 58 q 122 285 122 193 l 122 729 q 158 889 122 822 q 260 992 193 956 q 418 1028 326 1028 q 574 992 508 1028 q 676 889 640 956 q 711 729 711 822 l 711 285 q 676 126 711 193 q 574 22 640 58 q 418 -14 508 -14 m 418 71 q 563 128 510 71 q 617 285 617 186 l 617 729 q 563 885 617 828 q 418 943 510 943 q 271 885 325 943 q 217 729 217 828 l 217 285 q 271 129 217 188 q 418 71 325 71 m 417 435 q 363 456 383 435 q 342 511 342 478 q 363 566 342 546 q 417 586 383 586 q 472 566 451 586 q 492 511 492 546 q 472 456 492 478 q 417 435 451 435 z "},"1":{"ha":833,"x_min":133,"x_max":742,"o":"m 133 0 l 133 83 l 415 83 l 415 935 l 140 731 l 140 833 l 385 1014 l 507 1014 l 507 83 l 742 83 l 742 0 l 133 0 z "},"2":{"ha":833,"x_min":110,"x_max":733,"o":"m 131 0 l 131 97 l 449 424 q 578 591 536 515 q 619 740 619 667 q 564 892 619 836 q 414 947 508 947 q 258 891 315 947 q 201 738 201 835 l 110 738 q 149 892 111 826 q 256 992 188 957 q 414 1028 324 1028 q 572 993 504 1028 q 675 895 639 958 q 711 743 711 832 q 662 561 711 653 q 507 364 613 469 l 228 83 l 733 83 l 733 0 l 131 0 z "},"3":{"ha":833,"x_min":114,"x_max":692,"o":"m 403 -14 q 250 22 315 -14 q 149 120 185 57 q 114 269 114 183 l 206 269 q 258 122 206 175 q 403 68 311 68 q 548 123 496 68 q 600 269 600 178 l 600 361 q 548 506 600 454 q 403 558 496 558 l 318 558 l 318 646 l 576 931 l 151 931 l 151 1014 l 669 1014 l 669 922 l 401 628 l 401 640 q 613 565 535 640 q 692 361 692 489 l 692 269 q 656 120 692 183 q 556 22 621 57 q 403 -14 490 -14 z "},"4":{"ha":833,"x_min":128,"x_max":682,"o":"m 590 0 l 590 231 l 128 231 l 128 392 l 532 1013 l 631 1013 l 219 371 l 219 314 l 590 314 l 590 583 l 682 583 l 682 0 l 590 0 z "},"5":{"ha":833,"x_min":131,"x_max":703,"o":"m 415 -14 q 217 51 293 -14 q 131 228 142 115 l 222 228 q 278 110 228 153 q 417 68 329 68 q 560 124 510 68 q 611 281 611 181 l 611 375 q 561 530 611 475 q 417 585 511 585 q 306 550 351 585 q 243 453 261 515 l 151 453 l 158 1014 l 672 1014 l 672 931 l 247 931 l 243 542 l 275 542 l 239 500 q 296 622 239 576 q 449 667 353 667 q 637 591 571 667 q 703 375 703 515 l 703 281 q 626 66 703 146 q 415 -14 550 -14 z "},"6":{"ha":833,"x_min":108,"x_max":725,"o":"m 417 -14 q 256 26 325 -14 q 147 140 186 67 q 108 308 108 213 q 128 446 108 378 q 189 581 149 514 l 449 1014 l 551 1014 l 263 543 l 268 539 q 340 594 290 569 q 453 618 389 618 q 597 580 536 618 q 691 472 657 542 q 725 308 725 403 q 686 140 725 213 q 578 27 647 67 q 417 -14 510 -12 m 417 68 q 574 134 514 68 q 633 308 633 200 q 574 477 633 413 q 417 542 514 542 q 261 478 321 542 q 200 308 201 414 q 258 134 199 200 q 417 68 318 68 z "},"7":{"ha":833,"x_min":115,"x_max":735,"o":"m 276 0 l 643 926 l 211 926 l 211 739 l 115 739 l 115 1014 l 735 1014 l 735 919 l 381 0 l 276 0 z "},"8":{"ha":833,"x_min":119,"x_max":714,"o":"m 417 -14 q 259 18 326 -14 q 156 109 192 50 q 119 249 119 168 q 169 404 119 339 q 332 522 219 469 l 463 586 q 574 671 539 622 q 608 779 608 719 q 556 900 608 854 q 417 946 503 946 q 283 901 332 946 q 233 778 233 856 q 267 669 233 718 q 371 588 301 621 l 499 524 q 664 403 614 468 q 714 249 714 339 q 634 57 714 128 q 417 -14 554 -14 m 417 68 q 568 117 513 68 q 624 247 624 165 q 585 369 624 315 q 469 461 546 424 l 342 524 q 192 637 240 574 q 143 782 143 700 q 178 911 143 856 q 274 997 213 967 q 417 1028 336 1028 q 563 997 499 1028 q 663 910 626 965 q 699 782 699 854 q 648 638 699 701 q 490 522 597 575 l 363 461 q 249 371 288 425 q 210 250 210 317 q 266 117 210 167 q 417 68 322 68 z "},"9":{"ha":833,"x_min":108,"x_max":725,"o":"m 282 0 l 571 471 l 565 475 q 494 420 543 444 q 381 396 444 396 q 238 434 299 396 q 142 542 176 472 q 108 706 108 613 q 147 875 108 803 q 255 988 186 947 q 417 1028 324 1028 q 578 988 508 1028 q 686 875 647 947 q 725 706 725 803 q 705 568 725 636 q 646 433 685 500 l 385 0 l 282 0 m 417 472 q 574 537 514 472 q 633 707 633 601 q 576 880 636 814 q 417 946 517 946 q 260 880 319 946 q 200 706 200 814 q 260 536 200 600 q 417 472 319 472 z "},"A":{"ha":833,"x_min":85,"x_max":749,"o":"m 85 0 l 357 1014 l 476 1014 l 749 0 l 656 0 l 582 283 l 250 283 l 178 0 l 85 0 m 271 363 l 561 363 l 464 733 q 431 868 443 814 q 417 939 419 922 q 401 868 414 922 q 368 733 389 814 l 271 363 z "},"Á":{"ha":833,"x_min":85,"x_max":749,"o":"m 85 0 l 357 1014 l 476 1014 l 749 0 l 656 0 l 582 283 l 250 283 l 178 0 l 85 0 m 271 363 l 561 363 l 464 733 q 431 868 443 814 q 417 939 419 922 q 401 868 414 922 q 368 733 389 814 l 271 363 m 354 1125 l 501 1319 l 604 1319 l 450 1125 l 354 1125 z "},"Ă":{"ha":833,"x_min":85,"x_max":749,"o":"m 85 0 l 357 1014 l 476 1014 l 749 0 l 656 0 l 582 283 l 250 283 l 178 0 l 85 0 m 271 363 l 561 363 l 464 733 q 431 868 443 814 q 417 939 419 922 q 401 868 414 922 q 368 733 389 814 l 271 363 m 417 1121 q 264 1175 321 1121 q 207 1319 207 1229 l 283 1319 q 319 1222 283 1258 q 415 1186 354 1186 q 514 1222 478 1186 q 550 1319 550 1258 l 626 1319 q 569 1175 626 1229 q 417 1121 513 1121 z "},"Ắ":{"ha":833,"x_min":85,"x_max":749,"o":"m 347 1246 l 489 1417 l 592 1417 l 439 1246 l 347 1246 m 386 1083 q 251 1131 303 1083 q 200 1260 200 1179 l 276 1260 q 306 1180 276 1210 q 386 1150 336 1150 l 447 1150 q 527 1180 497 1150 q 557 1260 557 1210 l 633 1260 q 583 1131 633 1179 q 447 1083 532 1083 l 386 1083 m 85 0 l 357 1014 l 476 1014 l 749 0 l 656 0 l 582 283 l 250 283 l 178 0 l 85 0 m 271 363 l 561 363 l 464 733 q 431 868 443 814 q 417 939 419 922 q 401 868 414 922 q 368 733 389 814 l 271 363 z "},"Ặ":{"ha":833,"x_min":85,"x_max":749,"o":"m 417 1121 q 264 1175 321 1121 q 207 1319 207 1229 l 283 1319 q 319 1222 283 1258 q 415 1186 354 1186 q 514 1222 478 1186 q 550 1319 550 1258 l 626 1319 q 569 1175 626 1229 q 417 1121 513 1121 m 85 0 l 357 1014 l 476 1014 l 749 0 l 656 0 l 582 283 l 250 283 l 178 0 l 85 0 m 271 363 l 561 363 l 464 733 q 431 868 443 814 q 417 939 419 922 q 401 868 414 922 q 368 733 389 814 l 271 363 m 431 -289 q 367 -267 390 -289 q 343 -208 343 -246 q 367 -149 343 -171 q 431 -126 390 -126 q 494 -149 471 -126 q 518 -208 518 -171 q 494 -267 518 -246 q 431 -289 471 -289 z "},"Ằ":{"ha":833,"x_min":85,"x_max":749,"o":"m 386 1083 q 251 1131 303 1083 q 200 1260 200 1179 l 276 1260 q 306 1180 276 1210 q 386 1150 336 1150 l 447 1150 q 527 1180 497 1150 q 557 1260 557 1210 l 633 1260 q 583 1131 633 1179 q 447 1083 532 1083 l 386 1083 m 399 1246 l 257 1417 l 358 1417 l 489 1246 l 399 1246 m 85 0 l 357 1014 l 476 1014 l 749 0 l 656 0 l 582 283 l 250 283 l 178 0 l 85 0 m 271 363 l 561 363 l 464 733 q 431 868 443 814 q 417 939 419 922 q 401 868 414 922 q 368 733 389 814 l 271 363 z "},"Ẳ":{"ha":833,"x_min":85,"x_max":749,"o":"m 365 1222 l 429 1297 q 449 1333 449 1319 q 421 1354 449 1354 l 319 1354 l 319 1417 l 432 1417 q 497 1399 474 1417 q 519 1349 519 1381 q 511 1310 519 1331 q 489 1274 503 1290 l 446 1222 l 365 1222 m 386 1083 q 251 1131 303 1083 q 200 1260 200 1179 l 276 1260 q 306 1180 276 1210 q 386 1150 336 1150 l 447 1150 q 527 1180 497 1150 q 557 1260 557 1210 l 633 1260 q 583 1131 633 1179 q 447 1083 532 1083 l 386 1083 m 85 0 l 357 1014 l 476 1014 l 749 0 l 656 0 l 582 283 l 250 283 l 178 0 l 85 0 m 271 363 l 561 363 l 464 733 q 431 868 443 814 q 417 939 419 922 q 401 868 414 922 q 368 733 389 814 l 271 363 z "},"Ẵ":{"ha":833,"x_min":85,"x_max":749,"o":"m 386 1083 q 251 1128 303 1083 q 200 1250 200 1172 l 276 1250 q 306 1176 276 1203 q 386 1150 336 1150 l 447 1150 q 527 1176 497 1150 q 557 1250 557 1203 l 633 1250 q 583 1128 633 1172 q 447 1083 532 1083 l 386 1083 m 522 1278 q 453 1290 482 1278 q 404 1317 425 1301 q 364 1344 383 1332 q 319 1356 344 1356 q 283 1343 296 1356 q 269 1308 269 1331 l 269 1292 l 200 1292 l 200 1308 q 231 1388 200 1358 q 317 1417 263 1417 q 385 1405 358 1417 q 433 1378 413 1393 q 474 1351 454 1363 q 518 1339 493 1339 q 551 1352 539 1339 q 564 1386 564 1365 l 564 1403 l 633 1403 l 633 1386 q 603 1308 633 1338 q 522 1278 574 1278 m 85 0 l 357 1014 l 476 1014 l 749 0 l 656 0 l 582 283 l 250 283 l 178 0 l 85 0 m 271 363 l 561 363 l 464 733 q 431 868 443 814 q 417 939 419 922 q 401 868 414 922 q 368 733 389 814 l 271 363 z "},"Ǎ":{"ha":833,"x_min":85,"x_max":749,"o":"m 85 0 l 357 1014 l 476 1014 l 749 0 l 656 0 l 582 283 l 250 283 l 178 0 l 85 0 m 271 363 l 561 363 l 464 733 q 431 868 443 814 q 417 939 419 922 q 401 868 414 922 q 368 733 389 814 l 271 363 m 369 1125 l 192 1319 l 289 1319 l 418 1185 l 546 1319 l 642 1319 l 465 1125 l 369 1125 z "},"Â":{"ha":833,"x_min":85,"x_max":749,"o":"m 85 0 l 357 1014 l 476 1014 l 749 0 l 656 0 l 582 283 l 250 283 l 178 0 l 85 0 m 271 363 l 561 363 l 464 733 q 431 868 443 814 q 417 939 419 922 q 401 868 414 922 q 368 733 389 814 l 271 363 m 192 1125 l 368 1319 l 464 1319 l 642 1125 l 546 1125 l 417 1260 l 290 1125 l 192 1125 z "},"Ấ":{"ha":833,"x_min":85,"x_max":817,"o":"m 564 1246 l 710 1417 l 817 1417 l 660 1246 l 564 1246 m 192 1083 l 368 1278 l 465 1278 l 642 1083 l 546 1083 l 417 1218 l 289 1083 l 192 1083 m 85 0 l 357 1014 l 476 1014 l 749 0 l 656 0 l 582 283 l 250 283 l 178 0 l 85 0 m 271 363 l 561 363 l 464 733 q 431 868 443 814 q 417 939 419 922 q 401 868 414 922 q 368 733 389 814 l 271 363 z "},"Ậ":{"ha":833,"x_min":85,"x_max":749,"o":"m 192 1125 l 368 1319 l 464 1319 l 642 1125 l 546 1125 l 417 1260 l 290 1125 l 192 1125 m 85 0 l 357 1014 l 476 1014 l 749 0 l 656 0 l 582 283 l 250 283 l 178 0 l 85 0 m 271 363 l 561 363 l 464 733 q 431 868 443 814 q 417 939 419 922 q 401 868 414 922 q 368 733 389 814 l 271 363 m 431 -289 q 367 -267 390 -289 q 343 -208 343 -246 q 367 -149 343 -171 q 431 -126 390 -126 q 494 -149 471 -126 q 518 -208 518 -171 q 494 -267 518 -246 q 431 -289 471 -289 z "},"Ầ":{"ha":833,"x_min":85,"x_max":749,"o":"m 618 1246 l 453 1417 l 558 1417 l 713 1246 l 618 1246 m 192 1083 l 368 1278 l 465 1278 l 642 1083 l 546 1083 l 417 1218 l 289 1083 l 192 1083 m 85 0 l 357 1014 l 476 1014 l 749 0 l 656 0 l 582 283 l 250 283 l 178 0 l 85 0 m 271 363 l 561 363 l 464 733 q 431 868 443 814 q 417 939 419 922 q 401 868 414 922 q 368 733 389 814 l 271 363 z "},"Ẩ":{"ha":833,"x_min":85,"x_max":754,"o":"m 596 1222 l 661 1293 q 681 1331 681 1314 q 650 1356 681 1356 l 551 1356 l 551 1417 l 658 1417 q 728 1397 703 1417 q 754 1342 754 1376 q 746 1304 754 1322 q 724 1271 738 1286 l 678 1222 l 596 1222 m 192 1083 l 368 1278 l 465 1278 l 642 1083 l 546 1083 l 417 1218 l 289 1083 l 192 1083 m 85 0 l 357 1014 l 476 1014 l 749 0 l 656 0 l 582 283 l 250 283 l 178 0 l 85 0 m 271 363 l 561 363 l 464 733 q 431 868 443 814 q 417 939 419 922 q 401 868 414 922 q 368 733 389 814 l 271 363 z "},"Ẫ":{"ha":833,"x_min":85,"x_max":749,"o":"m 522 1278 q 453 1290 482 1278 q 404 1317 425 1301 q 364 1344 383 1332 q 319 1356 344 1356 q 283 1343 296 1356 q 269 1308 269 1331 l 269 1292 l 200 1292 l 200 1308 q 231 1388 200 1358 q 317 1417 263 1417 q 385 1405 358 1417 q 433 1378 413 1393 q 474 1351 454 1363 q 518 1339 493 1339 q 551 1352 539 1339 q 564 1386 564 1365 l 564 1403 l 633 1403 l 633 1386 q 603 1308 633 1338 q 522 1278 574 1278 m 192 1083 l 356 1246 l 478 1246 l 642 1083 l 544 1083 l 417 1200 l 289 1083 l 192 1083 m 85 0 l 357 1014 l 476 1014 l 749 0 l 656 0 l 582 283 l 250 283 l 178 0 l 85 0 m 271 363 l 561 363 l 464 733 q 431 868 443 814 q 417 939 419 922 q 401 868 414 922 q 368 733 389 814 l 271 363 z "},"Ä":{"ha":833,"x_min":85,"x_max":749,"o":"m 85 0 l 357 1014 l 476 1014 l 749 0 l 656 0 l 582 283 l 250 283 l 178 0 l 85 0 m 271 363 l 561 363 l 464 733 q 431 868 443 814 q 417 939 419 922 q 401 868 414 922 q 368 733 389 814 l 271 363 m 569 1142 q 512 1163 533 1142 q 490 1222 490 1185 q 512 1282 490 1260 q 569 1304 533 1304 q 626 1282 606 1304 q 647 1222 647 1260 q 626 1163 647 1185 q 569 1142 606 1142 m 267 1142 q 210 1163 232 1142 q 189 1222 189 1185 q 210 1282 189 1260 q 267 1304 232 1304 q 324 1282 303 1304 q 346 1222 346 1260 q 324 1163 346 1185 q 267 1142 303 1142 z "},"Ạ":{"ha":833,"x_min":85,"x_max":749,"o":"m 85 0 l 357 1014 l 476 1014 l 749 0 l 656 0 l 582 283 l 250 283 l 178 0 l 85 0 m 271 363 l 561 363 l 464 733 q 431 868 443 814 q 417 939 419 922 q 401 868 414 922 q 368 733 389 814 l 271 363 m 431 -289 q 367 -267 390 -289 q 343 -208 343 -246 q 367 -149 343 -171 q 431 -126 390 -126 q 494 -149 471 -126 q 518 -208 518 -171 q 494 -267 518 -246 q 431 -289 471 -289 z "},"À":{"ha":833,"x_min":85,"x_max":749,"o":"m 85 0 l 357 1014 l 476 1014 l 749 0 l 656 0 l 582 283 l 250 283 l 178 0 l 85 0 m 271 363 l 561 363 l 464 733 q 431 868 443 814 q 417 939 419 922 q 401 868 414 922 q 368 733 389 814 l 271 363 m 385 1125 l 226 1319 l 333 1319 l 483 1125 l 385 1125 z "},"Ả":{"ha":833,"x_min":85,"x_max":749,"o":"m 85 0 l 357 1014 l 476 1014 l 749 0 l 656 0 l 582 283 l 250 283 l 178 0 l 85 0 m 271 363 l 561 363 l 464 733 q 431 868 443 814 q 417 939 419 922 q 401 868 414 922 q 368 733 389 814 l 271 363 m 397 1132 l 471 1231 q 493 1278 493 1261 q 444 1313 493 1313 l 326 1313 l 326 1378 l 458 1378 q 539 1353 508 1378 q 569 1288 569 1329 q 544 1214 569 1249 l 485 1132 l 397 1132 z "},"Ā":{"ha":833,"x_min":85,"x_max":749,"o":"m 85 0 l 357 1014 l 476 1014 l 749 0 l 656 0 l 582 283 l 250 283 l 178 0 l 85 0 m 271 363 l 561 363 l 464 733 q 431 868 443 814 q 417 939 419 922 q 401 868 414 922 q 368 733 389 814 l 271 363 m 211 1178 l 211 1256 l 622 1256 l 622 1178 l 211 1178 z "},"Ą":{"ha":833,"x_min":85,"x_max":801,"o":"m 697 -275 q 594 -242 633 -275 q 556 -157 556 -210 q 585 -72 556 -115 q 671 14 614 -28 l 743 14 l 728 0 q 664 -73 686 -37 q 642 -137 642 -108 q 661 -188 642 -169 q 715 -207 681 -207 l 801 -207 l 801 -275 l 697 -275 m 85 0 l 357 1014 l 476 1014 l 749 0 l 656 0 l 582 283 l 250 283 l 178 0 l 85 0 m 271 363 l 561 363 l 464 733 q 431 868 443 814 q 417 939 419 922 q 401 868 414 922 q 368 733 389 814 l 271 363 z "},"Å":{"ha":833,"x_min":85,"x_max":749,"o":"m 85 0 l 357 1014 l 476 1014 l 749 0 l 656 0 l 582 283 l 250 283 l 178 0 l 85 0 m 271 363 l 561 363 l 464 733 q 431 868 443 814 q 417 939 419 922 q 401 868 414 922 q 368 733 389 814 l 271 363 m 418 1075 q 306 1116 349 1075 q 263 1222 263 1157 q 306 1328 263 1288 q 418 1369 349 1369 q 528 1328 486 1369 q 571 1222 571 1288 q 528 1116 571 1157 q 418 1075 486 1075 m 417 1135 q 480 1158 456 1135 q 504 1222 504 1182 q 480 1287 504 1263 q 417 1311 456 1311 q 353 1287 378 1311 q 329 1222 329 1263 q 353 1158 329 1182 q 417 1135 378 1135 z "},"Ã":{"ha":833,"x_min":85,"x_max":749,"o":"m 85 0 l 357 1014 l 476 1014 l 749 0 l 656 0 l 582 283 l 250 283 l 178 0 l 85 0 m 271 363 l 561 363 l 464 733 q 431 868 443 814 q 417 939 419 922 q 401 868 414 922 q 368 733 389 814 l 271 363 m 518 1132 q 451 1149 478 1132 q 405 1190 425 1167 q 366 1230 385 1213 q 322 1247 347 1247 q 280 1231 296 1247 q 264 1185 264 1214 l 264 1139 l 194 1139 l 194 1185 q 228 1278 194 1244 q 319 1313 263 1313 q 386 1295 360 1313 q 433 1255 413 1278 q 472 1215 453 1232 q 515 1197 490 1197 q 555 1214 540 1197 q 569 1260 569 1231 l 569 1306 l 639 1306 l 639 1260 q 606 1166 639 1200 q 518 1132 574 1132 z "},"Æ":{"ha":833,"x_min":44,"x_max":790,"o":"m 44 0 l 282 1014 l 790 1014 l 790 931 l 515 931 l 515 568 l 747 568 l 747 485 l 515 485 l 515 83 l 790 83 l 790 0 l 426 0 l 426 292 l 206 292 l 138 0 l 44 0 m 225 371 l 426 371 l 426 931 l 353 931 l 225 371 z "},"Ǽ":{"ha":833,"x_min":44,"x_max":790,"o":"m 44 0 l 282 1014 l 790 1014 l 790 931 l 515 931 l 515 568 l 747 568 l 747 485 l 515 485 l 515 83 l 790 83 l 790 0 l 426 0 l 426 292 l 206 292 l 138 0 l 44 0 m 225 371 l 426 371 l 426 931 l 353 931 l 225 371 m 361 1125 l 508 1319 l 611 1319 l 457 1125 l 361 1125 z "},"B":{"ha":833,"x_min":143,"x_max":725,"o":"m 143 0 l 143 1014 l 415 1014 q 623 944 546 1014 q 700 753 700 874 q 672 629 700 682 q 594 547 644 576 q 472 518 543 518 l 472 535 q 606 505 550 536 q 694 416 663 474 q 725 279 725 358 q 689 131 725 194 q 585 34 653 68 q 426 0 518 0 l 143 0 m 233 83 l 421 83 q 576 136 519 83 q 633 281 633 189 q 576 428 633 372 q 421 483 519 483 l 233 483 l 233 83 m 233 564 l 414 564 q 557 613 506 564 q 608 747 608 663 q 557 882 608 833 q 415 931 506 931 l 233 931 l 233 564 z "},"C":{"ha":833,"x_min":136,"x_max":713,"o":"m 424 -14 q 272 21 336 -14 q 172 119 207 56 q 136 269 136 183 l 136 744 q 172 896 136 832 q 272 994 207 960 q 424 1028 336 1028 q 577 992 513 1028 q 677 890 642 956 q 713 736 713 825 l 621 736 q 568 890 621 835 q 424 946 515 946 q 281 892 333 946 q 228 744 228 839 l 228 269 q 281 122 228 175 q 424 68 333 68 q 569 124 517 68 q 621 278 621 181 l 713 278 q 677 124 713 189 q 577 22 642 58 q 424 -14 513 -14 z "},"Ć":{"ha":833,"x_min":136,"x_max":713,"o":"m 424 -14 q 272 21 336 -14 q 172 119 207 56 q 136 269 136 183 l 136 744 q 172 896 136 832 q 272 994 207 960 q 424 1028 336 1028 q 577 992 513 1028 q 677 890 642 956 q 713 736 713 825 l 621 736 q 568 890 621 835 q 424 946 515 946 q 281 892 333 946 q 228 744 228 839 l 228 269 q 281 122 228 175 q 424 68 333 68 q 569 124 517 68 q 621 278 621 181 l 713 278 q 677 124 713 189 q 577 22 642 58 q 424 -14 513 -14 m 361 1125 l 508 1319 l 611 1319 l 457 1125 l 361 1125 z "},"Č":{"ha":833,"x_min":136,"x_max":713,"o":"m 424 -14 q 272 21 336 -14 q 172 119 207 56 q 136 269 136 183 l 136 744 q 172 896 136 832 q 272 994 207 960 q 424 1028 336 1028 q 577 992 513 1028 q 677 890 642 956 q 713 736 713 825 l 621 736 q 568 890 621 835 q 424 946 515 946 q 281 892 333 946 q 228 744 228 839 l 228 269 q 281 122 228 175 q 424 68 333 68 q 569 124 517 68 q 621 278 621 181 l 713 278 q 677 124 713 189 q 577 22 642 58 q 424 -14 513 -14 m 376 1125 l 199 1319 l 296 1319 l 425 1185 l 553 1319 l 649 1319 l 472 1125 l 376 1125 z "},"Ç":{"ha":833,"x_min":136,"x_max":713,"o":"m 317 -275 l 317 -215 l 422 -215 q 474 -198 454 -215 q 494 -161 494 -181 q 452 -111 494 -131 q 338 -92 410 -92 l 386 36 l 453 36 l 422 -47 q 494 -63 457 -50 q 556 -101 531 -76 q 581 -165 581 -126 q 540 -243 581 -211 q 431 -275 499 -275 l 317 -275 m 424 -14 q 272 21 336 -14 q 172 119 207 56 q 136 269 136 183 l 136 744 q 172 896 136 832 q 272 994 207 960 q 424 1028 336 1028 q 577 992 513 1028 q 677 890 642 956 q 713 736 713 825 l 621 736 q 568 890 621 835 q 424 946 515 946 q 281 892 333 946 q 228 744 228 839 l 228 269 q 281 122 228 175 q 424 68 333 68 q 569 124 517 68 q 621 278 621 181 l 713 278 q 677 124 713 189 q 577 22 642 58 q 424 -14 513 -14 z "},"Ĉ":{"ha":833,"x_min":136,"x_max":713,"o":"m 424 -14 q 272 21 336 -14 q 172 119 207 56 q 136 269 136 183 l 136 744 q 172 896 136 832 q 272 994 207 960 q 424 1028 336 1028 q 577 992 513 1028 q 677 890 642 956 q 713 736 713 825 l 621 736 q 568 890 621 835 q 424 946 515 946 q 281 892 333 946 q 228 744 228 839 l 228 269 q 281 122 228 175 q 424 68 333 68 q 569 124 517 68 q 621 278 621 181 l 713 278 q 677 124 713 189 q 577 22 642 58 q 424 -14 513 -14 m 199 1125 l 375 1319 l 471 1319 l 649 1125 l 553 1125 l 424 1260 l 297 1125 l 199 1125 z "},"Ċ":{"ha":833,"x_min":136,"x_max":713,"o":"m 424 -14 q 272 21 336 -14 q 172 119 207 56 q 136 269 136 183 l 136 744 q 172 896 136 832 q 272 994 207 960 q 424 1028 336 1028 q 577 992 513 1028 q 677 890 642 956 q 713 736 713 825 l 621 736 q 568 890 621 835 q 424 946 515 946 q 281 892 333 946 q 228 744 228 839 l 228 269 q 281 122 228 175 q 424 68 333 68 q 569 124 517 68 q 621 278 621 181 l 713 278 q 677 124 713 189 q 577 22 642 58 q 424 -14 513 -14 m 424 1140 q 360 1163 383 1140 q 336 1222 336 1185 q 360 1282 336 1260 q 424 1304 383 1304 q 488 1282 464 1304 q 511 1222 511 1260 q 488 1163 511 1185 q 424 1140 464 1140 z "},"D":{"ha":833,"x_min":143,"x_max":697,"o":"m 143 0 l 143 1014 l 381 1014 q 548 976 478 1014 q 658 869 618 938 q 697 708 697 801 l 697 306 q 658 145 697 214 q 548 38 618 76 q 381 0 478 0 l 143 0 m 235 83 l 381 83 q 544 143 483 83 q 606 306 606 203 l 606 708 q 544 870 606 810 q 381 931 483 931 l 235 931 l 235 83 z "},"Ð":{"ha":833,"x_min":14,"x_max":697,"o":"m 14 479 l 14 557 l 403 557 l 403 479 l 14 479 m 143 0 l 143 1014 l 381 1014 q 548 976 478 1014 q 658 869 618 938 q 697 708 697 801 l 697 306 q 658 145 697 214 q 548 38 618 76 q 381 0 478 0 l 143 0 m 235 83 l 381 83 q 544 143 483 83 q 606 306 606 203 l 606 708 q 544 870 606 810 q 381 931 483 931 l 235 931 l 235 83 z "},"Ď":{"ha":833,"x_min":143,"x_max":697,"o":"m 143 0 l 143 1014 l 381 1014 q 548 976 478 1014 q 658 869 618 938 q 697 708 697 801 l 697 306 q 658 145 697 214 q 548 38 618 76 q 381 0 478 0 l 143 0 m 235 83 l 381 83 q 544 143 483 83 q 606 306 606 203 l 606 708 q 544 870 606 810 q 381 931 483 931 l 235 931 l 235 83 m 369 1125 l 192 1319 l 289 1319 l 418 1185 l 546 1319 l 642 1319 l 465 1125 l 369 1125 z "},"Đ":{"ha":833,"x_min":14,"x_max":697,"o":"m 14 479 l 14 557 l 403 557 l 403 479 l 14 479 m 143 0 l 143 1014 l 381 1014 q 548 976 478 1014 q 658 869 618 938 q 697 708 697 801 l 697 306 q 658 145 697 214 q 548 38 618 76 q 381 0 478 0 l 143 0 m 235 83 l 381 83 q 544 143 483 83 q 606 306 606 203 l 606 708 q 544 870 606 810 q 381 931 483 931 l 235 931 l 235 83 z "},"E":{"ha":833,"x_min":156,"x_max":714,"o":"m 156 0 l 156 1014 l 714 1014 l 714 931 l 247 931 l 247 571 l 665 571 l 665 488 l 247 488 l 247 83 l 714 83 l 714 0 l 156 0 z "},"É":{"ha":833,"x_min":156,"x_max":714,"o":"m 156 0 l 156 1014 l 714 1014 l 714 931 l 247 931 l 247 571 l 665 571 l 665 488 l 247 488 l 247 83 l 714 83 l 714 0 l 156 0 m 382 1125 l 529 1319 l 632 1319 l 478 1125 l 382 1125 z "},"Ĕ":{"ha":833,"x_min":156,"x_max":714,"o":"m 156 0 l 156 1014 l 714 1014 l 714 931 l 247 931 l 247 571 l 665 571 l 665 488 l 247 488 l 247 83 l 714 83 l 714 0 l 156 0 m 444 1121 q 292 1175 349 1121 q 235 1319 235 1229 l 311 1319 q 347 1222 311 1258 q 443 1186 382 1186 q 542 1222 506 1186 q 578 1319 578 1258 l 654 1319 q 597 1175 654 1229 q 444 1121 540 1121 z "},"Ě":{"ha":833,"x_min":156,"x_max":714,"o":"m 156 0 l 156 1014 l 714 1014 l 714 931 l 247 931 l 247 571 l 665 571 l 665 488 l 247 488 l 247 83 l 714 83 l 714 0 l 156 0 m 397 1125 l 219 1319 l 317 1319 l 446 1185 l 574 1319 l 669 1319 l 493 1125 l 397 1125 z "},"Ê":{"ha":833,"x_min":156,"x_max":714,"o":"m 156 0 l 156 1014 l 714 1014 l 714 931 l 247 931 l 247 571 l 665 571 l 665 488 l 247 488 l 247 83 l 714 83 l 714 0 l 156 0 m 219 1125 l 396 1319 l 492 1319 l 669 1125 l 574 1125 l 444 1260 l 318 1125 l 219 1125 z "},"Ế":{"ha":833,"x_min":156,"x_max":817,"o":"m 156 0 l 156 1014 l 714 1014 l 714 931 l 247 931 l 247 571 l 665 571 l 665 488 l 247 488 l 247 83 l 714 83 l 714 0 l 156 0 m 564 1246 l 710 1417 l 817 1417 l 660 1246 l 564 1246 m 192 1083 l 368 1278 l 465 1278 l 642 1083 l 546 1083 l 417 1218 l 289 1083 l 192 1083 z "},"Ệ":{"ha":833,"x_min":156,"x_max":714,"o":"m 192 1125 l 368 1319 l 464 1319 l 642 1125 l 546 1125 l 417 1260 l 290 1125 l 192 1125 m 156 0 l 156 1014 l 714 1014 l 714 931 l 247 931 l 247 571 l 665 571 l 665 488 l 247 488 l 247 83 l 714 83 l 714 0 l 156 0 m 444 -289 q 381 -267 404 -289 q 357 -208 357 -246 q 381 -149 357 -171 q 444 -126 404 -126 q 508 -149 485 -126 q 532 -208 532 -171 q 508 -267 532 -246 q 444 -289 485 -289 z "},"Ề":{"ha":833,"x_min":156,"x_max":714,"o":"m 156 0 l 156 1014 l 714 1014 l 714 931 l 247 931 l 247 571 l 665 571 l 665 488 l 247 488 l 247 83 l 714 83 l 714 0 l 156 0 m 618 1246 l 453 1417 l 558 1417 l 713 1246 l 618 1246 m 192 1083 l 368 1278 l 465 1278 l 642 1083 l 546 1083 l 417 1218 l 289 1083 l 192 1083 z "},"Ể":{"ha":833,"x_min":156,"x_max":754,"o":"m 156 0 l 156 1014 l 714 1014 l 714 931 l 247 931 l 247 571 l 665 571 l 665 488 l 247 488 l 247 83 l 714 83 l 714 0 l 156 0 m 596 1222 l 661 1293 q 681 1331 681 1314 q 650 1356 681 1356 l 551 1356 l 551 1417 l 658 1417 q 728 1397 703 1417 q 754 1342 754 1376 q 746 1304 754 1322 q 724 1271 738 1286 l 678 1222 l 596 1222 m 192 1083 l 368 1278 l 465 1278 l 642 1083 l 546 1083 l 417 1218 l 289 1083 l 192 1083 z "},"Ễ":{"ha":833,"x_min":156,"x_max":714,"o":"m 156 0 l 156 1014 l 714 1014 l 714 931 l 247 931 l 247 571 l 665 571 l 665 488 l 247 488 l 247 83 l 714 83 l 714 0 l 156 0 m 522 1278 q 453 1290 482 1278 q 404 1317 425 1301 q 364 1344 383 1332 q 319 1356 344 1356 q 283 1343 296 1356 q 269 1308 269 1331 l 269 1292 l 200 1292 l 200 1308 q 231 1388 200 1358 q 317 1417 263 1417 q 385 1405 358 1417 q 433 1378 413 1393 q 474 1351 454 1363 q 518 1339 493 1339 q 551 1352 539 1339 q 564 1386 564 1365 l 564 1403 l 633 1403 l 633 1386 q 603 1308 633 1338 q 522 1278 574 1278 m 192 1083 l 356 1246 l 478 1246 l 642 1083 l 544 1083 l 417 1200 l 289 1083 l 192 1083 z "},"Ë":{"ha":833,"x_min":156,"x_max":714,"o":"m 156 0 l 156 1014 l 714 1014 l 714 931 l 247 931 l 247 571 l 665 571 l 665 488 l 247 488 l 247 83 l 714 83 l 714 0 l 156 0 m 597 1142 q 540 1163 561 1142 q 518 1222 518 1185 q 540 1282 518 1260 q 597 1304 561 1304 q 654 1282 633 1304 q 675 1222 675 1260 q 654 1163 675 1185 q 597 1142 633 1142 m 294 1142 q 238 1163 260 1142 q 217 1222 217 1185 q 238 1282 217 1260 q 294 1304 260 1304 q 352 1282 331 1304 q 374 1222 374 1260 q 352 1163 374 1185 q 294 1142 331 1142 z "},"Ė":{"ha":833,"x_min":156,"x_max":714,"o":"m 156 0 l 156 1014 l 714 1014 l 714 931 l 247 931 l 247 571 l 665 571 l 665 488 l 247 488 l 247 83 l 714 83 l 714 0 l 156 0 m 444 1140 q 381 1163 404 1140 q 357 1222 357 1185 q 381 1282 357 1260 q 444 1304 404 1304 q 508 1282 485 1304 q 532 1222 532 1260 q 508 1163 532 1185 q 444 1140 485 1140 z "},"Ẹ":{"ha":833,"x_min":156,"x_max":714,"o":"m 156 0 l 156 1014 l 714 1014 l 714 931 l 247 931 l 247 571 l 665 571 l 665 488 l 247 488 l 247 83 l 714 83 l 714 0 l 156 0 m 444 -289 q 381 -267 404 -289 q 357 -208 357 -246 q 381 -149 357 -171 q 444 -126 404 -126 q 508 -149 485 -126 q 532 -208 532 -171 q 508 -267 532 -246 q 444 -289 485 -289 z "},"È":{"ha":833,"x_min":156,"x_max":714,"o":"m 156 0 l 156 1014 l 714 1014 l 714 931 l 247 931 l 247 571 l 665 571 l 665 488 l 247 488 l 247 83 l 714 83 l 714 0 l 156 0 m 413 1125 l 254 1319 l 361 1319 l 511 1125 l 413 1125 z "},"Ẻ":{"ha":833,"x_min":156,"x_max":714,"o":"m 156 0 l 156 1014 l 714 1014 l 714 931 l 247 931 l 247 571 l 665 571 l 665 488 l 247 488 l 247 83 l 714 83 l 714 0 l 156 0 m 372 1111 l 443 1210 q 465 1257 465 1240 q 417 1292 465 1292 l 301 1292 l 301 1357 l 419 1357 q 508 1332 475 1357 q 542 1267 542 1307 q 517 1193 542 1229 l 460 1111 l 372 1111 z "},"Ē":{"ha":833,"x_min":156,"x_max":714,"o":"m 156 0 l 156 1014 l 714 1014 l 714 931 l 247 931 l 247 571 l 665 571 l 665 488 l 247 488 l 247 83 l 714 83 l 714 0 l 156 0 m 239 1178 l 239 1256 l 650 1256 l 650 1178 l 239 1178 z "},"Ę":{"ha":833,"x_min":156,"x_max":721,"o":"m 617 -275 q 513 -242 551 -275 q 475 -157 475 -210 q 503 -72 475 -115 q 590 14 532 -28 l 663 14 l 647 0 q 583 -73 606 -37 q 561 -137 561 -108 q 581 -188 561 -169 q 635 -207 600 -207 l 721 -207 l 721 -275 l 617 -275 m 156 0 l 156 1014 l 714 1014 l 714 931 l 247 931 l 247 571 l 665 571 l 665 488 l 247 488 l 247 83 l 714 83 l 714 0 l 156 0 z "},"Ẽ":{"ha":833,"x_min":156,"x_max":714,"o":"m 156 0 l 156 1014 l 714 1014 l 714 931 l 247 931 l 247 571 l 665 571 l 665 488 l 247 488 l 247 83 l 714 83 l 714 0 l 156 0 m 546 1132 q 479 1149 506 1132 q 433 1190 453 1167 q 394 1230 413 1213 q 350 1247 375 1247 q 308 1231 324 1247 q 292 1185 292 1214 l 292 1139 l 222 1139 l 222 1185 q 256 1278 222 1244 q 347 1313 290 1313 q 414 1295 388 1313 q 460 1255 440 1278 q 499 1215 481 1232 q 543 1197 518 1197 q 583 1214 568 1197 q 597 1260 597 1231 l 597 1306 l 667 1306 l 667 1260 q 634 1166 667 1200 q 546 1132 601 1132 z "},"F":{"ha":833,"x_min":149,"x_max":729,"o":"m 149 0 l 149 1014 l 729 1014 l 729 931 l 239 931 l 239 553 l 686 553 l 686 468 l 240 468 l 240 0 l 149 0 z "},"G":{"ha":833,"x_min":136,"x_max":713,"o":"m 424 -14 q 272 21 336 -14 q 172 119 207 56 q 136 269 136 183 l 136 744 q 172 896 136 832 q 272 994 207 960 q 424 1028 336 1028 q 577 992 513 1028 q 677 890 642 956 q 713 736 713 825 l 621 736 q 568 890 621 835 q 424 946 515 946 q 281 892 333 946 q 228 744 228 839 l 228 269 q 281 122 228 175 q 424 68 333 68 q 569 124 517 68 q 621 278 621 181 l 621 419 l 394 419 l 394 503 l 713 503 l 713 278 q 677 124 713 189 q 577 22 642 58 q 424 -14 513 -14 z "},"Ǵ":{"ha":833,"x_min":136,"x_max":713,"o":"m 424 -14 q 272 21 336 -14 q 172 119 207 56 q 136 269 136 183 l 136 744 q 172 896 136 832 q 272 994 207 960 q 424 1028 336 1028 q 577 992 513 1028 q 677 890 642 956 q 713 736 713 825 l 621 736 q 568 890 621 835 q 424 946 515 946 q 281 892 333 946 q 228 744 228 839 l 228 269 q 281 122 228 175 q 424 68 333 68 q 569 124 517 68 q 621 278 621 181 l 621 419 l 394 419 l 394 503 l 713 503 l 713 278 q 677 124 713 189 q 577 22 642 58 q 424 -14 513 -14 m 360 1125 l 507 1319 l 610 1319 l 456 1125 l 360 1125 z "},"Ğ":{"ha":833,"x_min":136,"x_max":713,"o":"m 424 -14 q 272 21 336 -14 q 172 119 207 56 q 136 269 136 183 l 136 744 q 172 896 136 832 q 272 994 207 960 q 424 1028 336 1028 q 577 992 513 1028 q 677 890 642 956 q 713 736 713 825 l 621 736 q 568 890 621 835 q 424 946 515 946 q 281 892 333 946 q 228 744 228 839 l 228 269 q 281 122 228 175 q 424 68 333 68 q 569 124 517 68 q 621 278 621 181 l 621 419 l 394 419 l 394 503 l 713 503 l 713 278 q 677 124 713 189 q 577 22 642 58 q 424 -14 513 -14 m 422 1121 q 269 1175 326 1121 q 213 1319 213 1229 l 289 1319 q 324 1222 289 1258 q 421 1186 360 1186 q 519 1222 483 1186 q 556 1319 556 1258 l 632 1319 q 575 1175 632 1229 q 422 1121 518 1121 z "},"Ǧ":{"ha":833,"x_min":136,"x_max":713,"o":"m 424 -14 q 272 21 336 -14 q 172 119 207 56 q 136 269 136 183 l 136 744 q 172 896 136 832 q 272 994 207 960 q 424 1028 336 1028 q 577 992 513 1028 q 677 890 642 956 q 713 736 713 825 l 621 736 q 568 890 621 835 q 424 946 515 946 q 281 892 333 946 q 228 744 228 839 l 228 269 q 281 122 228 175 q 424 68 333 68 q 569 124 517 68 q 621 278 621 181 l 621 419 l 394 419 l 394 503 l 713 503 l 713 278 q 677 124 713 189 q 577 22 642 58 q 424 -14 513 -14 m 375 1125 l 197 1319 l 294 1319 l 424 1185 l 551 1319 l 647 1319 l 471 1125 l 375 1125 z "},"Ĝ":{"ha":833,"x_min":136,"x_max":713,"o":"m 424 -14 q 272 21 336 -14 q 172 119 207 56 q 136 269 136 183 l 136 744 q 172 896 136 832 q 272 994 207 960 q 424 1028 336 1028 q 577 992 513 1028 q 677 890 642 956 q 713 736 713 825 l 621 736 q 568 890 621 835 q 424 946 515 946 q 281 892 333 946 q 228 744 228 839 l 228 269 q 281 122 228 175 q 424 68 333 68 q 569 124 517 68 q 621 278 621 181 l 621 419 l 394 419 l 394 503 l 713 503 l 713 278 q 677 124 713 189 q 577 22 642 58 q 424 -14 513 -14 m 197 1125 l 374 1319 l 469 1319 l 647 1125 l 551 1125 l 422 1260 l 296 1125 l 197 1125 z "},"Ģ":{"ha":833,"x_min":136,"x_max":713,"o":"m 424 -14 q 272 21 336 -14 q 172 119 207 56 q 136 269 136 183 l 136 744 q 172 896 136 832 q 272 994 207 960 q 424 1028 336 1028 q 577 992 513 1028 q 677 890 642 956 q 713 736 713 825 l 621 736 q 568 890 621 835 q 424 946 515 946 q 281 892 333 946 q 228 744 228 839 l 228 269 q 281 122 228 175 q 424 68 333 68 q 569 124 517 68 q 621 278 621 181 l 621 419 l 394 419 l 394 503 l 713 503 l 713 278 q 677 124 713 189 q 577 22 642 58 q 424 -14 513 -14 m 292 -333 l 419 -132 l 532 -132 l 386 -333 l 292 -333 z "},"Ġ":{"ha":833,"x_min":136,"x_max":713,"o":"m 424 -14 q 272 21 336 -14 q 172 119 207 56 q 136 269 136 183 l 136 744 q 172 896 136 832 q 272 994 207 960 q 424 1028 336 1028 q 577 992 513 1028 q 677 890 642 956 q 713 736 713 825 l 621 736 q 568 890 621 835 q 424 946 515 946 q 281 892 333 946 q 228 744 228 839 l 228 269 q 281 122 228 175 q 424 68 333 68 q 569 124 517 68 q 621 278 621 181 l 621 419 l 394 419 l 394 503 l 713 503 l 713 278 q 677 124 713 189 q 577 22 642 58 q 424 -14 513 -14 m 422 1140 q 358 1163 382 1140 q 335 1222 335 1185 q 358 1282 335 1260 q 422 1304 382 1304 q 486 1282 463 1304 q 510 1222 510 1260 q 486 1163 510 1185 q 422 1140 463 1140 z "},"H":{"ha":833,"x_min":143,"x_max":690,"o":"m 143 0 l 143 1014 l 235 1014 l 235 567 l 599 567 l 599 1014 l 690 1014 l 690 0 l 599 0 l 599 483 l 235 483 l 235 0 l 143 0 z "},"Ħ":{"ha":833,"x_min":14,"x_max":819,"o":"m 14 742 l 14 819 l 819 819 l 819 742 l 14 742 m 143 0 l 143 1014 l 235 1014 l 235 567 l 599 567 l 599 1014 l 690 1014 l 690 0 l 599 0 l 599 483 l 235 483 l 235 0 l 143 0 z "},"Ĥ":{"ha":833,"x_min":143,"x_max":690,"o":"m 143 0 l 143 1014 l 235 1014 l 235 567 l 599 567 l 599 1014 l 690 1014 l 690 0 l 599 0 l 599 483 l 235 483 l 235 0 l 143 0 m 192 1125 l 368 1319 l 464 1319 l 642 1125 l 546 1125 l 417 1260 l 290 1125 l 192 1125 z "},"I":{"ha":833,"x_min":158,"x_max":675,"o":"m 158 0 l 158 83 l 371 83 l 371 931 l 158 931 l 158 1015 l 675 1015 l 675 931 l 464 931 l 464 83 l 675 83 l 675 0 l 158 0 z "},"Í":{"ha":833,"x_min":158,"x_max":675,"o":"m 158 0 l 158 83 l 371 83 l 371 931 l 158 931 l 158 1015 l 675 1015 l 675 931 l 464 931 l 464 83 l 675 83 l 675 0 l 158 0 m 354 1125 l 501 1319 l 604 1319 l 450 1125 l 354 1125 z "},"Ĭ":{"ha":833,"x_min":158,"x_max":675,"o":"m 158 0 l 158 83 l 371 83 l 371 931 l 158 931 l 158 1015 l 675 1015 l 675 931 l 464 931 l 464 83 l 675 83 l 675 0 l 158 0 m 417 1121 q 264 1175 321 1121 q 207 1319 207 1229 l 283 1319 q 319 1222 283 1258 q 415 1186 354 1186 q 514 1222 478 1186 q 550 1319 550 1258 l 626 1319 q 569 1175 626 1229 q 417 1121 513 1121 z "},"Î":{"ha":833,"x_min":158,"x_max":675,"o":"m 158 0 l 158 83 l 371 83 l 371 931 l 158 931 l 158 1015 l 675 1015 l 675 931 l 464 931 l 464 83 l 675 83 l 675 0 l 158 0 m 192 1125 l 368 1319 l 464 1319 l 642 1125 l 546 1125 l 417 1260 l 290 1125 l 192 1125 z "},"Ï":{"ha":833,"x_min":158,"x_max":675,"o":"m 158 0 l 158 83 l 371 83 l 371 931 l 158 931 l 158 1015 l 675 1015 l 675 931 l 464 931 l 464 83 l 675 83 l 675 0 l 158 0 m 569 1142 q 512 1163 533 1142 q 490 1222 490 1185 q 512 1282 490 1260 q 569 1304 533 1304 q 626 1282 606 1304 q 647 1222 647 1260 q 626 1163 647 1185 q 569 1142 606 1142 m 267 1142 q 210 1163 232 1142 q 189 1222 189 1185 q 210 1282 189 1260 q 267 1304 232 1304 q 324 1282 303 1304 q 346 1222 346 1260 q 324 1163 346 1185 q 267 1142 303 1142 z "},"İ":{"ha":833,"x_min":158,"x_max":675,"o":"m 158 0 l 158 83 l 371 83 l 371 931 l 158 931 l 158 1015 l 675 1015 l 675 931 l 464 931 l 464 83 l 675 83 l 675 0 l 158 0 m 417 1140 q 353 1163 376 1140 q 329 1222 329 1185 q 353 1282 329 1260 q 417 1304 376 1304 q 481 1282 457 1304 q 504 1222 504 1260 q 481 1163 504 1185 q 417 1140 457 1140 z "},"Ị":{"ha":833,"x_min":158,"x_max":675,"o":"m 158 0 l 158 83 l 371 83 l 371 931 l 158 931 l 158 1015 l 675 1015 l 675 931 l 464 931 l 464 83 l 675 83 l 675 0 l 158 0 m 417 -289 q 353 -267 376 -289 q 329 -208 329 -246 q 353 -149 329 -171 q 417 -126 376 -126 q 481 -149 457 -126 q 504 -208 504 -171 q 481 -267 504 -246 q 417 -289 457 -289 z "},"Ì":{"ha":833,"x_min":158,"x_max":675,"o":"m 158 0 l 158 83 l 371 83 l 371 931 l 158 931 l 158 1015 l 675 1015 l 675 931 l 464 931 l 464 83 l 675 83 l 675 0 l 158 0 m 385 1125 l 226 1319 l 333 1319 l 483 1125 l 385 1125 z "},"Ỉ":{"ha":833,"x_min":158,"x_max":675,"o":"m 158 0 l 158 83 l 371 83 l 371 931 l 158 931 l 158 1015 l 675 1015 l 675 931 l 464 931 l 464 83 l 675 83 l 675 0 l 158 0 m 397 1111 l 468 1210 q 490 1257 490 1240 q 442 1292 490 1292 l 326 1292 l 326 1357 l 444 1357 q 533 1332 500 1357 q 567 1267 567 1307 q 542 1193 567 1229 l 485 1111 l 397 1111 z "},"Ī":{"ha":833,"x_min":158,"x_max":675,"o":"m 158 0 l 158 83 l 371 83 l 371 931 l 158 931 l 158 1015 l 675 1015 l 675 931 l 464 931 l 464 83 l 675 83 l 675 0 l 158 0 m 211 1178 l 211 1256 l 622 1256 l 622 1178 l 211 1178 z "},"Į":{"ha":833,"x_min":158,"x_max":675,"o":"m 422 -275 q 319 -242 357 -275 q 281 -157 281 -210 q 309 -72 281 -115 q 396 14 338 -28 l 468 14 l 453 0 q 389 -73 411 -37 q 367 -137 367 -108 q 386 -188 367 -169 q 440 -207 406 -207 l 526 -207 l 526 -275 l 422 -275 m 158 0 l 158 83 l 371 83 l 371 931 l 158 931 l 158 1015 l 675 1015 l 675 931 l 464 931 l 464 83 l 675 83 l 675 0 l 158 0 z "},"Ĩ":{"ha":833,"x_min":158,"x_max":675,"o":"m 158 0 l 158 83 l 371 83 l 371 931 l 158 931 l 158 1015 l 675 1015 l 675 931 l 464 931 l 464 83 l 675 83 l 675 0 l 158 0 m 518 1132 q 451 1149 478 1132 q 405 1190 425 1167 q 366 1230 385 1213 q 322 1247 347 1247 q 280 1231 296 1247 q 264 1185 264 1214 l 264 1139 l 194 1139 l 194 1185 q 228 1278 194 1244 q 319 1313 263 1313 q 386 1295 360 1313 q 433 1255 413 1278 q 472 1215 453 1232 q 515 1197 490 1197 q 555 1214 540 1197 q 569 1260 569 1231 l 569 1306 l 639 1306 l 639 1260 q 606 1166 639 1200 q 518 1132 574 1132 z "},"J":{"ha":833,"x_min":83,"x_max":675,"o":"m 379 -14 q 162 65 240 -14 q 83 283 83 144 l 175 283 q 229 125 175 182 q 379 68 283 68 q 529 125 475 68 q 583 282 583 182 l 583 929 l 331 929 l 331 1014 l 675 1014 l 675 282 q 595 65 675 144 q 379 -14 515 -14 z "},"Ĵ":{"ha":833,"x_min":83,"x_max":725,"o":"m 379 -14 q 162 65 240 -14 q 83 283 83 144 l 175 283 q 229 125 175 182 q 379 68 283 68 q 529 125 475 68 q 583 282 583 182 l 583 929 l 331 929 l 331 1014 l 675 1014 l 675 282 q 595 65 675 144 q 379 -14 515 -14 m 275 1125 l 451 1319 l 547 1319 l 725 1125 l 629 1125 l 500 1260 l 374 1125 l 275 1125 z "},"K":{"ha":833,"x_min":143,"x_max":761,"o":"m 143 0 l 143 1015 l 235 1015 l 235 565 l 422 565 l 647 1015 l 747 1015 l 503 528 l 761 0 l 654 0 l 419 485 l 235 485 l 235 0 l 143 0 z "},"Ķ":{"ha":833,"x_min":143,"x_max":761,"o":"m 143 0 l 143 1015 l 235 1015 l 235 565 l 422 565 l 647 1015 l 747 1015 l 503 528 l 761 0 l 654 0 l 419 485 l 235 485 l 235 0 l 143 0 m 285 -333 l 413 -132 l 525 -132 l 379 -333 l 285 -333 z "},"L":{"ha":833,"x_min":164,"x_max":735,"o":"m 164 0 l 164 1014 l 256 1014 l 256 83 l 735 83 l 735 0 l 164 0 z "},"Ĺ":{"ha":833,"x_min":149,"x_max":735,"o":"m 164 0 l 164 1014 l 256 1014 l 256 83 l 735 83 l 735 0 l 164 0 m 149 1125 l 296 1319 l 399 1319 l 244 1125 l 149 1125 z "},"Ľ":{"ha":833,"x_min":164,"x_max":735,"o":"m 164 0 l 164 1014 l 256 1014 l 256 83 l 735 83 l 735 0 l 164 0 m 499 764 l 513 1014 l 601 1014 l 574 764 l 499 764 z "},"Ļ":{"ha":833,"x_min":164,"x_max":735,"o":"m 164 0 l 164 1014 l 256 1014 l 256 83 l 735 83 l 735 0 l 164 0 m 313 -333 l 440 -132 l 553 -132 l 407 -333 l 313 -333 z "},"Ŀ":{"ha":833,"x_min":164,"x_max":735,"o":"m 164 0 l 164 1014 l 256 1014 l 256 83 l 735 83 l 735 0 l 164 0 z "},"Ł":{"ha":833,"x_min":28,"x_max":743,"o":"m 28 328 l 28 418 l 542 769 l 542 679 l 28 328 m 172 0 l 172 1014 l 264 1014 l 264 83 l 743 83 l 743 0 l 172 0 z "},"M":{"ha":833,"x_min":119,"x_max":714,"o":"m 119 0 l 119 1014 l 247 1014 l 374 650 q 400 574 388 614 q 419 511 413 535 q 439 574 426 535 q 463 650 451 614 l 588 1014 l 714 1014 l 714 0 l 625 0 l 625 514 q 627 633 625 569 q 633 758 629 696 q 640 875 636 821 q 646 968 643 929 l 467 449 l 369 449 l 188 968 q 195 876 192 929 q 201 762 199 824 q 206 636 204 700 q 208 514 208 572 l 208 0 l 119 0 z "},"N":{"ha":833,"x_min":142,"x_max":692,"o":"m 142 0 l 142 1014 l 265 1014 l 613 104 q 608 175 610 135 q 604 254 606 215 q 603 319 603 293 l 603 1014 l 692 1014 l 692 0 l 568 0 l 224 910 q 226 854 225 889 q 229 778 228 819 q 231 694 231 736 l 231 0 l 142 0 z "},"Ń":{"ha":833,"x_min":142,"x_max":692,"o":"m 142 0 l 142 1014 l 265 1014 l 613 104 q 608 175 610 135 q 604 254 606 215 q 603 319 603 293 l 603 1014 l 692 1014 l 692 0 l 568 0 l 224 910 q 226 854 225 889 q 229 778 228 819 q 231 694 231 736 l 231 0 l 142 0 m 354 1125 l 501 1319 l 604 1319 l 450 1125 l 354 1125 z "},"Ň":{"ha":833,"x_min":142,"x_max":692,"o":"m 142 0 l 142 1014 l 265 1014 l 613 104 q 608 175 610 135 q 604 254 606 215 q 603 319 603 293 l 603 1014 l 692 1014 l 692 0 l 568 0 l 224 910 q 226 854 225 889 q 229 778 228 819 q 231 694 231 736 l 231 0 l 142 0 m 369 1125 l 192 1319 l 289 1319 l 418 1185 l 546 1319 l 642 1319 l 465 1125 l 369 1125 z "},"Ņ":{"ha":833,"x_min":142,"x_max":692,"o":"m 142 0 l 142 1014 l 265 1014 l 613 104 q 608 175 610 135 q 604 254 606 215 q 603 319 603 293 l 603 1014 l 692 1014 l 692 0 l 568 0 l 224 910 q 226 854 225 889 q 229 778 228 819 q 231 694 231 736 l 231 0 l 142 0 m 285 -333 l 413 -132 l 525 -132 l 379 -333 l 285 -333 z "},"Ŋ":{"ha":833,"x_min":140,"x_max":693,"o":"m 322 -250 l 322 -167 l 425 -167 q 556 -121 510 -167 q 601 8 601 -75 l 222 910 q 226 854 225 889 q 228 778 226 819 q 229 694 229 736 l 229 0 l 140 0 l 140 1014 l 265 1014 l 613 179 q 609 240 611 203 q 606 319 607 276 q 604 403 604 363 l 604 1014 l 693 1014 l 693 8 q 660 -131 693 -72 q 568 -219 628 -189 q 425 -250 508 -250 l 322 -250 z "},"Ñ":{"ha":833,"x_min":142,"x_max":692,"o":"m 142 0 l 142 1014 l 265 1014 l 613 104 q 608 175 610 135 q 604 254 606 215 q 603 319 603 293 l 603 1014 l 692 1014 l 692 0 l 568 0 l 224 910 q 226 854 225 889 q 229 778 228 819 q 231 694 231 736 l 231 0 l 142 0 m 518 1132 q 451 1149 478 1132 q 405 1190 425 1167 q 366 1230 385 1213 q 322 1247 347 1247 q 280 1231 296 1247 q 264 1185 264 1214 l 264 1139 l 194 1139 l 194 1185 q 228 1278 194 1244 q 319 1313 263 1313 q 386 1295 360 1313 q 433 1255 413 1278 q 472 1215 453 1232 q 515 1197 490 1197 q 555 1214 540 1197 q 569 1260 569 1231 l 569 1306 l 639 1306 l 639 1260 q 606 1166 639 1200 q 518 1132 574 1132 z "},"O":{"ha":833,"x_min":136,"x_max":697,"o":"m 417 -14 q 267 20 331 -14 q 170 118 204 54 q 136 269 136 182 l 136 744 q 170 895 136 832 q 267 993 204 958 q 417 1028 331 1028 q 566 993 503 1028 q 663 895 629 958 q 697 744 697 832 l 697 269 q 663 118 697 182 q 566 20 629 54 q 417 -14 503 -14 m 417 68 q 556 121 507 68 q 606 269 606 174 l 606 744 q 556 893 606 840 q 417 946 506 946 q 278 893 328 946 q 228 744 228 840 l 228 269 q 277 121 228 174 q 417 68 326 68 z "},"Ó":{"ha":833,"x_min":136,"x_max":697,"o":"m 417 -14 q 267 20 331 -14 q 170 118 204 54 q 136 269 136 182 l 136 744 q 170 895 136 832 q 267 993 204 958 q 417 1028 331 1028 q 566 993 503 1028 q 663 895 629 958 q 697 744 697 832 l 697 269 q 663 118 697 182 q 566 20 629 54 q 417 -14 503 -14 m 417 68 q 556 121 507 68 q 606 269 606 174 l 606 744 q 556 893 606 840 q 417 946 506 946 q 278 893 328 946 q 228 744 228 840 l 228 269 q 277 121 228 174 q 417 68 326 68 m 354 1125 l 501 1319 l 604 1319 l 450 1125 l 354 1125 z "},"Ŏ":{"ha":833,"x_min":136,"x_max":697,"o":"m 417 -14 q 267 20 331 -14 q 170 118 204 54 q 136 269 136 182 l 136 744 q 170 895 136 832 q 267 993 204 958 q 417 1028 331 1028 q 566 993 503 1028 q 663 895 629 958 q 697 744 697 832 l 697 269 q 663 118 697 182 q 566 20 629 54 q 417 -14 503 -14 m 417 68 q 556 121 507 68 q 606 269 606 174 l 606 744 q 556 893 606 840 q 417 946 506 946 q 278 893 328 946 q 228 744 228 840 l 228 269 q 277 121 228 174 q 417 68 326 68 m 417 1121 q 264 1175 321 1121 q 207 1319 207 1229 l 283 1319 q 319 1222 283 1258 q 415 1186 354 1186 q 514 1222 478 1186 q 550 1319 550 1258 l 626 1319 q 569 1175 626 1229 q 417 1121 513 1121 z "},"Ô":{"ha":833,"x_min":136,"x_max":697,"o":"m 417 -14 q 267 20 331 -14 q 170 118 204 54 q 136 269 136 182 l 136 744 q 170 895 136 832 q 267 993 204 958 q 417 1028 331 1028 q 566 993 503 1028 q 663 895 629 958 q 697 744 697 832 l 697 269 q 663 118 697 182 q 566 20 629 54 q 417 -14 503 -14 m 417 68 q 556 121 507 68 q 606 269 606 174 l 606 744 q 556 893 606 840 q 417 946 506 946 q 278 893 328 946 q 228 744 228 840 l 228 269 q 277 121 228 174 q 417 68 326 68 m 192 1125 l 368 1319 l 464 1319 l 642 1125 l 546 1125 l 417 1260 l 290 1125 l 192 1125 z "},"Ố":{"ha":833,"x_min":136,"x_max":817,"o":"m 417 -14 q 267 20 331 -14 q 170 118 204 54 q 136 269 136 182 l 136 744 q 170 895 136 832 q 267 993 204 958 q 417 1028 331 1028 q 566 993 503 1028 q 663 895 629 958 q 697 744 697 832 l 697 269 q 663 118 697 182 q 566 20 629 54 q 417 -14 503 -14 m 417 68 q 556 121 507 68 q 606 269 606 174 l 606 744 q 556 893 606 840 q 417 946 506 946 q 278 893 328 946 q 228 744 228 840 l 228 269 q 277 121 228 174 q 417 68 326 68 m 564 1246 l 710 1417 l 817 1417 l 660 1246 l 564 1246 m 192 1083 l 368 1278 l 465 1278 l 642 1083 l 546 1083 l 417 1218 l 289 1083 l 192 1083 z "},"Ộ":{"ha":833,"x_min":136,"x_max":697,"o":"m 192 1125 l 368 1319 l 464 1319 l 642 1125 l 546 1125 l 417 1260 l 290 1125 l 192 1125 m 417 -14 q 267 20 331 -14 q 170 118 204 54 q 136 269 136 182 l 136 744 q 170 895 136 832 q 267 993 204 958 q 417 1028 331 1028 q 566 993 503 1028 q 663 895 629 958 q 697 744 697 832 l 697 269 q 663 118 697 182 q 566 20 629 54 q 417 -14 503 -14 m 417 68 q 556 121 507 68 q 606 269 606 174 l 606 744 q 556 893 606 840 q 417 946 506 946 q 278 893 328 946 q 228 744 228 840 l 228 269 q 277 121 228 174 q 417 68 326 68 m 417 -289 q 353 -267 376 -289 q 329 -208 329 -246 q 353 -149 329 -171 q 417 -126 376 -126 q 481 -149 457 -126 q 504 -208 504 -171 q 481 -267 504 -246 q 417 -289 457 -289 z "},"Ồ":{"ha":833,"x_min":136,"x_max":713,"o":"m 417 -14 q 267 20 331 -14 q 170 118 204 54 q 136 269 136 182 l 136 744 q 170 895 136 832 q 267 993 204 958 q 417 1028 331 1028 q 566 993 503 1028 q 663 895 629 958 q 697 744 697 832 l 697 269 q 663 118 697 182 q 566 20 629 54 q 417 -14 503 -14 m 417 68 q 556 121 507 68 q 606 269 606 174 l 606 744 q 556 893 606 840 q 417 946 506 946 q 278 893 328 946 q 228 744 228 840 l 228 269 q 277 121 228 174 q 417 68 326 68 m 618 1246 l 453 1417 l 558 1417 l 713 1246 l 618 1246 m 192 1083 l 368 1278 l 465 1278 l 642 1083 l 546 1083 l 417 1218 l 289 1083 l 192 1083 z "},"Ổ":{"ha":833,"x_min":136,"x_max":754,"o":"m 417 -14 q 267 20 331 -14 q 170 118 204 54 q 136 269 136 182 l 136 744 q 170 895 136 832 q 267 993 204 958 q 417 1028 331 1028 q 566 993 503 1028 q 663 895 629 958 q 697 744 697 832 l 697 269 q 663 118 697 182 q 566 20 629 54 q 417 -14 503 -14 m 417 68 q 556 121 507 68 q 606 269 606 174 l 606 744 q 556 893 606 840 q 417 946 506 946 q 278 893 328 946 q 228 744 228 840 l 228 269 q 277 121 228 174 q 417 68 326 68 m 596 1222 l 661 1293 q 681 1331 681 1314 q 650 1356 681 1356 l 551 1356 l 551 1417 l 658 1417 q 728 1397 703 1417 q 754 1342 754 1376 q 746 1304 754 1322 q 724 1271 738 1286 l 678 1222 l 596 1222 m 192 1083 l 368 1278 l 465 1278 l 642 1083 l 546 1083 l 417 1218 l 289 1083 l 192 1083 z "},"Ỗ":{"ha":833,"x_min":136,"x_max":697,"o":"m 417 -14 q 267 20 331 -14 q 170 118 204 54 q 136 269 136 182 l 136 744 q 170 895 136 832 q 267 993 204 958 q 417 1028 331 1028 q 566 993 503 1028 q 663 895 629 958 q 697 744 697 832 l 697 269 q 663 118 697 182 q 566 20 629 54 q 417 -14 503 -14 m 417 68 q 556 121 507 68 q 606 269 606 174 l 606 744 q 556 893 606 840 q 417 946 506 946 q 278 893 328 946 q 228 744 228 840 l 228 269 q 277 121 228 174 q 417 68 326 68 m 522 1278 q 453 1290 482 1278 q 404 1317 425 1301 q 364 1344 383 1332 q 319 1356 344 1356 q 283 1343 296 1356 q 269 1308 269 1331 l 269 1292 l 200 1292 l 200 1308 q 231 1388 200 1358 q 317 1417 263 1417 q 385 1405 358 1417 q 433 1378 413 1393 q 474 1351 454 1363 q 518 1339 493 1339 q 551 1352 539 1339 q 564 1386 564 1365 l 564 1403 l 633 1403 l 633 1386 q 603 1308 633 1338 q 522 1278 574 1278 m 192 1083 l 356 1246 l 478 1246 l 642 1083 l 544 1083 l 417 1200 l 289 1083 l 192 1083 z "},"Ö":{"ha":833,"x_min":136,"x_max":697,"o":"m 417 -14 q 267 20 331 -14 q 170 118 204 54 q 136 269 136 182 l 136 744 q 170 895 136 832 q 267 993 204 958 q 417 1028 331 1028 q 566 993 503 1028 q 663 895 629 958 q 697 744 697 832 l 697 269 q 663 118 697 182 q 566 20 629 54 q 417 -14 503 -14 m 417 68 q 556 121 507 68 q 606 269 606 174 l 606 744 q 556 893 606 840 q 417 946 506 946 q 278 893 328 946 q 228 744 228 840 l 228 269 q 277 121 228 174 q 417 68 326 68 m 569 1142 q 512 1163 533 1142 q 490 1222 490 1185 q 512 1282 490 1260 q 569 1304 533 1304 q 626 1282 606 1304 q 647 1222 647 1260 q 626 1163 647 1185 q 569 1142 606 1142 m 267 1142 q 210 1163 232 1142 q 189 1222 189 1185 q 210 1282 189 1260 q 267 1304 232 1304 q 324 1282 303 1304 q 346 1222 346 1260 q 324 1163 346 1185 q 267 1142 303 1142 z "},"Ọ":{"ha":833,"x_min":136,"x_max":697,"o":"m 417 -14 q 267 20 331 -14 q 170 118 204 54 q 136 269 136 182 l 136 744 q 170 895 136 832 q 267 993 204 958 q 417 1028 331 1028 q 566 993 503 1028 q 663 895 629 958 q 697 744 697 832 l 697 269 q 663 118 697 182 q 566 20 629 54 q 417 -14 503 -14 m 417 68 q 556 121 507 68 q 606 269 606 174 l 606 744 q 556 893 606 840 q 417 946 506 946 q 278 893 328 946 q 228 744 228 840 l 228 269 q 277 121 228 174 q 417 68 326 68 m 431 -289 q 367 -267 390 -289 q 343 -208 343 -246 q 367 -149 343 -171 q 431 -126 390 -126 q 494 -149 471 -126 q 518 -208 518 -171 q 494 -267 518 -246 q 431 -289 471 -289 z "},"Ò":{"ha":833,"x_min":136,"x_max":697,"o":"m 417 -14 q 267 20 331 -14 q 170 118 204 54 q 136 269 136 182 l 136 744 q 170 895 136 832 q 267 993 204 958 q 417 1028 331 1028 q 566 993 503 1028 q 663 895 629 958 q 697 744 697 832 l 697 269 q 663 118 697 182 q 566 20 629 54 q 417 -14 503 -14 m 417 68 q 556 121 507 68 q 606 269 606 174 l 606 744 q 556 893 606 840 q 417 946 506 946 q 278 893 328 946 q 228 744 228 840 l 228 269 q 277 121 228 174 q 417 68 326 68 m 385 1125 l 226 1319 l 333 1319 l 483 1125 l 385 1125 z "},"Ỏ":{"ha":833,"x_min":136,"x_max":697,"o":"m 417 -14 q 267 20 331 -14 q 170 118 204 54 q 136 269 136 182 l 136 744 q 170 895 136 832 q 267 993 204 958 q 417 1028 331 1028 q 566 993 503 1028 q 663 895 629 958 q 697 744 697 832 l 697 269 q 663 118 697 182 q 566 20 629 54 q 417 -14 503 -14 m 417 68 q 556 121 507 68 q 606 269 606 174 l 606 744 q 556 893 606 840 q 417 946 506 946 q 278 893 328 946 q 228 744 228 840 l 228 269 q 277 121 228 174 q 417 68 326 68 m 397 1111 l 468 1210 q 490 1257 490 1240 q 442 1292 490 1292 l 326 1292 l 326 1357 l 444 1357 q 533 1332 500 1357 q 567 1267 567 1307 q 542 1193 567 1229 l 485 1111 l 397 1111 z "},"Ơ":{"ha":833,"x_min":136,"x_max":744,"o":"m 564 907 l 564 972 l 613 972 q 653 989 638 972 q 669 1033 669 1006 l 669 1125 l 744 1125 l 744 1031 q 709 941 744 975 q 615 907 674 907 l 564 907 m 417 -14 q 267 20 331 -14 q 170 118 204 54 q 136 269 136 182 l 136 744 q 170 895 136 832 q 267 993 204 958 q 417 1028 331 1028 q 566 993 503 1028 q 663 895 629 958 q 697 744 697 832 l 697 269 q 663 118 697 182 q 566 20 629 54 q 417 -14 503 -14 m 417 68 q 556 121 507 68 q 606 269 606 174 l 606 744 q 556 893 606 840 q 417 946 506 946 q 278 893 328 946 q 228 744 228 840 l 228 269 q 277 121 228 174 q 417 68 326 68 z "},"Ớ":{"ha":833,"x_min":136,"x_max":744,"o":"m 564 907 l 564 972 l 613 972 q 653 989 638 972 q 669 1033 669 1006 l 669 1125 l 744 1125 l 744 1031 q 709 941 744 975 q 615 907 674 907 l 564 907 m 417 -14 q 267 20 331 -14 q 170 118 204 54 q 136 269 136 182 l 136 744 q 170 895 136 832 q 267 993 204 958 q 417 1028 331 1028 q 566 993 503 1028 q 663 895 629 958 q 697 744 697 832 l 697 269 q 663 118 697 182 q 566 20 629 54 q 417 -14 503 -14 m 417 68 q 556 121 507 68 q 606 269 606 174 l 606 744 q 556 893 606 840 q 417 946 506 946 q 278 893 328 946 q 228 744 228 840 l 228 269 q 277 121 228 174 q 417 68 326 68 m 340 1125 l 488 1319 l 590 1319 l 436 1125 l 340 1125 z "},"Ợ":{"ha":833,"x_min":136,"x_max":744,"o":"m 564 907 l 564 972 l 613 972 q 653 989 638 972 q 669 1033 669 1006 l 669 1125 l 744 1125 l 744 1031 q 709 941 744 975 q 615 907 674 907 l 564 907 m 417 -14 q 267 20 331 -14 q 170 118 204 54 q 136 269 136 182 l 136 744 q 170 895 136 832 q 267 993 204 958 q 417 1028 331 1028 q 566 993 503 1028 q 663 895 629 958 q 697 744 697 832 l 697 269 q 663 118 697 182 q 566 20 629 54 q 417 -14 503 -14 m 417 68 q 556 121 507 68 q 606 269 606 174 l 606 744 q 556 893 606 840 q 417 946 506 946 q 278 893 328 946 q 228 744 228 840 l 228 269 q 277 121 228 174 q 417 68 326 68 m 431 -289 q 367 -267 390 -289 q 343 -208 343 -246 q 367 -149 343 -171 q 431 -126 390 -126 q 494 -149 471 -126 q 518 -208 518 -171 q 494 -267 518 -246 q 431 -289 471 -289 z "},"Ờ":{"ha":833,"x_min":136,"x_max":744,"o":"m 564 907 l 564 972 l 613 972 q 653 989 638 972 q 669 1033 669 1006 l 669 1125 l 744 1125 l 744 1031 q 709 941 744 975 q 615 907 674 907 l 564 907 m 417 -14 q 267 20 331 -14 q 170 118 204 54 q 136 269 136 182 l 136 744 q 170 895 136 832 q 267 993 204 958 q 417 1028 331 1028 q 566 993 503 1028 q 663 895 629 958 q 697 744 697 832 l 697 269 q 663 118 697 182 q 566 20 629 54 q 417 -14 503 -14 m 417 68 q 556 121 507 68 q 606 269 606 174 l 606 744 q 556 893 606 840 q 417 946 506 946 q 278 893 328 946 q 228 744 228 840 l 228 269 q 277 121 228 174 q 417 68 326 68 m 371 1125 l 213 1319 l 319 1319 l 469 1125 l 371 1125 z "},"Ở":{"ha":833,"x_min":136,"x_max":744,"o":"m 564 907 l 564 972 l 613 972 q 653 989 638 972 q 669 1033 669 1006 l 669 1125 l 744 1125 l 744 1031 q 709 941 744 975 q 615 907 674 907 l 564 907 m 417 -14 q 267 20 331 -14 q 170 118 204 54 q 136 269 136 182 l 136 744 q 170 895 136 832 q 267 993 204 958 q 417 1028 331 1028 q 566 993 503 1028 q 663 895 629 958 q 697 744 697 832 l 697 269 q 663 118 697 182 q 566 20 629 54 q 417 -14 503 -14 m 417 68 q 556 121 507 68 q 606 269 606 174 l 606 744 q 556 893 606 840 q 417 946 506 946 q 278 893 328 946 q 228 744 228 840 l 228 269 q 277 121 228 174 q 417 68 326 68 m 372 1111 l 443 1210 q 465 1257 465 1240 q 417 1292 465 1292 l 301 1292 l 301 1357 l 419 1357 q 508 1332 475 1357 q 542 1267 542 1307 q 517 1193 542 1229 l 460 1111 l 372 1111 z "},"Ỡ":{"ha":833,"x_min":136,"x_max":744,"o":"m 564 907 l 564 972 l 613 972 q 653 989 638 972 q 669 1033 669 1006 l 669 1125 l 744 1125 l 744 1031 q 709 941 744 975 q 615 907 674 907 l 564 907 m 417 -14 q 267 20 331 -14 q 170 118 204 54 q 136 269 136 182 l 136 744 q 170 895 136 832 q 267 993 204 958 q 417 1028 331 1028 q 566 993 503 1028 q 663 895 629 958 q 697 744 697 832 l 697 269 q 663 118 697 182 q 566 20 629 54 q 417 -14 503 -14 m 417 68 q 556 121 507 68 q 606 269 606 174 l 606 744 q 556 893 606 840 q 417 946 506 946 q 278 893 328 946 q 228 744 228 840 l 228 269 q 277 121 228 174 q 417 68 326 68 m 504 1132 q 438 1149 464 1132 q 391 1190 411 1167 q 352 1230 371 1213 q 308 1247 333 1247 q 266 1231 282 1247 q 250 1185 250 1214 l 250 1139 l 181 1139 l 181 1185 q 215 1278 181 1244 q 306 1313 249 1313 q 372 1295 346 1313 q 419 1255 399 1278 q 458 1215 439 1232 q 501 1197 476 1197 q 541 1214 526 1197 q 556 1260 556 1231 l 556 1306 l 625 1306 l 625 1260 q 592 1166 625 1200 q 504 1132 560 1132 z "},"Ő":{"ha":833,"x_min":136,"x_max":710,"o":"m 417 -14 q 267 20 331 -14 q 170 118 204 54 q 136 269 136 182 l 136 744 q 170 895 136 832 q 267 993 204 958 q 417 1028 331 1028 q 566 993 503 1028 q 663 895 629 958 q 697 744 697 832 l 697 269 q 663 118 697 182 q 566 20 629 54 q 417 -14 503 -14 m 417 68 q 556 121 507 68 q 606 269 606 174 l 606 744 q 556 893 606 840 q 417 946 506 946 q 278 893 328 946 q 228 744 228 840 l 228 269 q 277 121 228 174 q 417 68 326 68 m 460 1125 l 610 1319 l 710 1319 l 551 1125 l 460 1125 m 228 1125 l 378 1319 l 478 1319 l 319 1125 l 228 1125 z "},"Ō":{"ha":833,"x_min":136,"x_max":697,"o":"m 417 -14 q 267 20 331 -14 q 170 118 204 54 q 136 269 136 182 l 136 744 q 170 895 136 832 q 267 993 204 958 q 417 1028 331 1028 q 566 993 503 1028 q 663 895 629 958 q 697 744 697 832 l 697 269 q 663 118 697 182 q 566 20 629 54 q 417 -14 503 -14 m 417 68 q 556 121 507 68 q 606 269 606 174 l 606 744 q 556 893 606 840 q 417 946 506 946 q 278 893 328 946 q 228 744 228 840 l 228 269 q 277 121 228 174 q 417 68 326 68 m 211 1178 l 211 1256 l 622 1256 l 622 1178 l 211 1178 z "},"Ǫ":{"ha":833,"x_min":136,"x_max":697,"o":"m 518 -275 q 415 -242 453 -275 q 376 -157 376 -210 q 385 -110 376 -135 q 413 -59 394 -85 q 457 -11 432 -33 q 437 -13 449 -12 q 417 -14 425 -14 q 267 20 331 -14 q 170 118 204 54 q 136 269 136 182 l 136 744 q 170 895 136 832 q 267 993 204 958 q 417 1028 331 1028 q 566 993 503 1028 q 663 895 629 958 q 697 744 697 832 l 697 269 q 664 121 697 183 q 569 22 631 58 l 546 3 q 483 -72 504 -35 q 463 -137 463 -108 q 482 -188 463 -169 q 536 -207 501 -207 l 622 -207 l 622 -275 l 518 -275 m 417 68 q 556 121 507 68 q 606 269 606 174 l 606 744 q 556 893 606 840 q 417 946 506 946 q 278 893 328 946 q 228 744 228 840 l 228 269 q 277 121 228 174 q 417 68 326 68 z "},"Ø":{"ha":833,"x_min":61,"x_max":772,"o":"m 61 -56 l 686 1042 l 772 1042 l 147 -56 l 61 -56 m 417 -14 q 267 20 331 -14 q 170 118 204 54 q 136 269 136 182 l 136 744 q 170 895 136 832 q 267 993 204 958 q 417 1028 331 1028 q 566 993 503 1028 q 663 895 629 958 q 697 744 697 832 l 697 269 q 663 118 697 182 q 566 20 629 54 q 417 -14 503 -14 m 417 68 q 556 121 507 68 q 606 269 606 174 l 606 744 q 556 893 606 840 q 417 946 506 946 q 278 893 328 946 q 228 744 228 840 l 228 269 q 277 121 228 174 q 417 68 326 68 z "},"Ǿ":{"ha":833,"x_min":61,"x_max":772,"o":"m 61 -56 l 686 1042 l 772 1042 l 147 -56 l 61 -56 m 417 -14 q 267 20 331 -14 q 170 118 204 54 q 136 269 136 182 l 136 744 q 170 895 136 832 q 267 993 204 958 q 417 1028 331 1028 q 566 993 503 1028 q 663 895 629 958 q 697 744 697 832 l 697 269 q 663 118 697 182 q 566 20 629 54 q 417 -14 503 -14 m 417 68 q 556 121 507 68 q 606 269 606 174 l 606 744 q 556 893 606 840 q 417 946 506 946 q 278 893 328 946 q 228 744 228 840 l 228 269 q 277 121 228 174 q 417 68 326 68 m 354 1125 l 501 1319 l 604 1319 l 450 1125 l 354 1125 z "},"Õ":{"ha":833,"x_min":136,"x_max":697,"o":"m 417 -14 q 267 20 331 -14 q 170 118 204 54 q 136 269 136 182 l 136 744 q 170 895 136 832 q 267 993 204 958 q 417 1028 331 1028 q 566 993 503 1028 q 663 895 629 958 q 697 744 697 832 l 697 269 q 663 118 697 182 q 566 20 629 54 q 417 -14 503 -14 m 417 68 q 556 121 507 68 q 606 269 606 174 l 606 744 q 556 893 606 840 q 417 946 506 946 q 278 893 328 946 q 228 744 228 840 l 228 269 q 277 121 228 174 q 417 68 326 68 m 518 1132 q 451 1149 478 1132 q 405 1190 425 1167 q 366 1230 385 1213 q 322 1247 347 1247 q 280 1231 296 1247 q 264 1185 264 1214 l 264 1139 l 194 1139 l 194 1185 q 228 1278 194 1244 q 319 1313 263 1313 q 386 1295 360 1313 q 433 1255 413 1278 q 472 1215 453 1232 q 515 1197 490 1197 q 555 1214 540 1197 q 569 1260 569 1231 l 569 1306 l 639 1306 l 639 1260 q 606 1166 639 1200 q 518 1132 574 1132 z "},"Œ":{"ha":833,"x_min":56,"x_max":793,"o":"m 272 -14 q 158 19 207 -14 q 83 110 110 51 q 56 244 56 168 l 56 769 q 83 905 56 847 q 158 995 110 963 q 272 1028 207 1028 q 353 1008 321 1028 q 406 959 386 988 q 432 903 426 931 l 439 903 l 439 1014 l 793 1014 l 793 926 l 533 926 l 533 567 l 750 567 l 750 481 l 533 481 l 533 88 l 793 88 l 793 0 l 439 0 l 439 111 l 432 111 q 406 56 426 85 q 353 6 386 26 q 272 -14 321 -14 m 294 72 q 399 119 360 72 q 439 244 439 165 l 439 769 q 399 895 439 849 q 294 942 360 942 q 190 894 229 942 q 151 769 151 847 l 151 244 q 190 119 151 167 q 294 72 229 72 z "},"P":{"ha":833,"x_min":143,"x_max":751,"o":"m 143 0 l 143 1014 l 453 1014 q 610 978 543 1014 q 715 878 678 943 q 751 725 751 814 q 715 573 751 638 q 610 472 678 508 q 453 436 543 436 l 235 436 l 235 0 l 143 0 m 235 519 l 453 519 q 602 576 546 519 q 658 725 658 632 q 603 876 658 821 q 453 931 547 931 l 235 931 l 235 519 z "},"Þ":{"ha":833,"x_min":138,"x_max":747,"o":"m 138 0 l 138 1014 l 229 1014 l 229 793 l 463 793 q 614 760 550 793 q 713 668 678 728 q 747 528 747 608 q 670 335 747 407 q 463 263 593 263 l 229 263 l 229 0 l 138 0 m 229 346 l 463 346 q 603 395 551 346 q 654 528 654 444 q 603 662 654 613 q 463 711 551 711 l 229 711 l 229 346 z "},"Q":{"ha":833,"x_min":132,"x_max":717,"o":"m 608 -250 l 457 -1 l 475 -10 q 451 -12 467 -10 q 418 -14 435 -14 q 266 22 331 -14 q 167 122 201 57 q 132 272 132 186 l 132 742 q 167 893 132 829 q 266 992 201 957 q 418 1028 331 1028 q 569 992 506 1028 q 667 891 632 956 q 701 742 701 826 l 701 272 q 664 115 701 182 q 557 15 626 49 l 717 -250 l 608 -250 m 418 68 q 558 123 507 68 q 610 272 610 178 l 610 742 q 558 892 610 838 q 418 946 507 946 q 276 892 328 946 q 224 742 224 838 l 224 272 q 276 123 224 178 q 418 68 328 68 z "},"R":{"ha":833,"x_min":143,"x_max":744,"o":"m 143 0 l 143 1014 l 439 1014 q 596 978 529 1014 q 699 879 663 943 q 735 729 735 815 q 676 549 735 622 q 517 454 618 475 l 744 0 l 636 0 l 421 447 l 235 447 l 235 0 l 143 0 m 235 529 l 439 529 q 586 585 531 529 q 642 731 642 640 q 586 876 642 822 q 439 931 531 931 l 235 931 l 235 529 z "},"Ŕ":{"ha":833,"x_min":143,"x_max":744,"o":"m 143 0 l 143 1014 l 439 1014 q 596 978 529 1014 q 699 879 663 943 q 735 729 735 815 q 676 549 735 622 q 517 454 618 475 l 744 0 l 636 0 l 421 447 l 235 447 l 235 0 l 143 0 m 235 529 l 439 529 q 586 585 531 529 q 642 731 642 640 q 586 876 642 822 q 439 931 531 931 l 235 931 l 235 529 m 354 1125 l 501 1319 l 604 1319 l 450 1125 l 354 1125 z "},"Ř":{"ha":833,"x_min":143,"x_max":744,"o":"m 143 0 l 143 1014 l 439 1014 q 596 978 529 1014 q 699 879 663 943 q 735 729 735 815 q 676 549 735 622 q 517 454 618 475 l 744 0 l 636 0 l 421 447 l 235 447 l 235 0 l 143 0 m 235 529 l 439 529 q 586 585 531 529 q 642 731 642 640 q 586 876 642 822 q 439 931 531 931 l 235 931 l 235 529 m 369 1125 l 192 1319 l 289 1319 l 418 1185 l 546 1319 l 642 1319 l 465 1125 l 369 1125 z "},"Ŗ":{"ha":833,"x_min":143,"x_max":744,"o":"m 143 0 l 143 1014 l 439 1014 q 596 978 529 1014 q 699 879 663 943 q 735 729 735 815 q 676 549 735 622 q 517 454 618 475 l 744 0 l 636 0 l 421 447 l 235 447 l 235 0 l 143 0 m 235 529 l 439 529 q 586 585 531 529 q 642 731 642 640 q 586 876 642 822 q 439 931 531 931 l 235 931 l 235 529 m 285 -333 l 413 -132 l 525 -132 l 379 -333 l 285 -333 z "},"S":{"ha":833,"x_min":111,"x_max":722,"o":"m 424 -14 q 258 19 328 -14 q 149 115 188 53 q 111 260 111 176 l 203 260 q 263 120 203 172 q 424 68 322 68 q 576 117 521 68 q 631 251 631 165 q 590 379 631 325 q 478 454 550 433 l 353 493 q 195 597 251 524 q 139 769 139 669 q 174 906 139 849 q 273 996 208 964 q 425 1028 338 1028 q 632 956 556 1028 q 710 760 708 883 l 618 760 q 565 896 618 846 q 424 946 513 946 q 282 901 333 946 q 231 776 231 857 q 269 655 231 707 q 378 581 308 603 l 503 542 q 664 433 606 510 q 722 256 722 357 q 685 113 722 174 q 581 19 649 53 q 424 -14 514 -14 z "},"Ś":{"ha":833,"x_min":111,"x_max":722,"o":"m 424 -14 q 258 19 328 -14 q 149 115 188 53 q 111 260 111 176 l 203 260 q 263 120 203 172 q 424 68 322 68 q 576 117 521 68 q 631 251 631 165 q 590 379 631 325 q 478 454 550 433 l 353 493 q 195 597 251 524 q 139 769 139 669 q 174 906 139 849 q 273 996 208 964 q 425 1028 338 1028 q 632 956 556 1028 q 710 760 708 883 l 618 760 q 565 896 618 846 q 424 946 513 946 q 282 901 333 946 q 231 776 231 857 q 269 655 231 707 q 378 581 308 603 l 503 542 q 664 433 606 510 q 722 256 722 357 q 685 113 722 174 q 581 19 649 53 q 424 -14 514 -14 m 354 1125 l 501 1319 l 604 1319 l 450 1125 l 354 1125 z "},"Š":{"ha":833,"x_min":111,"x_max":722,"o":"m 424 -14 q 258 19 328 -14 q 149 115 188 53 q 111 260 111 176 l 203 260 q 263 120 203 172 q 424 68 322 68 q 576 117 521 68 q 631 251 631 165 q 590 379 631 325 q 478 454 550 433 l 353 493 q 195 597 251 524 q 139 769 139 669 q 174 906 139 849 q 273 996 208 964 q 425 1028 338 1028 q 632 956 556 1028 q 710 760 708 883 l 618 760 q 565 896 618 846 q 424 946 513 946 q 282 901 333 946 q 231 776 231 857 q 269 655 231 707 q 378 581 308 603 l 503 542 q 664 433 606 510 q 722 256 722 357 q 685 113 722 174 q 581 19 649 53 q 424 -14 514 -14 m 369 1125 l 192 1319 l 289 1319 l 418 1185 l 546 1319 l 642 1319 l 465 1125 l 369 1125 z "},"Ş":{"ha":833,"x_min":111,"x_max":722,"o":"m 310 -275 l 310 -215 l 415 -215 q 467 -198 447 -215 q 488 -161 488 -181 q 445 -111 488 -131 q 331 -92 403 -92 l 379 36 l 446 36 l 415 -47 q 487 -63 450 -50 q 549 -101 524 -76 q 574 -165 574 -126 q 533 -243 574 -211 q 424 -275 492 -275 l 310 -275 m 424 -14 q 258 19 328 -14 q 149 115 188 53 q 111 260 111 176 l 203 260 q 263 120 203 172 q 424 68 322 68 q 576 117 521 68 q 631 251 631 165 q 590 379 631 325 q 478 454 550 433 l 353 493 q 195 597 251 524 q 139 769 139 669 q 174 906 139 849 q 273 996 208 964 q 425 1028 338 1028 q 632 956 556 1028 q 710 760 708 883 l 618 760 q 565 896 618 846 q 424 946 513 946 q 282 901 333 946 q 231 776 231 857 q 269 655 231 707 q 378 581 308 603 l 503 542 q 664 433 606 510 q 722 256 722 357 q 685 113 722 174 q 581 19 649 53 q 424 -14 514 -14 z "},"Ŝ":{"ha":833,"x_min":111,"x_max":722,"o":"m 424 -14 q 258 19 328 -14 q 149 115 188 53 q 111 260 111 176 l 203 260 q 263 120 203 172 q 424 68 322 68 q 576 117 521 68 q 631 251 631 165 q 590 379 631 325 q 478 454 550 433 l 353 493 q 195 597 251 524 q 139 769 139 669 q 174 906 139 849 q 273 996 208 964 q 425 1028 338 1028 q 632 956 556 1028 q 710 760 708 883 l 618 760 q 565 896 618 846 q 424 946 513 946 q 282 901 333 946 q 231 776 231 857 q 269 655 231 707 q 378 581 308 603 l 503 542 q 664 433 606 510 q 722 256 722 357 q 685 113 722 174 q 581 19 649 53 q 424 -14 514 -14 m 192 1125 l 368 1319 l 464 1319 l 642 1125 l 546 1125 l 417 1260 l 290 1125 l 192 1125 z "},"Ș":{"ha":833,"x_min":111,"x_max":722,"o":"m 424 -14 q 258 19 328 -14 q 149 115 188 53 q 111 260 111 176 l 203 260 q 263 120 203 172 q 424 68 322 68 q 576 117 521 68 q 631 251 631 165 q 590 379 631 325 q 478 454 550 433 l 353 493 q 195 597 251 524 q 139 769 139 669 q 174 906 139 849 q 273 996 208 964 q 425 1028 338 1028 q 632 956 556 1028 q 710 760 708 883 l 618 760 q 565 896 618 846 q 424 946 513 946 q 282 901 333 946 q 231 776 231 857 q 269 655 231 707 q 378 581 308 603 l 503 542 q 664 433 606 510 q 722 256 722 357 q 685 113 722 174 q 581 19 649 53 q 424 -14 514 -14 m 285 -333 l 413 -132 l 525 -132 l 379 -333 l 285 -333 z "},"ẞ":{"ha":833,"x_min":143,"x_max":733,"o":"m 143 0 l 143 743 q 177 886 143 825 q 274 981 211 947 q 422 1014 338 1014 l 725 1014 l 725 926 l 453 554 l 453 574 q 601 540 538 575 q 699 443 664 506 q 733 294 733 381 q 697 140 733 206 q 594 37 660 74 q 439 0 528 0 l 350 0 l 350 83 l 433 83 q 583 140 528 83 q 639 293 639 197 q 583 443 639 388 q 433 499 528 499 l 375 499 l 375 578 l 629 931 l 422 931 q 285 881 336 931 q 235 743 235 831 l 235 0 l 143 0 z "},"Ə":{"ha":833,"x_min":138,"x_max":696,"o":"m 415 -14 q 267 22 329 -14 q 172 121 206 57 q 138 269 138 185 l 138 538 l 604 538 l 604 744 q 556 892 604 839 q 415 946 507 946 q 277 890 325 946 q 229 736 229 835 l 138 736 q 170 890 138 825 q 265 992 203 956 q 415 1028 328 1028 q 567 994 504 1028 q 663 896 629 960 q 696 744 696 832 l 696 269 q 662 121 696 185 q 565 22 628 57 q 415 -14 503 -14 m 415 64 q 557 118 510 64 q 604 269 604 172 l 604 463 l 217 463 l 229 475 l 229 269 q 277 119 229 174 q 415 64 325 64 z "},"T":{"ha":833,"x_min":81,"x_max":753,"o":"m 372 0 l 372 931 l 81 931 l 81 1014 l 753 1014 l 753 931 l 464 931 l 464 0 l 372 0 z "},"Ŧ":{"ha":833,"x_min":81,"x_max":753,"o":"m 161 422 l 161 501 l 672 501 l 672 422 l 161 422 m 372 0 l 372 931 l 81 931 l 81 1014 l 753 1014 l 753 931 l 464 931 l 464 0 l 372 0 z "},"Ť":{"ha":833,"x_min":81,"x_max":753,"o":"m 372 0 l 372 931 l 81 931 l 81 1014 l 753 1014 l 753 931 l 464 931 l 464 0 l 372 0 m 369 1125 l 192 1319 l 289 1319 l 418 1185 l 546 1319 l 642 1319 l 465 1125 l 369 1125 z "},"Ţ":{"ha":833,"x_min":81,"x_max":753,"o":"m 340 -275 l 340 -215 l 446 -215 q 498 -198 478 -215 q 518 -161 518 -181 q 476 -111 518 -131 q 361 -92 433 -92 l 410 36 l 464 0 l 446 -47 q 517 -63 481 -50 q 579 -101 554 -76 q 604 -165 604 -126 q 563 -243 604 -211 q 454 -275 522 -275 l 340 -275 m 372 0 l 372 931 l 81 931 l 81 1014 l 753 1014 l 753 931 l 464 931 l 464 0 l 372 0 z "},"Ț":{"ha":833,"x_min":81,"x_max":753,"o":"m 372 0 l 372 931 l 81 931 l 81 1014 l 753 1014 l 753 931 l 464 931 l 464 0 l 372 0 m 236 -333 l 364 -132 l 476 -132 l 331 -333 l 236 -333 z "},"U":{"ha":833,"x_min":140,"x_max":693,"o":"m 418 -14 q 214 63 288 -14 q 140 269 140 140 l 140 1014 l 232 1014 l 232 269 q 280 122 232 175 q 418 68 328 68 q 554 122 507 68 q 601 269 601 175 l 601 1014 l 693 1014 l 693 269 q 620 63 693 139 q 418 -14 547 -14 z "},"Ú":{"ha":833,"x_min":140,"x_max":693,"o":"m 418 -14 q 214 63 288 -14 q 140 269 140 140 l 140 1014 l 232 1014 l 232 269 q 280 122 232 175 q 418 68 328 68 q 554 122 507 68 q 601 269 601 175 l 601 1014 l 693 1014 l 693 269 q 620 63 693 139 q 418 -14 547 -14 m 354 1125 l 501 1319 l 604 1319 l 450 1125 l 354 1125 z "},"Ŭ":{"ha":833,"x_min":140,"x_max":693,"o":"m 418 -14 q 214 63 288 -14 q 140 269 140 140 l 140 1014 l 232 1014 l 232 269 q 280 122 232 175 q 418 68 328 68 q 554 122 507 68 q 601 269 601 175 l 601 1014 l 693 1014 l 693 269 q 620 63 693 139 q 418 -14 547 -14 m 417 1121 q 264 1175 321 1121 q 207 1319 207 1229 l 283 1319 q 319 1222 283 1258 q 415 1186 354 1186 q 514 1222 478 1186 q 550 1319 550 1258 l 626 1319 q 569 1175 626 1229 q 417 1121 513 1121 z "},"Û":{"ha":833,"x_min":140,"x_max":693,"o":"m 418 -14 q 214 63 288 -14 q 140 269 140 140 l 140 1014 l 232 1014 l 232 269 q 280 122 232 175 q 418 68 328 68 q 554 122 507 68 q 601 269 601 175 l 601 1014 l 693 1014 l 693 269 q 620 63 693 139 q 418 -14 547 -14 m 192 1125 l 368 1319 l 464 1319 l 642 1125 l 546 1125 l 417 1260 l 290 1125 l 192 1125 z "},"Ü":{"ha":833,"x_min":140,"x_max":693,"o":"m 418 -14 q 214 63 288 -14 q 140 269 140 140 l 140 1014 l 232 1014 l 232 269 q 280 122 232 175 q 418 68 328 68 q 554 122 507 68 q 601 269 601 175 l 601 1014 l 693 1014 l 693 269 q 620 63 693 139 q 418 -14 547 -14 m 569 1142 q 512 1163 533 1142 q 490 1222 490 1185 q 512 1282 490 1260 q 569 1304 533 1304 q 626 1282 606 1304 q 647 1222 647 1260 q 626 1163 647 1185 q 569 1142 606 1142 m 267 1142 q 210 1163 232 1142 q 189 1222 189 1185 q 210 1282 189 1260 q 267 1304 232 1304 q 324 1282 303 1304 q 346 1222 346 1260 q 324 1163 346 1185 q 267 1142 303 1142 z "},"Ụ":{"ha":833,"x_min":140,"x_max":693,"o":"m 418 -14 q 214 63 288 -14 q 140 269 140 140 l 140 1014 l 232 1014 l 232 269 q 280 122 232 175 q 418 68 328 68 q 554 122 507 68 q 601 269 601 175 l 601 1014 l 693 1014 l 693 269 q 620 63 693 139 q 418 -14 547 -14 m 417 -289 q 353 -267 376 -289 q 329 -208 329 -246 q 353 -149 329 -171 q 417 -126 376 -126 q 481 -149 457 -126 q 504 -208 504 -171 q 481 -267 504 -246 q 417 -289 457 -289 z "},"Ù":{"ha":833,"x_min":140,"x_max":693,"o":"m 418 -14 q 214 63 288 -14 q 140 269 140 140 l 140 1014 l 232 1014 l 232 269 q 280 122 232 175 q 418 68 328 68 q 554 122 507 68 q 601 269 601 175 l 601 1014 l 693 1014 l 693 269 q 620 63 693 139 q 418 -14 547 -14 m 385 1125 l 226 1319 l 333 1319 l 483 1125 l 385 1125 z "},"Ủ":{"ha":833,"x_min":140,"x_max":693,"o":"m 418 -14 q 214 63 288 -14 q 140 269 140 140 l 140 1014 l 232 1014 l 232 269 q 280 122 232 175 q 418 68 328 68 q 554 122 507 68 q 601 269 601 175 l 601 1014 l 693 1014 l 693 269 q 620 63 693 139 q 418 -14 547 -14 m 372 1111 l 443 1210 q 465 1257 465 1240 q 417 1292 465 1292 l 301 1292 l 301 1357 l 419 1357 q 508 1332 475 1357 q 542 1267 542 1307 q 517 1193 542 1229 l 460 1111 l 372 1111 z "},"Ư":{"ha":833,"x_min":140,"x_max":840,"o":"m 610 949 l 610 1014 l 708 1014 q 750 1031 735 1014 q 765 1075 765 1047 l 765 1167 l 840 1167 l 840 1072 q 805 983 840 1017 q 711 949 769 949 l 610 949 m 418 -14 q 214 63 288 -14 q 140 269 140 140 l 140 1014 l 232 1014 l 232 269 q 280 122 232 175 q 418 68 328 68 q 554 122 507 68 q 601 269 601 175 l 601 1014 l 693 1014 l 693 269 q 620 63 693 139 q 418 -14 547 -14 z "},"Ứ":{"ha":833,"x_min":140,"x_max":840,"o":"m 610 949 l 610 1014 l 708 1014 q 750 1031 735 1014 q 765 1075 765 1047 l 765 1167 l 840 1167 l 840 1072 q 805 983 840 1017 q 711 949 769 949 l 610 949 m 418 -14 q 214 63 288 -14 q 140 269 140 140 l 140 1014 l 232 1014 l 232 269 q 280 122 232 175 q 418 68 328 68 q 554 122 507 68 q 601 269 601 175 l 601 1014 l 693 1014 l 693 269 q 620 63 693 139 q 418 -14 547 -14 m 354 1125 l 501 1319 l 604 1319 l 450 1125 l 354 1125 z "},"Ự":{"ha":833,"x_min":140,"x_max":840,"o":"m 431 -289 q 367 -267 390 -289 q 343 -208 343 -246 q 367 -149 343 -171 q 431 -126 390 -126 q 494 -149 471 -126 q 518 -208 518 -171 q 494 -267 518 -246 q 431 -289 471 -289 m 610 949 l 610 1014 l 708 1014 q 750 1031 735 1014 q 765 1075 765 1047 l 765 1167 l 840 1167 l 840 1072 q 805 983 840 1017 q 711 949 769 949 l 610 949 m 418 -14 q 214 63 288 -14 q 140 269 140 140 l 140 1014 l 232 1014 l 232 269 q 280 122 232 175 q 418 68 328 68 q 554 122 507 68 q 601 269 601 175 l 601 1014 l 693 1014 l 693 269 q 620 63 693 139 q 418 -14 547 -14 z "},"Ừ":{"ha":833,"x_min":140,"x_max":840,"o":"m 610 949 l 610 1014 l 708 1014 q 750 1031 735 1014 q 765 1075 765 1047 l 765 1167 l 840 1167 l 840 1072 q 805 983 840 1017 q 711 949 769 949 l 610 949 m 418 -14 q 214 63 288 -14 q 140 269 140 140 l 140 1014 l 232 1014 l 232 269 q 280 122 232 175 q 418 68 328 68 q 554 122 507 68 q 601 269 601 175 l 601 1014 l 693 1014 l 693 269 q 620 63 693 139 q 418 -14 547 -14 m 385 1125 l 226 1319 l 333 1319 l 483 1125 l 385 1125 z "},"Ử":{"ha":833,"x_min":140,"x_max":840,"o":"m 610 949 l 610 1014 l 708 1014 q 750 1031 735 1014 q 765 1075 765 1047 l 765 1167 l 840 1167 l 840 1072 q 805 983 840 1017 q 711 949 769 949 l 610 949 m 418 -14 q 214 63 288 -14 q 140 269 140 140 l 140 1014 l 232 1014 l 232 269 q 280 122 232 175 q 418 68 328 68 q 554 122 507 68 q 601 269 601 175 l 601 1014 l 693 1014 l 693 269 q 620 63 693 139 q 418 -14 547 -14 m 372 1111 l 443 1210 q 465 1257 465 1240 q 417 1292 465 1292 l 301 1292 l 301 1357 l 419 1357 q 508 1332 475 1357 q 542 1267 542 1307 q 517 1193 542 1229 l 460 1111 l 372 1111 z "},"Ữ":{"ha":833,"x_min":140,"x_max":840,"o":"m 610 949 l 610 1014 l 708 1014 q 750 1031 735 1014 q 765 1075 765 1047 l 765 1167 l 840 1167 l 840 1072 q 805 983 840 1017 q 711 949 769 949 l 610 949 m 418 -14 q 214 63 288 -14 q 140 269 140 140 l 140 1014 l 232 1014 l 232 269 q 280 122 232 175 q 418 68 328 68 q 554 122 507 68 q 601 269 601 175 l 601 1014 l 693 1014 l 693 269 q 620 63 693 139 q 418 -14 547 -14 m 518 1132 q 451 1149 478 1132 q 405 1190 425 1167 q 366 1230 385 1213 q 322 1247 347 1247 q 280 1231 296 1247 q 264 1185 264 1214 l 264 1139 l 194 1139 l 194 1185 q 228 1278 194 1244 q 319 1313 263 1313 q 386 1295 360 1313 q 433 1255 413 1278 q 472 1215 453 1232 q 515 1197 490 1197 q 555 1214 540 1197 q 569 1260 569 1231 l 569 1306 l 639 1306 l 639 1260 q 606 1166 639 1200 q 518 1132 574 1132 z "},"Ű":{"ha":833,"x_min":140,"x_max":710,"o":"m 418 -14 q 214 63 288 -14 q 140 269 140 140 l 140 1014 l 232 1014 l 232 269 q 280 122 232 175 q 418 68 328 68 q 554 122 507 68 q 601 269 601 175 l 601 1014 l 693 1014 l 693 269 q 620 63 693 139 q 418 -14 547 -14 m 460 1125 l 610 1319 l 710 1319 l 551 1125 l 460 1125 m 228 1125 l 378 1319 l 478 1319 l 319 1125 l 228 1125 z "},"Ū":{"ha":833,"x_min":140,"x_max":693,"o":"m 418 -14 q 214 63 288 -14 q 140 269 140 140 l 140 1014 l 232 1014 l 232 269 q 280 122 232 175 q 418 68 328 68 q 554 122 507 68 q 601 269 601 175 l 601 1014 l 693 1014 l 693 269 q 620 63 693 139 q 418 -14 547 -14 m 211 1178 l 211 1256 l 622 1256 l 622 1178 l 211 1178 z "},"Ų":{"ha":833,"x_min":140,"x_max":693,"o":"m 518 -275 q 415 -242 453 -275 q 376 -157 376 -210 q 385 -110 376 -135 q 413 -59 394 -85 q 457 -11 432 -33 q 437 -13 449 -12 q 417 -14 425 -14 q 269 20 331 -14 q 174 118 207 54 q 140 269 140 182 l 140 1014 l 232 1014 l 232 269 q 279 121 232 174 q 417 68 326 68 q 554 121 507 68 q 601 269 601 174 l 601 1014 l 693 1014 l 693 269 q 662 121 693 183 q 569 22 631 58 l 546 3 q 483 -72 504 -35 q 463 -137 463 -108 q 482 -188 463 -169 q 536 -207 501 -207 l 622 -207 l 622 -275 l 518 -275 z "},"Ů":{"ha":833,"x_min":140,"x_max":693,"o":"m 418 -14 q 214 63 288 -14 q 140 269 140 140 l 140 1014 l 232 1014 l 232 269 q 280 122 232 175 q 418 68 328 68 q 554 122 507 68 q 601 269 601 175 l 601 1014 l 693 1014 l 693 269 q 620 63 693 139 q 418 -14 547 -14 m 418 1075 q 306 1116 349 1075 q 263 1222 263 1157 q 306 1328 263 1288 q 418 1369 349 1369 q 528 1328 486 1369 q 571 1222 571 1288 q 528 1116 571 1157 q 418 1075 486 1075 m 417 1135 q 480 1158 456 1135 q 504 1222 504 1182 q 480 1287 504 1263 q 417 1311 456 1311 q 353 1287 378 1311 q 329 1222 329 1263 q 353 1158 329 1182 q 417 1135 378 1135 z "},"Ũ":{"ha":833,"x_min":140,"x_max":693,"o":"m 418 -14 q 214 63 288 -14 q 140 269 140 140 l 140 1014 l 232 1014 l 232 269 q 280 122 232 175 q 418 68 328 68 q 554 122 507 68 q 601 269 601 175 l 601 1014 l 693 1014 l 693 269 q 620 63 693 139 q 418 -14 547 -14 m 518 1132 q 451 1149 478 1132 q 405 1190 425 1167 q 366 1230 385 1213 q 322 1247 347 1247 q 280 1231 296 1247 q 264 1185 264 1214 l 264 1139 l 194 1139 l 194 1185 q 228 1278 194 1244 q 319 1313 263 1313 q 386 1295 360 1313 q 433 1255 413 1278 q 472 1215 453 1232 q 515 1197 490 1197 q 555 1214 540 1197 q 569 1260 569 1231 l 569 1306 l 639 1306 l 639 1260 q 606 1166 639 1200 q 518 1132 574 1132 z "},"V":{"ha":833,"x_min":85,"x_max":749,"o":"m 356 0 l 85 1014 l 181 1014 l 372 281 q 401 158 390 215 q 418 72 413 101 q 435 158 424 101 q 465 281 447 215 l 657 1014 l 749 1014 l 478 0 l 356 0 z "},"W":{"ha":833,"x_min":47,"x_max":786,"o":"m 169 0 l 47 1014 l 133 1014 l 221 264 q 228 200 224 236 q 235 128 232 164 q 240 65 239 92 q 249 128 244 92 q 258 200 253 164 q 267 264 263 236 l 368 1014 l 474 1014 l 569 264 q 578 200 574 236 q 587 128 582 164 q 594 65 592 92 q 601 128 597 92 q 610 200 606 164 q 618 264 615 236 l 701 1014 l 786 1014 l 663 0 l 540 0 l 444 747 q 436 819 440 782 q 428 890 432 856 q 421 946 424 924 q 413 890 417 924 q 403 819 408 856 q 394 747 399 782 l 290 0 l 169 0 z "},"Ẃ":{"ha":833,"x_min":47,"x_max":786,"o":"m 169 0 l 47 1014 l 133 1014 l 221 264 q 228 200 224 236 q 235 128 232 164 q 240 65 239 92 q 249 128 244 92 q 258 200 253 164 q 267 264 263 236 l 368 1014 l 474 1014 l 569 264 q 578 200 574 236 q 587 128 582 164 q 594 65 592 92 q 601 128 597 92 q 610 200 606 164 q 618 264 615 236 l 701 1014 l 786 1014 l 663 0 l 540 0 l 444 747 q 436 819 440 782 q 428 890 432 856 q 421 946 424 924 q 413 890 417 924 q 403 819 408 856 q 394 747 399 782 l 290 0 l 169 0 m 354 1125 l 501 1319 l 604 1319 l 450 1125 l 354 1125 z "},"Ŵ":{"ha":833,"x_min":47,"x_max":786,"o":"m 169 0 l 47 1014 l 133 1014 l 221 264 q 228 200 224 236 q 235 128 232 164 q 240 65 239 92 q 249 128 244 92 q 258 200 253 164 q 267 264 263 236 l 368 1014 l 474 1014 l 569 264 q 578 200 574 236 q 587 128 582 164 q 594 65 592 92 q 601 128 597 92 q 610 200 606 164 q 618 264 615 236 l 701 1014 l 786 1014 l 663 0 l 540 0 l 444 747 q 436 819 440 782 q 428 890 432 856 q 421 946 424 924 q 413 890 417 924 q 403 819 408 856 q 394 747 399 782 l 290 0 l 169 0 m 192 1125 l 368 1319 l 464 1319 l 642 1125 l 546 1125 l 417 1260 l 290 1125 l 192 1125 z "},"Ẅ":{"ha":833,"x_min":47,"x_max":786,"o":"m 169 0 l 47 1014 l 133 1014 l 221 264 q 228 200 224 236 q 235 128 232 164 q 240 65 239 92 q 249 128 244 92 q 258 200 253 164 q 267 264 263 236 l 368 1014 l 474 1014 l 569 264 q 578 200 574 236 q 587 128 582 164 q 594 65 592 92 q 601 128 597 92 q 610 200 606 164 q 618 264 615 236 l 701 1014 l 786 1014 l 663 0 l 540 0 l 444 747 q 436 819 440 782 q 428 890 432 856 q 421 946 424 924 q 413 890 417 924 q 403 819 408 856 q 394 747 399 782 l 290 0 l 169 0 m 569 1142 q 512 1163 533 1142 q 490 1222 490 1185 q 512 1282 490 1260 q 569 1304 533 1304 q 626 1282 606 1304 q 647 1222 647 1260 q 626 1163 647 1185 q 569 1142 606 1142 m 267 1142 q 210 1163 232 1142 q 189 1222 189 1185 q 210 1282 189 1260 q 267 1304 232 1304 q 324 1282 303 1304 q 346 1222 346 1260 q 324 1163 346 1185 q 267 1142 303 1142 z "},"Ẁ":{"ha":833,"x_min":47,"x_max":786,"o":"m 169 0 l 47 1014 l 133 1014 l 221 264 q 228 200 224 236 q 235 128 232 164 q 240 65 239 92 q 249 128 244 92 q 258 200 253 164 q 267 264 263 236 l 368 1014 l 474 1014 l 569 264 q 578 200 574 236 q 587 128 582 164 q 594 65 592 92 q 601 128 597 92 q 610 200 606 164 q 618 264 615 236 l 701 1014 l 786 1014 l 663 0 l 540 0 l 444 747 q 436 819 440 782 q 428 890 432 856 q 421 946 424 924 q 413 890 417 924 q 403 819 408 856 q 394 747 399 782 l 290 0 l 169 0 m 385 1125 l 226 1319 l 333 1319 l 483 1125 l 385 1125 z "},"X":{"ha":833,"x_min":67,"x_max":767,"o":"m 67 0 l 364 522 l 85 1014 l 189 1014 l 354 708 q 385 651 367 685 q 418 594 404 617 q 449 651 429 617 q 481 708 468 685 l 649 1014 l 749 1014 l 469 528 l 767 0 l 663 0 l 481 339 q 449 396 468 361 q 417 454 429 431 q 385 397 404 431 q 354 339 367 363 l 168 0 l 67 0 z "},"Y":{"ha":833,"x_min":61,"x_max":772,"o":"m 371 0 l 371 385 l 61 1014 l 156 1014 l 374 572 q 402 515 390 540 q 418 476 414 489 q 435 514 424 488 q 463 572 447 540 l 678 1014 l 772 1014 l 463 385 l 463 0 l 371 0 z "},"Ý":{"ha":833,"x_min":61,"x_max":772,"o":"m 371 0 l 371 385 l 61 1014 l 156 1014 l 374 572 q 402 515 390 540 q 418 476 414 489 q 435 514 424 488 q 463 572 447 540 l 678 1014 l 772 1014 l 463 385 l 463 0 l 371 0 m 354 1125 l 501 1319 l 604 1319 l 450 1125 l 354 1125 z "},"Ŷ":{"ha":833,"x_min":61,"x_max":772,"o":"m 371 0 l 371 385 l 61 1014 l 156 1014 l 374 572 q 402 515 390 540 q 418 476 414 489 q 435 514 424 488 q 463 572 447 540 l 678 1014 l 772 1014 l 463 385 l 463 0 l 371 0 m 192 1125 l 368 1319 l 464 1319 l 642 1125 l 546 1125 l 417 1260 l 290 1125 l 192 1125 z "},"Ÿ":{"ha":833,"x_min":61,"x_max":772,"o":"m 371 0 l 371 385 l 61 1014 l 156 1014 l 374 572 q 402 515 390 540 q 418 476 414 489 q 435 514 424 488 q 463 572 447 540 l 678 1014 l 772 1014 l 463 385 l 463 0 l 371 0 m 569 1142 q 512 1163 533 1142 q 490 1222 490 1185 q 512 1282 490 1260 q 569 1304 533 1304 q 626 1282 606 1304 q 647 1222 647 1260 q 626 1163 647 1185 q 569 1142 606 1142 m 267 1142 q 210 1163 232 1142 q 189 1222 189 1185 q 210 1282 189 1260 q 267 1304 232 1304 q 324 1282 303 1304 q 346 1222 346 1260 q 324 1163 346 1185 q 267 1142 303 1142 z "},"Ỵ":{"ha":833,"x_min":61,"x_max":772,"o":"m 371 0 l 371 385 l 61 1014 l 156 1014 l 374 572 q 402 515 390 540 q 418 476 414 489 q 435 514 424 488 q 463 572 447 540 l 678 1014 l 772 1014 l 463 385 l 463 0 l 371 0 m 431 -289 q 367 -267 390 -289 q 343 -208 343 -246 q 367 -149 343 -171 q 431 -126 390 -126 q 494 -149 471 -126 q 518 -208 518 -171 q 494 -267 518 -246 q 431 -289 471 -289 z "},"Ỳ":{"ha":833,"x_min":61,"x_max":772,"o":"m 371 0 l 371 385 l 61 1014 l 156 1014 l 374 572 q 402 515 390 540 q 418 476 414 489 q 435 514 424 488 q 463 572 447 540 l 678 1014 l 772 1014 l 463 385 l 463 0 l 371 0 m 385 1125 l 226 1319 l 333 1319 l 483 1125 l 385 1125 z "},"Ỷ":{"ha":833,"x_min":61,"x_max":772,"o":"m 371 0 l 371 385 l 61 1014 l 156 1014 l 374 572 q 402 515 390 540 q 418 476 414 489 q 435 514 424 488 q 463 572 447 540 l 678 1014 l 772 1014 l 463 385 l 463 0 l 371 0 m 372 1111 l 443 1210 q 465 1257 465 1240 q 417 1292 465 1292 l 301 1292 l 301 1357 l 419 1357 q 508 1332 475 1357 q 542 1267 542 1307 q 517 1193 542 1229 l 460 1111 l 372 1111 z "},"Ȳ":{"ha":833,"x_min":61,"x_max":772,"o":"m 371 0 l 371 385 l 61 1014 l 156 1014 l 374 572 q 402 515 390 540 q 418 476 414 489 q 435 514 424 488 q 463 572 447 540 l 678 1014 l 772 1014 l 463 385 l 463 0 l 371 0 m 211 1178 l 211 1256 l 622 1256 l 622 1178 l 211 1178 z "},"Ỹ":{"ha":833,"x_min":61,"x_max":772,"o":"m 371 0 l 371 385 l 61 1014 l 156 1014 l 374 572 q 402 515 390 540 q 418 476 414 489 q 435 514 424 488 q 463 572 447 540 l 678 1014 l 772 1014 l 463 385 l 463 0 l 371 0 m 518 1132 q 451 1149 478 1132 q 405 1190 425 1167 q 366 1230 385 1213 q 322 1247 347 1247 q 280 1231 296 1247 q 264 1185 264 1214 l 264 1139 l 194 1139 l 194 1185 q 228 1278 194 1244 q 319 1313 263 1313 q 386 1295 360 1313 q 433 1255 413 1278 q 472 1215 453 1232 q 515 1197 490 1197 q 555 1214 540 1197 q 569 1260 569 1231 l 569 1306 l 639 1306 l 639 1260 q 606 1166 639 1200 q 518 1132 574 1132 z "},"Z":{"ha":833,"x_min":124,"x_max":710,"o":"m 124 0 l 124 92 l 603 931 l 129 931 l 129 1014 l 693 1014 l 693 917 l 217 83 l 710 83 l 710 0 l 124 0 z "},"Ź":{"ha":833,"x_min":124,"x_max":710,"o":"m 124 0 l 124 92 l 603 931 l 129 931 l 129 1014 l 693 1014 l 693 917 l 217 83 l 710 83 l 710 0 l 124 0 m 354 1125 l 501 1319 l 604 1319 l 450 1125 l 354 1125 z "},"Ž":{"ha":833,"x_min":124,"x_max":710,"o":"m 124 0 l 124 92 l 603 931 l 129 931 l 129 1014 l 693 1014 l 693 917 l 217 83 l 710 83 l 710 0 l 124 0 m 369 1125 l 192 1319 l 289 1319 l 418 1185 l 546 1319 l 642 1319 l 465 1125 l 369 1125 z "},"Ż":{"ha":833,"x_min":124,"x_max":710,"o":"m 124 0 l 124 92 l 603 931 l 129 931 l 129 1014 l 693 1014 l 693 917 l 217 83 l 710 83 l 710 0 l 124 0 m 417 1140 q 353 1163 376 1140 q 329 1222 329 1185 q 353 1282 329 1260 q 417 1304 376 1304 q 481 1282 457 1304 q 504 1222 504 1260 q 481 1163 504 1185 q 417 1140 457 1140 z "},"a":{"ha":833,"x_min":104,"x_max":693,"o":"m 364 -14 q 174 49 244 -14 q 104 214 104 111 q 172 376 104 317 q 350 436 239 436 l 601 436 l 601 521 q 555 650 601 604 q 422 696 508 696 q 294 660 344 696 q 235 563 243 624 l 143 563 q 233 719 156 660 q 422 778 310 778 q 619 708 546 778 q 693 522 693 639 l 693 0 l 603 0 l 603 151 l 588 151 l 608 176 q 542 38 608 90 q 364 -14 475 -14 m 388 63 q 542 111 483 63 q 601 236 601 160 l 601 363 l 350 363 q 238 324 281 363 q 196 221 196 285 q 248 106 196 149 q 388 63 300 63 z "},"á":{"ha":833,"x_min":104,"x_max":693,"o":"m 364 -14 q 174 49 244 -14 q 104 214 104 111 q 172 376 104 317 q 350 436 239 436 l 601 436 l 601 521 q 555 650 601 604 q 422 696 508 696 q 294 660 344 696 q 235 563 243 624 l 143 563 q 233 719 156 660 q 422 778 310 778 q 619 708 546 778 q 693 522 693 639 l 693 0 l 603 0 l 603 151 l 588 151 l 608 176 q 542 38 608 90 q 364 -14 475 -14 m 388 63 q 542 111 483 63 q 601 236 601 160 l 601 363 l 350 363 q 238 324 281 363 q 196 221 196 285 q 248 106 196 149 q 388 63 300 63 m 369 896 l 517 1090 l 619 1090 l 465 896 l 369 896 z "},"ă":{"ha":833,"x_min":104,"x_max":693,"o":"m 364 -14 q 174 49 244 -14 q 104 214 104 111 q 172 376 104 317 q 350 436 239 436 l 601 436 l 601 521 q 555 650 601 604 q 422 696 508 696 q 294 660 344 696 q 235 563 243 624 l 143 563 q 233 719 156 660 q 422 778 310 778 q 619 708 546 778 q 693 522 693 639 l 693 0 l 603 0 l 603 151 l 588 151 l 608 176 q 542 38 608 90 q 364 -14 475 -14 m 388 63 q 542 111 483 63 q 601 236 601 160 l 601 363 l 350 363 q 238 324 281 363 q 196 221 196 285 q 248 106 196 149 q 388 63 300 63 m 424 892 q 271 946 328 892 q 214 1090 214 1000 l 290 1090 q 326 993 290 1029 q 422 957 361 957 q 521 993 485 957 q 557 1090 557 1029 l 633 1090 q 576 946 633 1000 q 424 892 519 892 z "},"ắ":{"ha":833,"x_min":104,"x_max":693,"o":"m 364 -14 q 174 49 244 -14 q 104 214 104 111 q 172 376 104 317 q 350 436 239 436 l 601 436 l 601 521 q 555 650 601 604 q 422 696 508 696 q 294 660 344 696 q 235 563 243 624 l 143 563 q 233 719 156 660 q 422 778 310 778 q 619 708 546 778 q 693 522 693 639 l 693 0 l 603 0 l 603 151 l 588 151 l 608 176 q 542 38 608 90 q 364 -14 475 -14 m 388 63 q 542 111 483 63 q 601 236 601 160 l 601 363 l 350 363 q 238 324 281 363 q 196 221 196 285 q 248 106 196 149 q 388 63 300 63 m 417 893 q 258 942 318 893 q 197 1069 197 990 l 274 1069 q 313 990 274 1021 q 417 960 353 960 q 520 990 481 960 q 560 1069 560 1021 l 636 1069 q 576 942 636 990 q 417 893 517 893 m 347 1056 l 503 1236 l 606 1236 l 439 1056 l 347 1056 z "},"ặ":{"ha":833,"x_min":104,"x_max":693,"o":"m 424 892 q 271 946 328 892 q 214 1090 214 1000 l 290 1090 q 326 993 290 1029 q 422 957 361 957 q 521 993 485 957 q 557 1090 557 1029 l 633 1090 q 576 946 633 1000 q 424 892 519 892 m 364 -14 q 174 49 244 -14 q 104 214 104 111 q 172 376 104 317 q 350 436 239 436 l 601 436 l 601 521 q 555 650 601 604 q 422 696 508 696 q 294 660 344 696 q 235 563 243 624 l 143 563 q 233 719 156 660 q 422 778 310 778 q 619 708 546 778 q 693 522 693 639 l 693 0 l 603 0 l 603 151 l 588 151 l 608 176 q 542 38 608 90 q 364 -14 475 -14 m 388 63 q 542 111 483 63 q 601 236 601 160 l 601 363 l 350 363 q 238 324 281 363 q 196 221 196 285 q 248 106 196 149 q 388 63 300 63 m 424 -289 q 360 -267 383 -289 q 336 -208 336 -246 q 360 -149 336 -171 q 424 -126 383 -126 q 488 -149 464 -126 q 511 -208 511 -171 q 488 -267 511 -246 q 424 -289 464 -289 z "},"ằ":{"ha":833,"x_min":104,"x_max":693,"o":"m 364 -14 q 174 49 244 -14 q 104 214 104 111 q 172 376 104 317 q 350 436 239 436 l 601 436 l 601 521 q 555 650 601 604 q 422 696 508 696 q 294 660 344 696 q 235 563 243 624 l 143 563 q 233 719 156 660 q 422 778 310 778 q 619 708 546 778 q 693 522 693 639 l 693 0 l 603 0 l 603 151 l 588 151 l 608 176 q 542 38 608 90 q 364 -14 475 -14 m 388 63 q 542 111 483 63 q 601 236 601 160 l 601 363 l 350 363 q 238 324 281 363 q 196 221 196 285 q 248 106 196 149 q 388 63 300 63 m 417 893 q 258 942 318 893 q 197 1069 197 990 l 274 1069 q 313 990 274 1021 q 417 960 353 960 q 520 990 481 960 q 560 1069 560 1021 l 636 1069 q 576 942 636 990 q 417 893 517 893 m 396 1056 l 229 1236 l 332 1236 l 488 1056 l 396 1056 z "},"ẳ":{"ha":833,"x_min":104,"x_max":693,"o":"m 364 -14 q 174 49 244 -14 q 104 214 104 111 q 172 376 104 317 q 350 436 239 436 l 601 436 l 601 521 q 555 650 601 604 q 422 696 508 696 q 294 660 344 696 q 235 563 243 624 l 143 563 q 233 719 156 660 q 422 778 310 778 q 619 708 546 778 q 693 522 693 639 l 693 0 l 603 0 l 603 151 l 588 151 l 608 176 q 542 38 608 90 q 364 -14 475 -14 m 388 63 q 542 111 483 63 q 601 236 601 160 l 601 363 l 350 363 q 238 324 281 363 q 196 221 196 285 q 248 106 196 149 q 388 63 300 63 m 417 893 q 258 942 318 893 q 197 1069 197 990 l 274 1069 q 313 990 274 1021 q 417 960 353 960 q 520 990 481 960 q 560 1069 560 1021 l 636 1069 q 576 942 636 990 q 417 893 517 893 m 365 1056 l 432 1143 q 453 1190 453 1171 q 441 1216 453 1206 q 407 1226 429 1226 l 315 1226 l 315 1289 l 413 1289 q 497 1265 465 1289 q 528 1201 528 1240 q 519 1162 528 1182 q 496 1122 510 1142 l 447 1056 l 365 1056 z "},"ẵ":{"ha":833,"x_min":104,"x_max":693,"o":"m 364 -14 q 174 49 244 -14 q 104 214 104 111 q 172 376 104 317 q 350 436 239 436 l 601 436 l 601 521 q 555 650 601 604 q 422 696 508 696 q 294 660 344 696 q 235 563 243 624 l 143 563 q 233 719 156 660 q 422 778 310 778 q 619 708 546 778 q 693 522 693 639 l 693 0 l 603 0 l 603 151 l 588 151 l 608 176 q 542 38 608 90 q 364 -14 475 -14 m 388 63 q 542 111 483 63 q 601 236 601 160 l 601 363 l 350 363 q 238 324 281 363 q 196 221 196 285 q 248 106 196 149 q 388 63 300 63 m 417 896 q 262 944 321 896 q 203 1072 203 993 l 276 1072 q 315 993 276 1024 q 417 963 354 963 q 518 993 479 963 q 557 1072 557 1024 l 631 1072 q 572 944 631 993 q 417 896 513 896 m 511 1131 q 446 1144 471 1131 q 403 1177 421 1158 q 369 1210 386 1196 q 326 1224 351 1224 q 289 1211 301 1224 q 276 1174 276 1199 l 276 1139 l 207 1139 l 207 1171 q 238 1256 207 1225 q 326 1286 269 1286 q 392 1272 367 1286 q 435 1240 418 1258 q 469 1207 453 1221 q 511 1193 486 1193 q 557 1243 557 1193 l 557 1278 l 626 1278 l 626 1246 q 596 1161 626 1192 q 511 1131 565 1131 z "},"ǎ":{"ha":833,"x_min":104,"x_max":693,"o":"m 364 -14 q 174 49 244 -14 q 104 214 104 111 q 172 376 104 317 q 350 436 239 436 l 601 436 l 601 521 q 555 650 601 604 q 422 696 508 696 q 294 660 344 696 q 235 563 243 624 l 143 563 q 233 719 156 660 q 422 778 310 778 q 619 708 546 778 q 693 522 693 639 l 693 0 l 603 0 l 603 151 l 588 151 l 608 176 q 542 38 608 90 q 364 -14 475 -14 m 388 63 q 542 111 483 63 q 601 236 601 160 l 601 363 l 350 363 q 238 324 281 363 q 196 221 196 285 q 248 106 196 149 q 388 63 300 63 m 376 896 l 199 1090 l 296 1090 l 425 956 l 553 1090 l 649 1090 l 472 896 l 376 896 z "},"â":{"ha":833,"x_min":104,"x_max":693,"o":"m 364 -14 q 174 49 244 -14 q 104 214 104 111 q 172 376 104 317 q 350 436 239 436 l 601 436 l 601 521 q 555 650 601 604 q 422 696 508 696 q 294 660 344 696 q 235 563 243 624 l 143 563 q 233 719 156 660 q 422 778 310 778 q 619 708 546 778 q 693 522 693 639 l 693 0 l 603 0 l 603 151 l 588 151 l 608 176 q 542 38 608 90 q 364 -14 475 -14 m 388 63 q 542 111 483 63 q 601 236 601 160 l 601 363 l 350 363 q 238 324 281 363 q 196 221 196 285 q 248 106 196 149 q 388 63 300 63 m 199 896 l 375 1090 l 471 1090 l 649 896 l 553 896 l 424 1031 l 297 896 l 199 896 z "},"ấ":{"ha":833,"x_min":104,"x_max":831,"o":"m 364 -14 q 174 49 244 -14 q 104 214 104 111 q 172 376 104 317 q 350 436 239 436 l 601 436 l 601 521 q 555 650 601 604 q 422 696 508 696 q 294 660 344 696 q 235 563 243 624 l 143 563 q 233 719 156 660 q 422 778 310 778 q 619 708 546 778 q 693 522 693 639 l 693 0 l 603 0 l 603 151 l 588 151 l 608 176 q 542 38 608 90 q 364 -14 475 -14 m 388 63 q 542 111 483 63 q 601 236 601 160 l 601 363 l 350 363 q 238 324 281 363 q 196 221 196 285 q 248 106 196 149 q 388 63 300 63 m 565 1056 l 725 1250 l 831 1250 l 660 1056 l 565 1056 m 192 896 l 368 1090 l 465 1090 l 642 896 l 546 896 l 417 1031 l 289 896 l 192 896 z "},"ậ":{"ha":833,"x_min":104,"x_max":693,"o":"m 199 896 l 375 1090 l 471 1090 l 649 896 l 553 896 l 424 1031 l 297 896 l 199 896 m 364 -14 q 174 49 244 -14 q 104 214 104 111 q 172 376 104 317 q 350 436 239 436 l 601 436 l 601 521 q 555 650 601 604 q 422 696 508 696 q 294 660 344 696 q 235 563 243 624 l 143 563 q 233 719 156 660 q 422 778 310 778 q 619 708 546 778 q 693 522 693 639 l 693 0 l 603 0 l 603 151 l 588 151 l 608 176 q 542 38 608 90 q 364 -14 475 -14 m 388 63 q 542 111 483 63 q 601 236 601 160 l 601 363 l 350 363 q 238 324 281 363 q 196 221 196 285 q 248 106 196 149 q 388 63 300 63 m 424 -289 q 360 -267 383 -289 q 336 -208 336 -246 q 360 -149 336 -171 q 424 -126 383 -126 q 488 -149 464 -126 q 511 -208 511 -171 q 488 -267 511 -246 q 424 -289 464 -289 z "},"ầ":{"ha":833,"x_min":104,"x_max":724,"o":"m 364 -14 q 174 49 244 -14 q 104 214 104 111 q 172 376 104 317 q 350 436 239 436 l 601 436 l 601 521 q 555 650 601 604 q 422 696 508 696 q 294 660 344 696 q 235 563 243 624 l 143 563 q 233 719 156 660 q 422 778 310 778 q 619 708 546 778 q 693 522 693 639 l 693 0 l 603 0 l 603 151 l 588 151 l 608 176 q 542 38 608 90 q 364 -14 475 -14 m 388 63 q 542 111 483 63 q 601 236 601 160 l 601 363 l 350 363 q 238 324 281 363 q 196 221 196 285 q 248 106 196 149 q 388 63 300 63 m 629 1056 l 450 1250 l 556 1250 l 724 1056 l 629 1056 m 192 896 l 368 1090 l 465 1090 l 642 896 l 546 896 l 417 1031 l 289 896 l 192 896 z "},"ẩ":{"ha":833,"x_min":104,"x_max":747,"o":"m 364 -14 q 174 49 244 -14 q 104 214 104 111 q 172 376 104 317 q 350 436 239 436 l 601 436 l 601 521 q 555 650 601 604 q 422 696 508 696 q 294 660 344 696 q 235 563 243 624 l 143 563 q 233 719 156 660 q 422 778 310 778 q 619 708 546 778 q 693 522 693 639 l 693 0 l 603 0 l 603 151 l 588 151 l 608 176 q 542 38 608 90 q 364 -14 475 -14 m 388 63 q 542 111 483 63 q 601 236 601 160 l 601 363 l 350 363 q 238 324 281 363 q 196 221 196 285 q 248 106 196 149 q 388 63 300 63 m 586 1056 l 653 1143 q 674 1190 674 1171 q 661 1216 674 1206 q 626 1226 649 1226 l 538 1226 l 538 1289 l 629 1289 q 715 1264 683 1289 q 747 1199 747 1239 q 739 1161 747 1181 q 717 1122 731 1142 l 667 1056 l 586 1056 m 192 896 l 368 1090 l 465 1090 l 642 896 l 546 896 l 417 1031 l 289 896 l 192 896 z "},"ẫ":{"ha":833,"x_min":104,"x_max":693,"o":"m 364 -14 q 174 49 244 -14 q 104 214 104 111 q 172 376 104 317 q 350 436 239 436 l 601 436 l 601 521 q 555 650 601 604 q 422 696 508 696 q 294 660 344 696 q 235 563 243 624 l 143 563 q 233 719 156 660 q 422 778 310 778 q 619 708 546 778 q 693 522 693 639 l 693 0 l 603 0 l 603 151 l 588 151 l 608 176 q 542 38 608 90 q 364 -14 475 -14 m 388 63 q 542 111 483 63 q 601 236 601 160 l 601 363 l 350 363 q 238 324 281 363 q 196 221 196 285 q 248 106 196 149 q 388 63 300 63 m 511 1131 q 446 1144 471 1131 q 403 1177 421 1158 q 369 1210 386 1196 q 326 1224 351 1224 q 289 1211 301 1224 q 276 1174 276 1199 l 276 1139 l 207 1139 l 207 1171 q 238 1256 207 1225 q 326 1286 269 1286 q 392 1272 367 1286 q 435 1240 418 1258 q 469 1207 451 1221 q 511 1193 486 1193 q 557 1243 557 1193 l 557 1278 l 626 1278 l 626 1246 q 596 1161 626 1192 q 511 1131 565 1131 m 192 896 l 368 1090 l 465 1090 l 642 896 l 546 896 l 417 1031 l 289 896 l 192 896 z "},"ä":{"ha":833,"x_min":104,"x_max":693,"o":"m 364 -14 q 174 49 244 -14 q 104 214 104 111 q 172 376 104 317 q 350 436 239 436 l 601 436 l 601 521 q 555 650 601 604 q 422 696 508 696 q 294 660 344 696 q 235 563 243 624 l 143 563 q 233 719 156 660 q 422 778 310 778 q 619 708 546 778 q 693 522 693 639 l 693 0 l 603 0 l 603 151 l 588 151 l 608 176 q 542 38 608 90 q 364 -14 475 -14 m 388 63 q 542 111 483 63 q 601 236 601 160 l 601 363 l 350 363 q 238 324 281 363 q 196 221 196 285 q 248 106 196 149 q 388 63 300 63 m 575 907 q 517 928 539 907 q 496 988 496 950 q 517 1047 496 1025 q 575 1069 539 1069 q 632 1047 611 1069 q 653 988 653 1025 q 632 928 653 950 q 575 907 611 907 m 272 907 q 216 928 238 907 q 194 988 194 950 q 216 1047 194 1025 q 272 1069 238 1069 q 330 1047 308 1069 q 351 988 351 1025 q 330 928 351 950 q 272 907 308 907 z "},"ạ":{"ha":833,"x_min":104,"x_max":693,"o":"m 364 -14 q 174 49 244 -14 q 104 214 104 111 q 172 376 104 317 q 350 436 239 436 l 601 436 l 601 521 q 555 650 601 604 q 422 696 508 696 q 294 660 344 696 q 235 563 243 624 l 143 563 q 233 719 156 660 q 422 778 310 778 q 619 708 546 778 q 693 522 693 639 l 693 0 l 603 0 l 603 151 l 588 151 l 608 176 q 542 38 608 90 q 364 -14 475 -14 m 388 63 q 542 111 483 63 q 601 236 601 160 l 601 363 l 350 363 q 238 324 281 363 q 196 221 196 285 q 248 106 196 149 q 388 63 300 63 m 424 -289 q 360 -267 383 -289 q 336 -208 336 -246 q 360 -149 336 -171 q 424 -126 383 -126 q 488 -149 464 -126 q 511 -208 511 -171 q 488 -267 511 -246 q 424 -289 464 -289 z "},"à":{"ha":833,"x_min":104,"x_max":693,"o":"m 364 -14 q 174 49 244 -14 q 104 214 104 111 q 172 376 104 317 q 350 436 239 436 l 601 436 l 601 521 q 555 650 601 604 q 422 696 508 696 q 294 660 344 696 q 235 563 243 624 l 143 563 q 233 719 156 660 q 422 778 310 778 q 619 708 546 778 q 693 522 693 639 l 693 0 l 603 0 l 603 151 l 588 151 l 608 176 q 542 38 608 90 q 364 -14 475 -14 m 388 63 q 542 111 483 63 q 601 236 601 160 l 601 363 l 350 363 q 238 324 281 363 q 196 221 196 285 q 248 106 196 149 q 388 63 300 63 m 392 896 l 233 1090 l 340 1090 l 490 896 l 392 896 z "},"ả":{"ha":833,"x_min":104,"x_max":693,"o":"m 364 -14 q 174 49 244 -14 q 104 214 104 111 q 172 376 104 317 q 350 436 239 436 l 601 436 l 601 521 q 555 650 601 604 q 422 696 508 696 q 294 660 344 696 q 235 563 243 624 l 143 563 q 233 719 156 660 q 422 778 310 778 q 619 708 546 778 q 693 522 693 639 l 693 0 l 603 0 l 603 151 l 588 151 l 608 176 q 542 38 608 90 q 364 -14 475 -14 m 388 63 q 542 111 483 63 q 601 236 601 160 l 601 363 l 350 363 q 238 324 281 363 q 196 221 196 285 q 248 106 196 149 q 388 63 300 63 m 390 896 l 464 994 q 486 1042 486 1025 q 438 1076 486 1076 l 319 1076 l 319 1142 l 451 1142 q 532 1117 501 1142 q 563 1051 563 1093 q 538 978 563 1013 l 478 896 l 390 896 z "},"ā":{"ha":833,"x_min":104,"x_max":693,"o":"m 364 -14 q 174 49 244 -14 q 104 214 104 111 q 172 376 104 317 q 350 436 239 436 l 601 436 l 601 521 q 555 650 601 604 q 422 696 508 696 q 294 660 344 696 q 235 563 243 624 l 143 563 q 233 719 156 660 q 422 778 310 778 q 619 708 546 778 q 693 522 693 639 l 693 0 l 603 0 l 603 151 l 588 151 l 608 176 q 542 38 608 90 q 364 -14 475 -14 m 388 63 q 542 111 483 63 q 601 236 601 160 l 601 363 l 350 363 q 238 324 281 363 q 196 221 196 285 q 248 106 196 149 q 388 63 300 63 m 218 942 l 218 1019 l 629 1019 l 629 942 l 218 942 z "},"ą":{"ha":833,"x_min":104,"x_max":767,"o":"m 663 -275 q 559 -242 597 -275 q 521 -157 521 -210 q 549 -72 521 -115 q 636 14 578 -28 l 693 0 q 629 -73 651 -37 q 607 -137 607 -108 q 626 -188 607 -169 q 681 -207 646 -207 l 767 -207 l 767 -275 l 663 -275 m 364 -14 q 174 49 244 -14 q 104 214 104 111 q 172 376 104 317 q 350 436 239 436 l 601 436 l 601 521 q 555 650 601 604 q 422 696 508 696 q 294 660 344 696 q 235 563 243 624 l 143 563 q 233 719 156 660 q 422 778 310 778 q 619 708 546 778 q 693 522 693 639 l 693 0 l 603 0 l 603 151 l 588 151 l 608 176 q 542 38 608 90 q 364 -14 475 -14 m 388 63 q 542 111 483 63 q 601 236 601 160 l 601 363 l 350 363 q 238 324 281 363 q 196 221 196 285 q 248 106 196 149 q 388 63 300 63 z "},"å":{"ha":833,"x_min":104,"x_max":693,"o":"m 364 -14 q 174 49 244 -14 q 104 214 104 111 q 172 376 104 317 q 350 436 239 436 l 601 436 l 601 521 q 555 650 601 604 q 422 696 508 696 q 294 660 344 696 q 235 563 243 624 l 143 563 q 233 719 156 660 q 422 778 310 778 q 619 708 546 778 q 693 522 693 639 l 693 0 l 603 0 l 603 151 l 588 151 l 608 176 q 542 38 608 90 q 364 -14 475 -14 m 388 63 q 542 111 483 63 q 601 236 601 160 l 601 363 l 350 363 q 238 324 281 363 q 196 221 196 285 q 248 106 196 149 q 388 63 300 63 m 425 850 q 313 891 356 850 q 269 997 269 932 q 313 1103 269 1063 q 425 1143 356 1143 q 535 1103 493 1143 q 578 997 578 1063 q 535 890 578 931 q 425 850 493 850 m 424 908 q 487 933 463 908 q 511 997 511 957 q 487 1062 511 1038 q 424 1086 463 1086 q 360 1062 385 1086 q 336 997 336 1038 q 360 933 336 957 q 424 908 385 908 z "},"ã":{"ha":833,"x_min":104,"x_max":693,"o":"m 364 -14 q 174 49 244 -14 q 104 214 104 111 q 172 376 104 317 q 350 436 239 436 l 601 436 l 601 521 q 555 650 601 604 q 422 696 508 696 q 294 660 344 696 q 235 563 243 624 l 143 563 q 233 719 156 660 q 422 778 310 778 q 619 708 546 778 q 693 522 693 639 l 693 0 l 603 0 l 603 151 l 588 151 l 608 176 q 542 38 608 90 q 364 -14 475 -14 m 388 63 q 542 111 483 63 q 601 236 601 160 l 601 363 l 350 363 q 238 324 281 363 q 196 221 196 285 q 248 106 196 149 q 388 63 300 63 m 525 903 q 458 920 485 903 q 412 960 432 938 q 373 1001 392 983 q 329 1018 354 1018 q 287 1001 303 1018 q 271 956 271 985 l 271 910 l 201 910 l 201 956 q 235 1049 201 1015 q 326 1083 269 1083 q 393 1066 367 1083 q 440 1026 419 1049 q 478 985 460 1003 q 522 968 497 968 q 562 985 547 968 q 576 1031 576 1001 l 576 1076 l 646 1076 l 646 1031 q 613 937 646 971 q 525 903 581 903 z "},"æ":{"ha":833,"x_min":53,"x_max":782,"o":"m 239 -14 q 103 42 153 -14 q 53 188 53 97 l 53 260 q 105 392 53 343 q 246 442 157 442 l 378 442 l 378 564 q 347 663 378 626 q 261 699 315 699 q 182 668 213 699 q 149 588 151 638 l 60 588 q 115 726 64 674 q 250 778 165 778 q 340 759 304 778 q 395 714 375 740 q 419 661 415 688 l 422 661 q 448 714 429 688 q 501 759 467 740 q 586 778 536 778 q 728 719 676 778 q 781 564 781 661 l 781 365 l 464 365 l 464 200 q 496 104 464 142 q 581 67 528 67 q 660 97 631 67 q 693 176 689 126 l 782 176 q 726 38 778 90 q 589 -14 675 -14 q 501 5 536 -14 q 447 50 465 24 q 422 101 428 76 l 418 101 q 393 50 414 76 q 335 5 372 24 q 239 -14 297 -14 m 258 64 q 344 103 310 64 q 378 200 378 142 l 378 365 l 247 365 q 173 336 201 365 q 144 260 144 307 l 144 188 q 176 99 144 133 q 258 64 207 64 m 464 442 l 692 442 l 692 564 q 661 660 692 622 q 578 699 631 699 q 496 660 528 699 q 464 564 464 622 l 464 442 z "},"ǽ":{"ha":833,"x_min":53,"x_max":782,"o":"m 239 -14 q 103 42 153 -14 q 53 188 53 97 l 53 260 q 105 392 53 343 q 246 442 157 442 l 378 442 l 378 564 q 347 663 378 626 q 261 699 315 699 q 182 668 213 699 q 149 588 151 638 l 60 588 q 115 726 64 674 q 250 778 165 778 q 340 759 304 778 q 395 714 375 740 q 419 661 415 688 l 422 661 q 448 714 429 688 q 501 759 467 740 q 586 778 536 778 q 728 719 676 778 q 781 564 781 661 l 781 365 l 464 365 l 464 200 q 496 104 464 142 q 581 67 528 67 q 660 97 631 67 q 693 176 689 126 l 782 176 q 726 38 778 90 q 589 -14 675 -14 q 501 5 536 -14 q 447 50 465 24 q 422 101 428 76 l 418 101 q 393 50 414 76 q 335 5 372 24 q 239 -14 297 -14 m 258 64 q 344 103 310 64 q 378 200 378 142 l 378 365 l 247 365 q 173 336 201 365 q 144 260 144 307 l 144 188 q 176 99 144 133 q 258 64 207 64 m 464 442 l 692 442 l 692 564 q 661 660 692 622 q 578 699 631 699 q 496 660 528 699 q 464 564 464 622 l 464 442 m 363 896 l 510 1090 l 613 1090 l 458 896 l 363 896 z "},"b":{"ha":833,"x_min":143,"x_max":699,"o":"m 446 -14 q 287 40 347 -14 q 226 186 226 94 l 268 121 l 235 121 l 235 0 l 143 0 l 143 1014 l 235 1014 l 235 800 l 233 643 l 260 643 l 226 578 q 288 723 226 668 q 446 778 349 778 q 630 701 561 778 q 699 497 699 625 l 699 265 q 630 62 699 138 q 446 -14 561 -14 m 421 65 q 558 119 508 65 q 607 268 607 172 l 607 494 q 558 645 607 592 q 421 699 508 699 q 284 644 333 699 q 235 494 235 590 l 235 268 q 284 119 235 174 q 421 65 333 65 z "},"c":{"ha":833,"x_min":135,"x_max":704,"o":"m 421 -14 q 269 20 333 -14 q 169 118 204 54 q 135 269 135 182 l 135 494 q 169 645 135 582 q 269 743 204 708 q 421 778 333 778 q 626 706 549 778 q 704 514 703 635 l 613 514 q 560 647 611 600 q 421 694 510 694 q 278 642 331 694 q 226 494 226 590 l 226 269 q 278 122 226 175 q 421 69 331 69 q 560 117 510 69 q 613 250 611 165 l 704 250 q 626 58 703 129 q 421 -14 549 -14 z "},"ć":{"ha":833,"x_min":135,"x_max":704,"o":"m 421 -14 q 269 20 333 -14 q 169 118 204 54 q 135 269 135 182 l 135 494 q 169 645 135 582 q 269 743 204 708 q 421 778 333 778 q 626 706 549 778 q 704 514 703 635 l 613 514 q 560 647 611 600 q 421 694 510 694 q 278 642 331 694 q 226 494 226 590 l 226 269 q 278 122 226 175 q 421 69 331 69 q 560 117 510 69 q 613 250 611 165 l 704 250 q 626 58 703 129 q 421 -14 549 -14 m 367 896 l 514 1090 l 617 1090 l 463 896 l 367 896 z "},"č":{"ha":833,"x_min":135,"x_max":704,"o":"m 421 -14 q 269 20 333 -14 q 169 118 204 54 q 135 269 135 182 l 135 494 q 169 645 135 582 q 269 743 204 708 q 421 778 333 778 q 626 706 549 778 q 704 514 703 635 l 613 514 q 560 647 611 600 q 421 694 510 694 q 278 642 331 694 q 226 494 226 590 l 226 269 q 278 122 226 175 q 421 69 331 69 q 560 117 510 69 q 613 250 611 165 l 704 250 q 626 58 703 129 q 421 -14 549 -14 m 374 896 l 196 1090 l 293 1090 l 422 956 l 550 1090 l 646 1090 l 469 896 l 374 896 z "},"ç":{"ha":833,"x_min":135,"x_max":704,"o":"m 293 -275 l 293 -215 l 399 -215 q 451 -198 431 -215 q 471 -161 471 -181 q 428 -111 471 -131 q 314 -92 386 -92 l 363 36 l 429 36 l 399 -47 q 470 -63 433 -50 q 532 -101 507 -76 q 557 -165 557 -126 q 515 -243 557 -211 q 407 -275 474 -275 l 293 -275 m 421 -14 q 269 20 333 -14 q 169 118 204 54 q 135 269 135 182 l 135 494 q 169 645 135 582 q 269 743 204 708 q 421 778 333 778 q 626 706 549 778 q 704 514 703 635 l 613 514 q 560 647 611 600 q 421 694 510 694 q 278 642 331 694 q 226 494 226 590 l 226 269 q 278 122 226 175 q 421 69 331 69 q 560 117 510 69 q 613 250 611 165 l 704 250 q 626 58 703 129 q 421 -14 549 -14 z "},"ĉ":{"ha":833,"x_min":135,"x_max":704,"o":"m 421 -14 q 269 20 333 -14 q 169 118 204 54 q 135 269 135 182 l 135 494 q 169 645 135 582 q 269 743 204 708 q 421 778 333 778 q 626 706 549 778 q 704 514 703 635 l 613 514 q 560 647 611 600 q 421 694 510 694 q 278 642 331 694 q 226 494 226 590 l 226 269 q 278 122 226 175 q 421 69 331 69 q 560 117 510 69 q 613 250 611 165 l 704 250 q 626 58 703 129 q 421 -14 549 -14 m 192 896 l 368 1090 l 464 1090 l 642 896 l 546 896 l 417 1031 l 290 896 l 192 896 z "},"ċ":{"ha":833,"x_min":135,"x_max":704,"o":"m 421 -14 q 269 20 333 -14 q 169 118 204 54 q 135 269 135 182 l 135 494 q 169 645 135 582 q 269 743 204 708 q 421 778 333 778 q 626 706 549 778 q 704 514 703 635 l 613 514 q 560 647 611 600 q 421 694 510 694 q 278 642 331 694 q 226 494 226 590 l 226 269 q 278 122 226 175 q 421 69 331 69 q 560 117 510 69 q 613 250 611 165 l 704 250 q 626 58 703 129 q 421 -14 549 -14 m 417 907 q 353 928 376 907 q 329 988 329 950 q 353 1047 329 1025 q 417 1069 376 1069 q 481 1047 457 1069 q 504 988 504 1025 q 481 928 504 950 q 417 907 457 907 z "},"d":{"ha":833,"x_min":135,"x_max":690,"o":"m 388 -14 q 204 62 274 -14 q 135 265 135 138 l 135 497 q 204 701 135 625 q 388 778 274 778 q 547 723 486 778 q 607 578 607 668 l 574 643 l 600 643 l 599 800 l 599 1014 l 690 1014 l 690 0 l 599 0 l 599 121 l 565 121 l 607 186 q 547 40 607 94 q 388 -14 486 -14 m 413 65 q 550 119 501 65 q 599 268 599 174 l 599 494 q 550 644 599 590 q 413 699 501 699 q 276 645 325 699 q 226 494 226 592 l 226 268 q 276 119 226 172 q 413 65 325 65 z "},"ð":{"ha":833,"x_min":106,"x_max":728,"o":"m 417 -14 q 253 25 324 -14 q 144 134 183 64 q 106 299 106 204 q 142 462 106 393 q 244 568 178 531 q 397 606 310 606 q 483 588 444 606 q 548 547 521 571 q 588 500 575 522 l 599 500 q 566 564 593 518 q 490 676 539 610 l 392 811 l 163 704 l 163 782 l 350 869 l 244 1014 l 358 1014 l 432 907 l 640 1004 l 640 926 l 474 849 l 575 704 q 690 495 651 597 q 728 301 728 393 q 689 135 728 207 q 581 25 650 64 q 417 -14 511 -14 m 417 72 q 573 135 514 72 q 632 300 632 197 q 604 417 632 367 q 528 497 576 468 q 417 525 481 525 q 260 463 318 525 q 201 299 201 401 q 260 134 201 196 q 417 72 318 72 z "},"ď":{"ha":833,"x_min":110,"x_max":808,"o":"m 708 764 l 717 1014 l 808 1014 l 790 764 l 708 764 m 344 -14 q 174 61 238 -14 q 110 263 110 136 l 110 500 q 174 703 110 628 q 344 778 238 778 q 493 724 439 778 q 547 578 547 669 l 514 643 l 540 643 l 539 800 l 539 1014 l 631 1014 l 631 0 l 539 0 l 539 121 l 506 121 l 547 186 q 493 40 547 94 q 344 -14 439 -14 m 369 65 q 494 119 450 65 q 539 265 539 172 l 539 497 q 494 644 539 590 q 369 699 450 699 q 247 644 292 699 q 201 497 201 590 l 201 265 q 247 119 201 172 q 369 65 292 65 z "},"đ":{"ha":833,"x_min":138,"x_max":825,"o":"m 388 -14 q 206 62 274 -14 q 138 265 138 138 l 138 414 q 206 618 138 542 q 388 694 274 694 q 546 640 486 694 q 606 494 606 585 l 572 560 l 599 560 l 597 717 l 597 1014 l 689 1014 l 689 0 l 597 0 l 597 121 l 564 121 l 606 186 q 546 40 606 94 q 388 -14 486 -14 m 413 65 q 549 119 501 65 q 597 268 597 174 l 597 411 q 549 561 597 507 q 413 615 501 615 q 277 562 325 615 q 229 411 229 508 l 229 268 q 277 119 229 172 q 413 65 325 65 m 356 806 l 356 885 l 825 885 l 825 806 l 356 806 z "},"e":{"ha":833,"x_min":135,"x_max":699,"o":"m 418 -14 q 267 21 331 -14 q 169 119 203 56 q 135 269 135 183 l 135 494 q 169 644 135 581 q 267 742 203 707 q 418 778 331 778 q 567 742 504 778 q 665 644 631 707 q 699 494 699 581 l 699 361 l 225 361 l 225 269 q 275 119 225 174 q 418 65 325 65 q 541 98 493 65 q 606 190 589 131 l 697 190 q 605 41 679 96 q 418 -14 531 -14 m 608 424 l 608 494 q 559 645 608 590 q 418 700 510 700 q 275 646 325 700 q 225 494 225 592 l 225 435 l 621 435 l 608 424 z "},"é":{"ha":833,"x_min":135,"x_max":699,"o":"m 418 -14 q 267 21 331 -14 q 169 119 203 56 q 135 269 135 183 l 135 494 q 169 644 135 581 q 267 742 203 707 q 418 778 331 778 q 567 742 504 778 q 665 644 631 707 q 699 494 699 581 l 699 361 l 225 361 l 225 269 q 275 119 225 174 q 418 65 325 65 q 541 98 493 65 q 606 190 589 131 l 697 190 q 605 41 679 96 q 418 -14 531 -14 m 608 424 l 608 494 q 559 645 608 590 q 418 700 510 700 q 275 646 325 700 q 225 494 225 592 l 225 435 l 621 435 l 608 424 m 363 896 l 510 1090 l 613 1090 l 458 896 l 363 896 z "},"ĕ":{"ha":833,"x_min":135,"x_max":699,"o":"m 418 -14 q 267 21 331 -14 q 169 119 203 56 q 135 269 135 183 l 135 494 q 169 644 135 581 q 267 742 203 707 q 418 778 331 778 q 567 742 504 778 q 665 644 631 707 q 699 494 699 581 l 699 361 l 225 361 l 225 269 q 275 119 225 174 q 418 65 325 65 q 541 98 493 65 q 606 190 589 131 l 697 190 q 605 41 679 96 q 418 -14 531 -14 m 608 424 l 608 494 q 559 645 608 590 q 418 700 510 700 q 275 646 325 700 q 225 494 225 592 l 225 435 l 621 435 l 608 424 m 417 892 q 264 946 321 892 q 207 1090 207 1000 l 283 1090 q 319 993 283 1029 q 415 957 354 957 q 514 993 478 957 q 550 1090 550 1029 l 626 1090 q 569 946 626 1000 q 417 892 513 892 z "},"ě":{"ha":833,"x_min":135,"x_max":699,"o":"m 418 -14 q 267 21 331 -14 q 169 119 203 56 q 135 269 135 183 l 135 494 q 169 644 135 581 q 267 742 203 707 q 418 778 331 778 q 567 742 504 778 q 665 644 631 707 q 699 494 699 581 l 699 361 l 225 361 l 225 269 q 275 119 225 174 q 418 65 325 65 q 541 98 493 65 q 606 190 589 131 l 697 190 q 605 41 679 96 q 418 -14 531 -14 m 608 424 l 608 494 q 559 645 608 590 q 418 700 510 700 q 275 646 325 700 q 225 494 225 592 l 225 435 l 621 435 l 608 424 m 369 896 l 192 1090 l 289 1090 l 418 956 l 546 1090 l 642 1090 l 465 896 l 369 896 z "},"ê":{"ha":833,"x_min":135,"x_max":699,"o":"m 418 -14 q 267 21 331 -14 q 169 119 203 56 q 135 269 135 183 l 135 494 q 169 644 135 581 q 267 742 203 707 q 418 778 331 778 q 567 742 504 778 q 665 644 631 707 q 699 494 699 581 l 699 361 l 225 361 l 225 269 q 275 119 225 174 q 418 65 325 65 q 541 98 493 65 q 606 190 589 131 l 697 190 q 605 41 679 96 q 418 -14 531 -14 m 608 424 l 608 494 q 559 645 608 590 q 418 700 510 700 q 275 646 325 700 q 225 494 225 592 l 225 435 l 621 435 l 608 424 m 192 896 l 368 1090 l 464 1090 l 642 896 l 546 896 l 417 1031 l 290 896 l 192 896 z "},"ế":{"ha":833,"x_min":135,"x_max":831,"o":"m 418 -14 q 267 21 331 -14 q 169 119 203 56 q 135 269 135 183 l 135 494 q 169 644 135 581 q 267 742 203 707 q 418 778 331 778 q 567 742 504 778 q 665 644 631 707 q 699 494 699 581 l 699 361 l 225 361 l 225 269 q 275 119 225 174 q 418 65 325 65 q 541 98 493 65 q 606 190 589 131 l 697 190 q 605 41 679 96 q 418 -14 531 -14 m 608 424 l 608 494 q 559 645 608 590 q 418 700 510 700 q 275 646 325 700 q 225 494 225 592 l 225 435 l 621 435 l 608 424 m 565 1056 l 725 1250 l 831 1250 l 660 1056 l 565 1056 m 192 896 l 368 1090 l 465 1090 l 642 896 l 546 896 l 417 1031 l 289 896 l 192 896 z "},"ệ":{"ha":833,"x_min":135,"x_max":699,"o":"m 194 896 l 371 1090 l 467 1090 l 644 896 l 549 896 l 419 1031 l 293 896 l 194 896 m 418 -14 q 267 21 331 -14 q 169 119 203 56 q 135 269 135 183 l 135 494 q 169 644 135 581 q 267 742 203 707 q 418 778 331 778 q 567 742 504 778 q 665 644 631 707 q 699 494 699 581 l 699 361 l 225 361 l 225 269 q 275 119 225 174 q 418 65 325 65 q 541 98 493 65 q 606 190 589 131 l 697 190 q 605 41 679 96 q 418 -14 531 -14 m 608 424 l 608 494 q 559 645 608 590 q 418 700 510 700 q 275 646 325 700 q 225 494 225 592 l 225 435 l 621 435 l 608 424 m 417 -289 q 353 -267 376 -289 q 329 -208 329 -246 q 353 -149 329 -171 q 417 -126 376 -126 q 481 -149 457 -126 q 504 -208 504 -171 q 481 -267 504 -246 q 417 -289 457 -289 z "},"ề":{"ha":833,"x_min":135,"x_max":724,"o":"m 418 -14 q 267 21 331 -14 q 169 119 203 56 q 135 269 135 183 l 135 494 q 169 644 135 581 q 267 742 203 707 q 418 778 331 778 q 567 742 504 778 q 665 644 631 707 q 699 494 699 581 l 699 361 l 225 361 l 225 269 q 275 119 225 174 q 418 65 325 65 q 541 98 493 65 q 606 190 589 131 l 697 190 q 605 41 679 96 q 418 -14 531 -14 m 608 424 l 608 494 q 559 645 608 590 q 418 700 510 700 q 275 646 325 700 q 225 494 225 592 l 225 435 l 621 435 l 608 424 m 629 1056 l 450 1250 l 556 1250 l 724 1056 l 629 1056 m 192 896 l 368 1090 l 465 1090 l 642 896 l 546 896 l 417 1031 l 289 896 l 192 896 z "},"ể":{"ha":833,"x_min":135,"x_max":747,"o":"m 418 -14 q 267 21 331 -14 q 169 119 203 56 q 135 269 135 183 l 135 494 q 169 644 135 581 q 267 742 203 707 q 418 778 331 778 q 567 742 504 778 q 665 644 631 707 q 699 494 699 581 l 699 361 l 225 361 l 225 269 q 275 119 225 174 q 418 65 325 65 q 541 98 493 65 q 606 190 589 131 l 697 190 q 605 41 679 96 q 418 -14 531 -14 m 608 424 l 608 494 q 559 645 608 590 q 418 700 510 700 q 275 646 325 700 q 225 494 225 592 l 225 435 l 621 435 l 608 424 m 586 1056 l 653 1143 q 674 1190 674 1171 q 661 1216 674 1206 q 626 1226 649 1226 l 538 1226 l 538 1289 l 629 1289 q 715 1264 683 1289 q 747 1199 747 1239 q 739 1161 747 1181 q 717 1122 731 1142 l 667 1056 l 586 1056 m 192 896 l 368 1090 l 465 1090 l 642 896 l 546 896 l 417 1031 l 289 896 l 192 896 z "},"ễ":{"ha":833,"x_min":135,"x_max":699,"o":"m 418 -14 q 267 21 331 -14 q 169 119 203 56 q 135 269 135 183 l 135 494 q 169 644 135 581 q 267 742 203 707 q 418 778 331 778 q 567 742 504 778 q 665 644 631 707 q 699 494 699 581 l 699 361 l 225 361 l 225 269 q 275 119 225 174 q 418 65 325 65 q 541 98 493 65 q 606 190 589 131 l 697 190 q 605 41 679 96 q 418 -14 531 -14 m 608 424 l 608 494 q 559 645 608 590 q 418 700 510 700 q 275 646 325 700 q 225 494 225 592 l 225 435 l 621 435 l 608 424 m 511 1131 q 446 1144 471 1131 q 403 1177 421 1158 q 369 1210 386 1196 q 326 1224 351 1224 q 289 1211 301 1224 q 276 1174 276 1199 l 276 1139 l 207 1139 l 207 1171 q 238 1256 207 1225 q 326 1286 269 1286 q 392 1272 367 1286 q 435 1240 418 1258 q 469 1207 451 1221 q 511 1193 486 1193 q 557 1243 557 1193 l 557 1278 l 626 1278 l 626 1246 q 596 1161 626 1192 q 511 1131 565 1131 m 192 896 l 368 1090 l 465 1090 l 642 896 l 546 896 l 417 1031 l 289 896 l 192 896 z "},"ë":{"ha":833,"x_min":135,"x_max":699,"o":"m 418 -14 q 267 21 331 -14 q 169 119 203 56 q 135 269 135 183 l 135 494 q 169 644 135 581 q 267 742 203 707 q 418 778 331 778 q 567 742 504 778 q 665 644 631 707 q 699 494 699 581 l 699 361 l 225 361 l 225 269 q 275 119 225 174 q 418 65 325 65 q 541 98 493 65 q 606 190 589 131 l 697 190 q 605 41 679 96 q 418 -14 531 -14 m 608 424 l 608 494 q 559 645 608 590 q 418 700 510 700 q 275 646 325 700 q 225 494 225 592 l 225 435 l 621 435 l 608 424 m 568 907 q 510 928 532 907 q 489 988 489 950 q 510 1047 489 1025 q 568 1069 532 1069 q 625 1047 604 1069 q 646 988 646 1025 q 625 928 646 950 q 568 907 604 907 m 265 907 q 209 928 231 907 q 188 988 188 950 q 209 1047 188 1025 q 265 1069 231 1069 q 323 1047 301 1069 q 344 988 344 1025 q 323 928 344 950 q 265 907 301 907 z "},"ė":{"ha":833,"x_min":135,"x_max":699,"o":"m 418 -14 q 267 21 331 -14 q 169 119 203 56 q 135 269 135 183 l 135 494 q 169 644 135 581 q 267 742 203 707 q 418 778 331 778 q 567 742 504 778 q 665 644 631 707 q 699 494 699 581 l 699 361 l 225 361 l 225 269 q 275 119 225 174 q 418 65 325 65 q 541 98 493 65 q 606 190 589 131 l 697 190 q 605 41 679 96 q 418 -14 531 -14 m 608 424 l 608 494 q 559 645 608 590 q 418 700 510 700 q 275 646 325 700 q 225 494 225 592 l 225 435 l 621 435 l 608 424 m 417 907 q 353 928 376 907 q 329 988 329 950 q 353 1047 329 1025 q 417 1069 376 1069 q 481 1047 457 1069 q 504 988 504 1025 q 481 928 504 950 q 417 907 457 907 z "},"ẹ":{"ha":833,"x_min":135,"x_max":699,"o":"m 418 -14 q 267 21 331 -14 q 169 119 203 56 q 135 269 135 183 l 135 494 q 169 644 135 581 q 267 742 203 707 q 418 778 331 778 q 567 742 504 778 q 665 644 631 707 q 699 494 699 581 l 699 361 l 225 361 l 225 269 q 275 119 225 174 q 418 65 325 65 q 541 98 493 65 q 606 190 589 131 l 697 190 q 605 41 679 96 q 418 -14 531 -14 m 608 424 l 608 494 q 559 645 608 590 q 418 700 510 700 q 275 646 325 700 q 225 494 225 592 l 225 435 l 621 435 l 608 424 m 417 -289 q 353 -267 376 -289 q 329 -208 329 -246 q 353 -149 329 -171 q 417 -126 376 -126 q 481 -149 457 -126 q 504 -208 504 -171 q 481 -267 504 -246 q 417 -289 457 -289 z "},"è":{"ha":833,"x_min":135,"x_max":699,"o":"m 418 -14 q 267 21 331 -14 q 169 119 203 56 q 135 269 135 183 l 135 494 q 169 644 135 581 q 267 742 203 707 q 418 778 331 778 q 567 742 504 778 q 665 644 631 707 q 699 494 699 581 l 699 361 l 225 361 l 225 269 q 275 119 225 174 q 418 65 325 65 q 541 98 493 65 q 606 190 589 131 l 697 190 q 605 41 679 96 q 418 -14 531 -14 m 608 424 l 608 494 q 559 645 608 590 q 418 700 510 700 q 275 646 325 700 q 225 494 225 592 l 225 435 l 621 435 l 608 424 m 385 896 l 226 1090 l 333 1090 l 483 896 l 385 896 z "},"ẻ":{"ha":833,"x_min":135,"x_max":699,"o":"m 418 -14 q 267 21 331 -14 q 169 119 203 56 q 135 269 135 183 l 135 494 q 169 644 135 581 q 267 742 203 707 q 418 778 331 778 q 567 742 504 778 q 665 644 631 707 q 699 494 699 581 l 699 361 l 225 361 l 225 269 q 275 119 225 174 q 418 65 325 65 q 541 98 493 65 q 606 190 589 131 l 697 190 q 605 41 679 96 q 418 -14 531 -14 m 608 424 l 608 494 q 559 645 608 590 q 418 700 510 700 q 275 646 325 700 q 225 494 225 592 l 225 435 l 621 435 l 608 424 m 372 896 l 446 994 q 468 1042 468 1025 q 419 1076 468 1076 l 301 1076 l 301 1142 l 433 1142 q 514 1117 483 1142 q 544 1051 544 1093 q 519 978 544 1013 l 460 896 l 372 896 z "},"ē":{"ha":833,"x_min":135,"x_max":699,"o":"m 418 -14 q 267 21 331 -14 q 169 119 203 56 q 135 269 135 183 l 135 494 q 169 644 135 581 q 267 742 203 707 q 418 778 331 778 q 567 742 504 778 q 665 644 631 707 q 699 494 699 581 l 699 361 l 225 361 l 225 269 q 275 119 225 174 q 418 65 325 65 q 541 98 493 65 q 606 190 589 131 l 697 190 q 605 41 679 96 q 418 -14 531 -14 m 608 424 l 608 494 q 559 645 608 590 q 418 700 510 700 q 275 646 325 700 q 225 494 225 592 l 225 435 l 621 435 l 608 424 m 211 942 l 211 1019 l 622 1019 l 622 942 l 211 942 z "},"ę":{"ha":833,"x_min":136,"x_max":697,"o":"m 521 -275 q 417 -242 456 -275 q 379 -157 379 -210 q 399 -88 379 -125 q 464 -10 419 -51 q 442 -12 454 -11 q 418 -14 429 -14 q 267 21 331 -14 q 170 119 204 56 q 136 269 136 183 l 136 494 q 170 644 136 581 q 267 742 204 707 q 418 778 331 778 q 567 742 504 778 q 663 644 629 707 q 697 494 697 581 l 697 361 l 226 361 l 226 269 q 276 119 226 174 q 418 65 325 65 q 540 98 493 65 q 603 190 588 131 l 694 190 q 657 97 686 138 q 583 28 628 56 l 551 0 q 488 -73 510 -37 q 465 -137 465 -108 q 485 -188 465 -169 q 538 -207 504 -207 l 625 -207 l 625 -275 l 521 -275 m 607 394 l 607 494 q 558 645 607 590 q 418 700 510 700 q 276 646 325 700 q 226 494 226 592 l 226 435 l 647 435 l 607 394 z "},"ẽ":{"ha":833,"x_min":135,"x_max":699,"o":"m 418 -14 q 267 21 331 -14 q 169 119 203 56 q 135 269 135 183 l 135 494 q 169 644 135 581 q 267 742 203 707 q 418 778 331 778 q 567 742 504 778 q 665 644 631 707 q 699 494 699 581 l 699 361 l 225 361 l 225 269 q 275 119 225 174 q 418 65 325 65 q 541 98 493 65 q 606 190 589 131 l 697 190 q 605 41 679 96 q 418 -14 531 -14 m 608 424 l 608 494 q 559 645 608 590 q 418 700 510 700 q 275 646 325 700 q 225 494 225 592 l 225 435 l 621 435 l 608 424 m 518 903 q 451 920 478 903 q 405 960 425 938 q 366 1001 385 983 q 322 1018 347 1018 q 280 1001 296 1018 q 264 956 264 985 l 264 910 l 194 910 l 194 956 q 228 1049 194 1015 q 319 1083 263 1083 q 386 1066 360 1083 q 433 1026 413 1049 q 472 985 453 1003 q 515 968 490 968 q 555 985 540 968 q 569 1031 569 1001 l 569 1076 l 639 1076 l 639 1031 q 606 937 639 971 q 518 903 574 903 z "},"ə":{"ha":833,"x_min":138,"x_max":696,"o":"m 415 -14 q 267 22 329 -14 q 172 121 206 57 q 138 269 138 185 l 138 403 l 606 403 l 606 494 q 557 644 606 590 q 415 699 508 699 q 294 666 342 699 q 231 574 247 633 l 139 574 q 230 723 157 668 q 415 778 303 778 q 566 743 504 778 q 662 644 628 708 q 696 494 696 581 l 696 269 q 662 121 696 185 q 565 22 628 57 q 415 -14 503 -14 m 415 64 q 558 118 510 64 q 606 269 606 172 l 606 329 l 215 329 l 228 340 l 228 269 q 276 119 228 174 q 415 64 325 64 z "},"f":{"ha":833,"x_min":92,"x_max":733,"o":"m 322 0 l 322 604 l 92 604 l 92 686 l 322 686 l 322 832 q 374 965 322 917 q 517 1014 425 1014 l 733 1014 l 733 931 l 517 931 q 440 905 467 931 q 414 832 414 879 l 414 686 l 733 686 l 733 604 l 414 604 l 414 0 l 322 0 z "},"g":{"ha":833,"x_min":136,"x_max":690,"o":"m 235 -250 l 235 -167 l 453 -167 q 562 -131 525 -167 q 599 -24 599 -94 l 599 53 l 600 204 l 575 204 l 604 250 q 546 106 604 160 q 390 53 488 53 q 205 129 274 53 q 136 332 136 206 l 136 497 q 205 701 136 625 q 390 778 274 778 q 546 724 488 778 q 604 581 604 671 l 579 626 l 599 626 l 599 764 l 690 764 l 690 -24 q 628 -192 690 -133 q 451 -250 567 -250 l 235 -250 m 413 132 q 550 186 501 132 q 599 335 599 240 l 599 494 q 550 644 599 590 q 413 699 501 699 q 276 645 325 699 q 228 494 228 592 l 228 335 q 276 185 228 239 q 413 132 325 132 z "},"ǵ":{"ha":833,"x_min":136,"x_max":690,"o":"m 235 -250 l 235 -167 l 453 -167 q 562 -131 525 -167 q 599 -24 599 -94 l 599 53 l 600 204 l 575 204 l 604 250 q 546 106 604 160 q 390 53 488 53 q 205 129 274 53 q 136 332 136 206 l 136 497 q 205 701 136 625 q 390 778 274 778 q 546 724 488 778 q 604 581 604 671 l 579 626 l 599 626 l 599 764 l 690 764 l 690 -24 q 628 -192 690 -133 q 451 -250 567 -250 l 235 -250 m 413 132 q 550 186 501 132 q 599 335 599 240 l 599 494 q 550 644 599 590 q 413 699 501 699 q 276 645 325 699 q 228 494 228 592 l 228 335 q 276 185 228 239 q 413 132 325 132 m 357 896 l 504 1090 l 607 1090 l 453 896 l 357 896 z "},"ğ":{"ha":833,"x_min":136,"x_max":690,"o":"m 235 -250 l 235 -167 l 453 -167 q 562 -131 525 -167 q 599 -24 599 -94 l 599 53 l 600 204 l 575 204 l 604 250 q 546 106 604 160 q 390 53 488 53 q 205 129 274 53 q 136 332 136 206 l 136 497 q 205 701 136 625 q 390 778 274 778 q 546 724 488 778 q 604 581 604 671 l 579 626 l 599 626 l 599 764 l 690 764 l 690 -24 q 628 -192 690 -133 q 451 -250 567 -250 l 235 -250 m 413 132 q 550 186 501 132 q 599 335 599 240 l 599 494 q 550 644 599 590 q 413 699 501 699 q 276 645 325 699 q 228 494 228 592 l 228 335 q 276 185 228 239 q 413 132 325 132 m 413 892 q 260 946 317 892 q 203 1090 203 1000 l 279 1090 q 315 993 279 1029 q 411 957 350 957 q 510 993 474 957 q 546 1090 546 1029 l 622 1090 q 565 946 622 1000 q 413 892 508 892 z "},"ǧ":{"ha":833,"x_min":136,"x_max":690,"o":"m 235 -250 l 235 -167 l 453 -167 q 562 -131 525 -167 q 599 -24 599 -94 l 599 53 l 600 204 l 575 204 l 604 250 q 546 106 604 160 q 390 53 488 53 q 205 129 274 53 q 136 332 136 206 l 136 497 q 205 701 136 625 q 390 778 274 778 q 546 724 488 778 q 604 581 604 671 l 579 626 l 599 626 l 599 764 l 690 764 l 690 -24 q 628 -192 690 -133 q 451 -250 567 -250 l 235 -250 m 413 132 q 550 186 501 132 q 599 335 599 240 l 599 494 q 550 644 599 590 q 413 699 501 699 q 276 645 325 699 q 228 494 228 592 l 228 335 q 276 185 228 239 q 413 132 325 132 m 365 896 l 188 1090 l 285 1090 l 414 956 l 542 1090 l 638 1090 l 461 896 l 365 896 z "},"ĝ":{"ha":833,"x_min":136,"x_max":690,"o":"m 235 -250 l 235 -167 l 453 -167 q 562 -131 525 -167 q 599 -24 599 -94 l 599 53 l 600 204 l 575 204 l 604 250 q 546 106 604 160 q 390 53 488 53 q 205 129 274 53 q 136 332 136 206 l 136 497 q 205 701 136 625 q 390 778 274 778 q 546 724 488 778 q 604 581 604 671 l 579 626 l 599 626 l 599 764 l 690 764 l 690 -24 q 628 -192 690 -133 q 451 -250 567 -250 l 235 -250 m 413 132 q 550 186 501 132 q 599 335 599 240 l 599 494 q 550 644 599 590 q 413 699 501 699 q 276 645 325 699 q 228 494 228 592 l 228 335 q 276 185 228 239 q 413 132 325 132 m 188 896 l 364 1090 l 460 1090 l 638 896 l 542 896 l 413 1031 l 286 896 l 188 896 z "},"ģ":{"ha":833,"x_min":136,"x_max":690,"o":"m 235 -250 l 235 -167 l 453 -167 q 562 -131 525 -167 q 599 -24 599 -94 l 599 53 l 600 204 l 575 204 l 604 250 q 546 106 604 160 q 390 53 488 53 q 205 129 274 53 q 136 332 136 206 l 136 497 q 205 701 136 625 q 390 778 274 778 q 546 724 488 778 q 604 581 604 671 l 579 626 l 599 626 l 599 764 l 690 764 l 690 -24 q 628 -192 690 -133 q 451 -250 567 -250 l 235 -250 m 413 132 q 550 186 501 132 q 599 335 599 240 l 599 494 q 550 644 599 590 q 413 699 501 699 q 276 645 325 699 q 228 494 228 592 l 228 335 q 276 185 228 239 q 413 132 325 132 m 560 1222 l 436 896 l 313 896 l 481 1222 l 560 1222 z "},"ġ":{"ha":833,"x_min":136,"x_max":690,"o":"m 235 -250 l 235 -167 l 453 -167 q 562 -131 525 -167 q 599 -24 599 -94 l 599 53 l 600 204 l 575 204 l 604 250 q 546 106 604 160 q 390 53 488 53 q 205 129 274 53 q 136 332 136 206 l 136 497 q 205 701 136 625 q 390 778 274 778 q 546 724 488 778 q 604 581 604 671 l 579 626 l 599 626 l 599 764 l 690 764 l 690 -24 q 628 -192 690 -133 q 451 -250 567 -250 l 235 -250 m 413 132 q 550 186 501 132 q 599 335 599 240 l 599 494 q 550 644 599 590 q 413 699 501 699 q 276 645 325 699 q 228 494 228 592 l 228 335 q 276 185 228 239 q 413 132 325 132 m 413 907 q 349 928 372 907 q 325 988 325 950 q 349 1047 325 1025 q 413 1069 372 1069 q 476 1047 453 1069 q 500 988 500 1025 q 476 928 500 950 q 413 907 453 907 z "},"h":{"ha":833,"x_min":143,"x_max":693,"o":"m 143 0 l 143 1014 l 235 1014 l 235 789 l 235 639 l 264 639 l 229 578 q 288 724 229 669 q 443 778 346 778 q 625 706 557 778 q 693 511 693 635 l 693 0 l 601 0 l 601 500 q 553 647 601 594 q 421 700 504 700 q 285 645 335 700 q 235 494 235 590 l 235 0 l 143 0 z "},"ħ":{"ha":833,"x_min":7,"x_max":693,"o":"m 7 806 l 7 885 l 143 885 l 143 1014 l 235 1014 l 235 885 l 476 885 l 476 806 l 235 806 l 235 681 l 235 556 l 239 556 q 310 658 257 621 q 443 694 363 694 q 625 623 557 694 q 693 428 693 551 l 693 0 l 601 0 l 601 417 q 553 564 601 511 q 421 617 506 617 q 285 562 335 617 q 235 411 235 507 l 235 0 l 143 0 l 143 806 l 7 806 z "},"ĥ":{"ha":833,"x_min":-17,"x_max":693,"o":"m 143 0 l 143 1014 l 235 1014 l 235 789 l 235 639 l 264 639 l 229 578 q 288 724 229 669 q 443 778 346 778 q 625 706 557 778 q 693 511 693 635 l 693 0 l 601 0 l 601 500 q 553 647 601 594 q 421 700 504 700 q 285 645 335 700 q 235 494 235 590 l 235 0 l 143 0 m -17 1118 l 160 1313 l 256 1313 l 433 1118 l 338 1118 l 208 1253 l 82 1118 l -17 1118 z "},"i":{"ha":833,"x_min":126,"x_max":754,"o":"m 126 0 l 126 83 l 403 83 l 403 681 l 161 681 l 161 764 l 494 764 l 494 83 l 754 83 l 754 0 l 126 0 m 438 907 q 374 928 397 907 q 350 988 350 950 q 374 1047 350 1025 q 438 1069 397 1069 q 501 1047 478 1069 q 525 988 525 1025 q 501 928 525 950 q 438 907 478 907 z "},"ı":{"ha":833,"x_min":126,"x_max":754,"o":"m 126 0 l 126 83 l 403 83 l 403 681 l 161 681 l 161 764 l 494 764 l 494 83 l 754 83 l 754 0 l 126 0 z "},"í":{"ha":833,"x_min":126,"x_max":754,"o":"m 126 0 l 126 83 l 403 83 l 403 681 l 161 681 l 161 764 l 494 764 l 494 83 l 754 83 l 754 0 l 126 0 m 383 896 l 531 1090 l 633 1090 l 479 896 l 383 896 z "},"ĭ":{"ha":833,"x_min":126,"x_max":754,"o":"m 126 0 l 126 83 l 403 83 l 403 681 l 161 681 l 161 764 l 494 764 l 494 83 l 754 83 l 754 0 l 126 0 m 438 892 q 285 946 342 892 q 228 1090 228 1000 l 304 1090 q 340 993 304 1029 q 436 957 375 957 q 535 993 499 957 q 571 1090 571 1029 l 647 1090 q 590 946 647 1000 q 438 892 533 892 z "},"î":{"ha":833,"x_min":126,"x_max":754,"o":"m 126 0 l 126 83 l 403 83 l 403 681 l 161 681 l 161 764 l 494 764 l 494 83 l 754 83 l 754 0 l 126 0 m 213 896 l 389 1090 l 485 1090 l 663 896 l 567 896 l 438 1031 l 311 896 l 213 896 z "},"ï":{"ha":833,"x_min":126,"x_max":754,"o":"m 126 0 l 126 83 l 403 83 l 403 681 l 161 681 l 161 764 l 494 764 l 494 83 l 754 83 l 754 0 l 126 0 m 589 907 q 531 928 553 907 q 510 988 510 950 q 531 1047 510 1025 q 589 1069 553 1069 q 646 1047 625 1069 q 667 988 667 1025 q 646 928 667 950 q 589 907 625 907 m 286 907 q 230 928 251 907 q 208 988 208 950 q 230 1047 208 1025 q 286 1069 251 1069 q 344 1047 322 1069 q 365 988 365 1025 q 344 928 365 950 q 286 907 322 907 z "},"ị":{"ha":833,"x_min":126,"x_max":754,"o":"m 126 0 l 126 83 l 403 83 l 403 681 l 161 681 l 161 764 l 494 764 l 494 83 l 754 83 l 754 0 l 126 0 m 438 907 q 374 928 397 907 q 350 988 350 950 q 374 1047 350 1025 q 438 1069 397 1069 q 501 1047 478 1069 q 525 988 525 1025 q 501 928 525 950 q 438 907 478 907 m 438 -289 q 374 -267 397 -289 q 350 -208 350 -246 q 374 -149 350 -171 q 438 -126 397 -126 q 501 -149 478 -126 q 525 -208 525 -171 q 501 -267 525 -246 q 438 -289 478 -289 z "},"ì":{"ha":833,"x_min":126,"x_max":754,"o":"m 126 0 l 126 83 l 403 83 l 403 681 l 161 681 l 161 764 l 494 764 l 494 83 l 754 83 l 754 0 l 126 0 m 406 896 l 247 1090 l 354 1090 l 504 896 l 406 896 z "},"ỉ":{"ha":833,"x_min":126,"x_max":754,"o":"m 126 0 l 126 83 l 403 83 l 403 681 l 161 681 l 161 764 l 494 764 l 494 83 l 754 83 l 754 0 l 126 0 m 397 896 l 471 994 q 493 1042 493 1025 q 444 1076 493 1076 l 326 1076 l 326 1142 l 458 1142 q 539 1117 508 1142 q 569 1051 569 1093 q 544 978 569 1013 l 485 896 l 397 896 z "},"ī":{"ha":833,"x_min":126,"x_max":754,"o":"m 126 0 l 126 83 l 403 83 l 403 681 l 161 681 l 161 764 l 494 764 l 494 83 l 754 83 l 754 0 l 126 0 m 232 942 l 232 1019 l 643 1019 l 643 942 l 232 942 z "},"į":{"ha":833,"x_min":126,"x_max":754,"o":"m 443 -275 q 340 -242 378 -275 q 301 -157 301 -210 q 330 -72 301 -115 q 417 14 358 -28 l 489 14 l 474 0 q 410 -73 432 -37 q 388 -137 388 -108 q 407 -188 388 -169 q 461 -207 426 -207 l 547 -207 l 547 -275 l 443 -275 m 126 0 l 126 83 l 403 83 l 403 681 l 161 681 l 161 764 l 494 764 l 494 83 l 754 83 l 754 0 l 126 0 m 438 907 q 374 928 397 907 q 350 988 350 950 q 374 1047 350 1025 q 438 1069 397 1069 q 501 1047 478 1069 q 525 988 525 1025 q 501 928 525 950 q 438 907 478 907 z "},"ĩ":{"ha":833,"x_min":126,"x_max":754,"o":"m 126 0 l 126 83 l 403 83 l 403 681 l 161 681 l 161 764 l 494 764 l 494 83 l 754 83 l 754 0 l 126 0 m 539 903 q 472 920 499 903 q 426 960 446 938 q 387 1001 406 983 q 343 1018 368 1018 q 301 1001 317 1018 q 285 956 285 985 l 285 910 l 215 910 l 215 956 q 249 1049 215 1015 q 340 1083 283 1083 q 407 1066 381 1083 q 453 1026 433 1049 q 492 985 474 1003 q 536 968 511 968 q 576 985 561 968 q 590 1031 590 1001 l 590 1076 l 660 1076 l 660 1031 q 627 937 660 971 q 539 903 594 903 z "},"j":{"ha":833,"x_min":126,"x_max":631,"o":"m 126 -250 l 126 -167 l 311 -167 q 453 -117 404 -167 q 503 25 503 -67 l 503 681 l 167 681 l 167 764 l 594 764 l 594 25 q 519 -176 594 -103 q 311 -250 443 -250 l 126 -250 m 542 907 q 478 928 501 907 q 454 988 454 950 q 478 1047 454 1025 q 542 1069 501 1069 q 606 1047 582 1069 q 629 988 629 1025 q 606 928 629 950 q 542 907 582 907 z "},"ȷ":{"ha":833,"x_min":126,"x_max":594,"o":"m 126 -250 l 126 -167 l 311 -167 q 453 -117 404 -167 q 503 25 503 -67 l 503 681 l 167 681 l 167 764 l 594 764 l 594 25 q 519 -176 594 -103 q 311 -250 443 -250 l 126 -250 z "},"ĵ":{"ha":833,"x_min":126,"x_max":685,"o":"m 126 -250 l 126 -167 l 311 -167 q 453 -117 404 -167 q 503 25 503 -67 l 503 681 l 167 681 l 167 764 l 594 764 l 594 25 q 519 -176 594 -103 q 311 -250 443 -250 l 126 -250 m 233 896 l 410 1090 l 506 1090 l 683 896 l 588 896 l 458 1031 l 332 896 l 233 896 z "},"k":{"ha":833,"x_min":147,"x_max":751,"o":"m 147 0 l 147 1014 l 239 1014 l 239 438 l 407 438 l 640 764 l 747 764 l 490 401 l 751 0 l 643 0 l 408 356 l 239 356 l 239 0 l 147 0 z "},"ķ":{"ha":833,"x_min":147,"x_max":751,"o":"m 147 0 l 147 1014 l 239 1014 l 239 438 l 407 438 l 640 764 l 747 764 l 490 401 l 751 0 l 643 0 l 408 356 l 239 356 l 239 0 l 147 0 m 285 -333 l 413 -132 l 525 -132 l 379 -333 l 285 -333 z "},"ĸ":{"ha":833,"x_min":149,"x_max":746,"o":"m 149 0 l 149 764 l 240 764 l 240 438 l 401 438 l 635 764 l 742 764 l 485 401 l 746 0 l 638 0 l 403 356 l 240 356 l 240 0 l 149 0 z "},"l":{"ha":833,"x_min":58,"x_max":756,"o":"m 513 0 q 403 24 449 0 q 332 92 357 47 q 307 199 307 136 l 307 931 l 58 931 l 58 1014 l 399 1014 l 399 199 q 428 113 399 143 q 513 83 458 83 l 756 83 l 756 0 l 513 0 z "},"ĺ":{"ha":833,"x_min":58,"x_max":756,"o":"m 513 0 q 403 24 449 0 q 332 92 357 47 q 307 199 307 136 l 307 931 l 58 931 l 58 1014 l 399 1014 l 399 199 q 428 113 399 143 q 513 83 458 83 l 756 83 l 756 0 l 513 0 m 285 1125 l 432 1319 l 535 1319 l 381 1125 l 285 1125 z "},"ľ":{"ha":833,"x_min":58,"x_max":756,"o":"m 513 0 q 403 24 449 0 q 332 92 357 47 q 307 199 307 136 l 307 931 l 58 931 l 58 1014 l 399 1014 l 399 199 q 428 113 399 143 q 513 83 458 83 l 756 83 l 756 0 l 513 0 m 635 764 l 649 1014 l 738 1014 l 710 764 l 635 764 z "},"ļ":{"ha":833,"x_min":58,"x_max":756,"o":"m 513 0 q 403 24 449 0 q 332 92 357 47 q 307 199 307 136 l 307 931 l 58 931 l 58 1014 l 399 1014 l 399 199 q 428 113 399 143 q 513 83 458 83 l 756 83 l 756 0 l 513 0 m 313 -333 l 440 -132 l 553 -132 l 407 -333 l 313 -333 z "},"ŀ":{"ha":833,"x_min":31,"x_max":871,"o":"m 485 0 q 375 24 421 0 q 304 92 329 47 q 279 199 279 136 l 279 931 l 31 931 l 31 1014 l 371 1014 l 371 199 q 401 113 371 143 q 485 83 431 83 l 728 83 l 728 0 l 485 0 z "},"ł":{"ha":833,"x_min":58,"x_max":756,"o":"m 139 328 l 139 418 l 653 769 l 653 679 l 139 328 m 513 0 q 403 24 449 0 q 332 92 357 47 q 307 199 307 136 l 307 931 l 58 931 l 58 1014 l 399 1014 l 399 199 q 428 113 399 143 q 513 83 458 83 l 756 83 l 756 0 l 513 0 z "},"m":{"ha":833,"x_min":103,"x_max":731,"o":"m 103 0 l 103 764 l 183 764 l 183 665 l 199 665 l 189 640 q 222 740 188 703 q 317 778 257 778 q 414 738 378 778 q 456 624 450 697 l 436 665 l 467 665 l 454 640 q 488 740 454 703 q 583 778 522 778 q 692 727 653 778 q 731 592 731 676 l 731 0 l 644 0 l 644 588 q 620 673 644 642 q 553 704 596 704 q 483 673 508 704 q 457 588 457 642 l 457 0 l 376 0 l 376 588 q 352 673 376 642 q 285 704 328 704 q 217 673 242 704 q 189 588 192 642 l 189 0 l 103 0 z "},"n":{"ha":833,"x_min":143,"x_max":693,"o":"m 143 0 l 143 764 l 235 764 l 235 626 l 264 626 l 229 572 q 287 723 229 668 q 443 778 344 778 q 625 706 557 778 q 693 511 693 635 l 693 0 l 601 0 l 601 500 q 553 647 601 594 q 421 699 504 699 q 285 644 335 699 q 235 494 235 590 l 235 0 l 143 0 z "},"ń":{"ha":833,"x_min":143,"x_max":693,"o":"m 143 0 l 143 764 l 235 764 l 235 626 l 264 626 l 229 572 q 287 723 229 668 q 443 778 344 778 q 625 706 557 778 q 693 511 693 635 l 693 0 l 601 0 l 601 500 q 553 647 601 594 q 421 699 504 699 q 285 644 335 699 q 235 494 235 590 l 235 0 l 143 0 m 369 896 l 517 1090 l 619 1090 l 465 896 l 369 896 z "},"ŉ":{"ha":833,"x_min":21,"x_max":693,"o":"m 143 0 l 143 764 l 235 764 l 235 626 l 264 626 l 229 572 q 287 723 229 668 q 443 778 344 778 q 625 706 557 778 q 693 511 693 635 l 693 0 l 601 0 l 601 500 q 553 647 601 594 q 421 699 504 699 q 285 644 335 699 q 235 494 235 590 l 235 0 l 143 0 m 21 896 l 149 1097 l 261 1097 l 115 896 l 21 896 z "},"ň":{"ha":833,"x_min":143,"x_max":693,"o":"m 143 0 l 143 764 l 235 764 l 235 626 l 264 626 l 229 572 q 287 723 229 668 q 443 778 344 778 q 625 706 557 778 q 693 511 693 635 l 693 0 l 601 0 l 601 500 q 553 647 601 594 q 421 699 504 699 q 285 644 335 699 q 235 494 235 590 l 235 0 l 143 0 m 376 896 l 199 1090 l 296 1090 l 425 956 l 553 1090 l 649 1090 l 472 896 l 376 896 z "},"ņ":{"ha":833,"x_min":143,"x_max":693,"o":"m 143 0 l 143 764 l 235 764 l 235 626 l 264 626 l 229 572 q 287 723 229 668 q 443 778 344 778 q 625 706 557 778 q 693 511 693 635 l 693 0 l 601 0 l 601 500 q 553 647 601 594 q 421 699 504 699 q 285 644 335 699 q 235 494 235 590 l 235 0 l 143 0 m 285 -333 l 413 -132 l 525 -132 l 379 -333 l 285 -333 z "},"ŋ":{"ha":833,"x_min":144,"x_max":692,"o":"m 338 -250 l 338 -167 l 407 -167 q 548 -117 496 -167 q 600 21 600 -67 l 600 500 q 552 647 600 594 q 421 700 504 700 q 285 645 335 700 q 236 494 236 590 l 236 0 l 144 0 l 144 764 l 236 764 l 236 626 l 265 626 l 229 572 q 287 723 229 668 q 443 778 344 778 q 624 706 557 778 q 692 511 692 635 l 692 21 q 656 -123 692 -62 q 557 -217 621 -183 q 407 -250 493 -250 l 338 -250 z "},"ñ":{"ha":833,"x_min":143,"x_max":693,"o":"m 143 0 l 143 764 l 235 764 l 235 626 l 264 626 l 229 572 q 287 723 229 668 q 443 778 344 778 q 625 706 557 778 q 693 511 693 635 l 693 0 l 601 0 l 601 500 q 553 647 601 594 q 421 699 504 699 q 285 644 335 699 q 235 494 235 590 l 235 0 l 143 0 m 525 903 q 458 920 485 903 q 412 960 432 938 q 373 1001 392 983 q 329 1018 354 1018 q 287 1001 303 1018 q 271 956 271 985 l 271 910 l 201 910 l 201 956 q 235 1049 201 1015 q 326 1083 269 1083 q 393 1066 367 1083 q 440 1026 419 1049 q 478 985 460 1003 q 522 968 497 968 q 562 985 547 968 q 576 1031 576 1001 l 576 1076 l 646 1076 l 646 1031 q 613 937 646 971 q 525 903 581 903 z "},"o":{"ha":833,"x_min":135,"x_max":699,"o":"m 417 -12 q 267 22 331 -12 q 169 119 204 56 q 135 271 135 183 l 135 493 q 169 644 135 581 q 267 742 204 707 q 417 776 331 776 q 566 742 503 776 q 664 644 629 707 q 699 494 699 581 l 699 271 q 664 119 699 183 q 566 22 629 56 q 417 -12 503 -12 m 417 68 q 557 121 507 68 q 607 271 607 174 l 607 493 q 557 643 607 590 q 417 696 507 696 q 277 643 328 696 q 226 493 226 590 l 226 271 q 276 121 226 174 q 417 68 326 68 z "},"ó":{"ha":833,"x_min":135,"x_max":699,"o":"m 417 -12 q 267 22 331 -12 q 169 119 204 56 q 135 271 135 183 l 135 493 q 169 644 135 581 q 267 742 204 707 q 417 776 331 776 q 566 742 503 776 q 664 644 629 707 q 699 494 699 581 l 699 271 q 664 119 699 183 q 566 22 629 56 q 417 -12 503 -12 m 417 68 q 557 121 507 68 q 607 271 607 174 l 607 493 q 557 643 607 590 q 417 696 507 696 q 277 643 328 696 q 226 493 226 590 l 226 271 q 276 121 226 174 q 417 68 326 68 m 363 896 l 510 1090 l 613 1090 l 458 896 l 363 896 z "},"ŏ":{"ha":833,"x_min":135,"x_max":699,"o":"m 417 -12 q 267 22 331 -12 q 169 119 204 56 q 135 271 135 183 l 135 493 q 169 644 135 581 q 267 742 204 707 q 417 776 331 776 q 566 742 503 776 q 664 644 629 707 q 699 494 699 581 l 699 271 q 664 119 699 183 q 566 22 629 56 q 417 -12 503 -12 m 417 68 q 557 121 507 68 q 607 271 607 174 l 607 493 q 557 643 607 590 q 417 696 507 696 q 277 643 328 696 q 226 493 226 590 l 226 271 q 276 121 226 174 q 417 68 326 68 m 417 892 q 264 946 321 892 q 207 1090 207 1000 l 283 1090 q 319 993 283 1029 q 415 957 354 957 q 514 993 478 957 q 550 1090 550 1029 l 626 1090 q 569 946 626 1000 q 417 892 513 892 z "},"ô":{"ha":833,"x_min":135,"x_max":699,"o":"m 417 -12 q 267 22 331 -12 q 169 119 204 56 q 135 271 135 183 l 135 493 q 169 644 135 581 q 267 742 204 707 q 417 776 331 776 q 566 742 503 776 q 664 644 629 707 q 699 494 699 581 l 699 271 q 664 119 699 183 q 566 22 629 56 q 417 -12 503 -12 m 417 68 q 557 121 507 68 q 607 271 607 174 l 607 493 q 557 643 607 590 q 417 696 507 696 q 277 643 328 696 q 226 493 226 590 l 226 271 q 276 121 226 174 q 417 68 326 68 m 192 896 l 368 1090 l 464 1090 l 642 896 l 546 896 l 417 1031 l 290 896 l 192 896 z "},"ố":{"ha":833,"x_min":135,"x_max":831,"o":"m 417 -12 q 267 22 331 -12 q 169 119 204 56 q 135 271 135 183 l 135 493 q 169 644 135 581 q 267 742 204 707 q 417 776 331 776 q 566 742 503 776 q 664 644 629 707 q 699 494 699 581 l 699 271 q 664 119 699 183 q 566 22 629 56 q 417 -12 503 -12 m 417 68 q 557 121 507 68 q 607 271 607 174 l 607 493 q 557 643 607 590 q 417 696 507 696 q 277 643 328 696 q 226 493 226 590 l 226 271 q 276 121 226 174 q 417 68 326 68 m 565 1056 l 725 1250 l 831 1250 l 660 1056 l 565 1056 m 192 896 l 368 1090 l 465 1090 l 642 896 l 546 896 l 417 1031 l 289 896 l 192 896 z "},"ộ":{"ha":833,"x_min":135,"x_max":699,"o":"m 192 896 l 368 1090 l 464 1090 l 642 896 l 546 896 l 417 1031 l 290 896 l 192 896 m 417 -12 q 267 22 331 -12 q 169 119 204 56 q 135 271 135 183 l 135 493 q 169 644 135 581 q 267 742 204 707 q 417 776 331 776 q 566 742 503 776 q 664 644 629 707 q 699 494 699 581 l 699 271 q 664 119 699 183 q 566 22 629 56 q 417 -12 503 -12 m 417 68 q 557 121 507 68 q 607 271 607 174 l 607 493 q 557 643 607 590 q 417 696 507 696 q 277 643 328 696 q 226 493 226 590 l 226 271 q 276 121 226 174 q 417 68 326 68 m 431 -289 q 367 -267 390 -289 q 343 -208 343 -246 q 367 -149 343 -171 q 431 -126 390 -126 q 494 -149 471 -126 q 518 -208 518 -171 q 494 -267 518 -246 q 431 -289 471 -289 z "},"ồ":{"ha":833,"x_min":135,"x_max":724,"o":"m 417 -12 q 267 22 331 -12 q 169 119 204 56 q 135 271 135 183 l 135 493 q 169 644 135 581 q 267 742 204 707 q 417 776 331 776 q 566 742 503 776 q 664 644 629 707 q 699 494 699 581 l 699 271 q 664 119 699 183 q 566 22 629 56 q 417 -12 503 -12 m 417 68 q 557 121 507 68 q 607 271 607 174 l 607 493 q 557 643 607 590 q 417 696 507 696 q 277 643 328 696 q 226 493 226 590 l 226 271 q 276 121 226 174 q 417 68 326 68 m 629 1056 l 450 1250 l 556 1250 l 724 1056 l 629 1056 m 192 896 l 368 1090 l 465 1090 l 642 896 l 546 896 l 417 1031 l 289 896 l 192 896 z "},"ổ":{"ha":833,"x_min":135,"x_max":747,"o":"m 417 -12 q 267 22 331 -12 q 169 119 204 56 q 135 271 135 183 l 135 493 q 169 644 135 581 q 267 742 204 707 q 417 776 331 776 q 566 742 503 776 q 664 644 629 707 q 699 494 699 581 l 699 271 q 664 119 699 183 q 566 22 629 56 q 417 -12 503 -12 m 417 68 q 557 121 507 68 q 607 271 607 174 l 607 493 q 557 643 607 590 q 417 696 507 696 q 277 643 328 696 q 226 493 226 590 l 226 271 q 276 121 226 174 q 417 68 326 68 m 586 1056 l 653 1143 q 674 1190 674 1171 q 661 1216 674 1206 q 626 1226 649 1226 l 538 1226 l 538 1289 l 629 1289 q 715 1264 683 1289 q 747 1199 747 1239 q 739 1161 747 1181 q 717 1122 731 1142 l 667 1056 l 586 1056 m 192 896 l 368 1090 l 465 1090 l 642 896 l 546 896 l 417 1031 l 289 896 l 192 896 z "},"ỗ":{"ha":833,"x_min":135,"x_max":699,"o":"m 417 -12 q 267 22 331 -12 q 169 119 204 56 q 135 271 135 183 l 135 493 q 169 644 135 581 q 267 742 204 707 q 417 776 331 776 q 566 742 503 776 q 664 644 629 707 q 699 494 699 581 l 699 271 q 664 119 699 183 q 566 22 629 56 q 417 -12 503 -12 m 417 68 q 557 121 507 68 q 607 271 607 174 l 607 493 q 557 643 607 590 q 417 696 507 696 q 277 643 328 696 q 226 493 226 590 l 226 271 q 276 121 226 174 q 417 68 326 68 m 511 1131 q 446 1144 471 1131 q 403 1177 421 1158 q 369 1210 386 1196 q 326 1224 351 1224 q 289 1211 301 1224 q 276 1174 276 1199 l 276 1139 l 207 1139 l 207 1171 q 238 1256 207 1225 q 326 1286 269 1286 q 392 1272 367 1286 q 435 1240 418 1258 q 469 1207 451 1221 q 511 1193 486 1193 q 557 1243 557 1193 l 557 1278 l 626 1278 l 626 1246 q 596 1161 626 1192 q 511 1131 565 1131 m 192 896 l 368 1090 l 465 1090 l 642 896 l 546 896 l 417 1031 l 289 896 l 192 896 z "},"ö":{"ha":833,"x_min":135,"x_max":699,"o":"m 417 -12 q 267 22 331 -12 q 169 119 204 56 q 135 271 135 183 l 135 493 q 169 644 135 581 q 267 742 204 707 q 417 776 331 776 q 566 742 503 776 q 664 644 629 707 q 699 494 699 581 l 699 271 q 664 119 699 183 q 566 22 629 56 q 417 -12 503 -12 m 417 68 q 557 121 507 68 q 607 271 607 174 l 607 493 q 557 643 607 590 q 417 696 507 696 q 277 643 328 696 q 226 493 226 590 l 226 271 q 276 121 226 174 q 417 68 326 68 m 568 907 q 510 928 532 907 q 489 988 489 950 q 510 1047 489 1025 q 568 1069 532 1069 q 625 1047 604 1069 q 646 988 646 1025 q 625 928 646 950 q 568 907 604 907 m 265 907 q 209 928 231 907 q 188 988 188 950 q 209 1047 188 1025 q 265 1069 231 1069 q 323 1047 301 1069 q 344 988 344 1025 q 323 928 344 950 q 265 907 301 907 z "},"ọ":{"ha":833,"x_min":135,"x_max":699,"o":"m 417 -12 q 267 22 331 -12 q 169 119 204 56 q 135 271 135 183 l 135 493 q 169 644 135 581 q 267 742 204 707 q 417 776 331 776 q 566 742 503 776 q 664 644 629 707 q 699 494 699 581 l 699 271 q 664 119 699 183 q 566 22 629 56 q 417 -12 503 -12 m 417 68 q 557 121 507 68 q 607 271 607 174 l 607 493 q 557 643 607 590 q 417 696 507 696 q 277 643 328 696 q 226 493 226 590 l 226 271 q 276 121 226 174 q 417 68 326 68 m 431 -289 q 367 -267 390 -289 q 343 -208 343 -246 q 367 -149 343 -171 q 431 -126 390 -126 q 494 -149 471 -126 q 518 -208 518 -171 q 494 -267 518 -246 q 431 -289 471 -289 z "},"ò":{"ha":833,"x_min":135,"x_max":699,"o":"m 417 -12 q 267 22 331 -12 q 169 119 204 56 q 135 271 135 183 l 135 493 q 169 644 135 581 q 267 742 204 707 q 417 776 331 776 q 566 742 503 776 q 664 644 629 707 q 699 494 699 581 l 699 271 q 664 119 699 183 q 566 22 629 56 q 417 -12 503 -12 m 417 68 q 557 121 507 68 q 607 271 607 174 l 607 493 q 557 643 607 590 q 417 696 507 696 q 277 643 328 696 q 226 493 226 590 l 226 271 q 276 121 226 174 q 417 68 326 68 m 385 896 l 226 1090 l 333 1090 l 483 896 l 385 896 z "},"ỏ":{"ha":833,"x_min":135,"x_max":699,"o":"m 417 -12 q 267 22 331 -12 q 169 119 204 56 q 135 271 135 183 l 135 493 q 169 644 135 581 q 267 742 204 707 q 417 776 331 776 q 566 742 503 776 q 664 644 629 707 q 699 494 699 581 l 699 271 q 664 119 699 183 q 566 22 629 56 q 417 -12 503 -12 m 417 68 q 557 121 507 68 q 607 271 607 174 l 607 493 q 557 643 607 590 q 417 696 507 696 q 277 643 328 696 q 226 493 226 590 l 226 271 q 276 121 226 174 q 417 68 326 68 m 372 896 l 446 994 q 468 1042 468 1025 q 419 1076 468 1076 l 301 1076 l 301 1142 l 433 1142 q 514 1117 483 1142 q 544 1051 544 1093 q 519 978 544 1013 l 460 896 l 372 896 z "},"ơ":{"ha":833,"x_min":135,"x_max":725,"o":"m 544 671 l 544 736 l 593 736 q 635 753 619 736 q 650 797 650 769 l 650 889 l 725 889 l 725 794 q 690 705 725 739 q 596 671 654 671 l 544 671 m 417 -12 q 267 22 331 -12 q 169 119 204 56 q 135 271 135 183 l 135 493 q 169 644 135 581 q 267 742 204 707 q 417 776 331 776 q 566 742 503 776 q 664 644 629 707 q 699 494 699 581 l 699 271 q 664 119 699 183 q 566 22 629 56 q 417 -12 503 -12 m 417 68 q 557 121 507 68 q 607 271 607 174 l 607 493 q 557 643 607 590 q 417 696 507 696 q 277 643 328 696 q 226 493 226 590 l 226 271 q 276 121 226 174 q 417 68 326 68 z "},"ớ":{"ha":833,"x_min":135,"x_max":725,"o":"m 544 671 l 544 736 l 593 736 q 635 753 619 736 q 650 797 650 769 l 650 889 l 725 889 l 725 794 q 690 705 725 739 q 596 671 654 671 l 544 671 m 417 -12 q 267 22 331 -12 q 169 119 204 56 q 135 271 135 183 l 135 493 q 169 644 135 581 q 267 742 204 707 q 417 776 331 776 q 566 742 503 776 q 664 644 629 707 q 699 494 699 581 l 699 271 q 664 119 699 183 q 566 22 629 56 q 417 -12 503 -12 m 417 68 q 557 121 507 68 q 607 271 607 174 l 607 493 q 557 643 607 590 q 417 696 507 696 q 277 643 328 696 q 226 493 226 590 l 226 271 q 276 121 226 174 q 417 68 326 68 m 349 896 l 496 1090 l 599 1090 l 444 896 l 349 896 z "},"ợ":{"ha":833,"x_min":135,"x_max":725,"o":"m 544 671 l 544 736 l 593 736 q 635 753 619 736 q 650 797 650 769 l 650 889 l 725 889 l 725 794 q 690 705 725 739 q 596 671 654 671 l 544 671 m 417 -12 q 267 22 331 -12 q 169 119 204 56 q 135 271 135 183 l 135 493 q 169 644 135 581 q 267 742 204 707 q 417 776 331 776 q 566 742 503 776 q 664 644 629 707 q 699 494 699 581 l 699 271 q 664 119 699 183 q 566 22 629 56 q 417 -12 503 -12 m 417 68 q 557 121 507 68 q 607 271 607 174 l 607 493 q 557 643 607 590 q 417 696 507 696 q 277 643 328 696 q 226 493 226 590 l 226 271 q 276 121 226 174 q 417 68 326 68 m 431 -289 q 367 -267 390 -289 q 343 -208 343 -246 q 367 -149 343 -171 q 431 -126 390 -126 q 494 -149 471 -126 q 518 -208 518 -171 q 494 -267 518 -246 q 431 -289 471 -289 z "},"ờ":{"ha":833,"x_min":135,"x_max":725,"o":"m 544 671 l 544 736 l 593 736 q 635 753 619 736 q 650 797 650 769 l 650 889 l 725 889 l 725 794 q 690 705 725 739 q 596 671 654 671 l 544 671 m 417 -12 q 267 22 331 -12 q 169 119 204 56 q 135 271 135 183 l 135 493 q 169 644 135 581 q 267 742 204 707 q 417 776 331 776 q 566 742 503 776 q 664 644 629 707 q 699 494 699 581 l 699 271 q 664 119 699 183 q 566 22 629 56 q 417 -12 503 -12 m 417 68 q 557 121 507 68 q 607 271 607 174 l 607 493 q 557 643 607 590 q 417 696 507 696 q 277 643 328 696 q 226 493 226 590 l 226 271 q 276 121 226 174 q 417 68 326 68 m 371 896 l 213 1090 l 319 1090 l 469 896 l 371 896 z "},"ở":{"ha":833,"x_min":135,"x_max":725,"o":"m 544 671 l 544 736 l 593 736 q 635 753 619 736 q 650 797 650 769 l 650 889 l 725 889 l 725 794 q 690 705 725 739 q 596 671 654 671 l 544 671 m 417 -12 q 267 22 331 -12 q 169 119 204 56 q 135 271 135 183 l 135 493 q 169 644 135 581 q 267 742 204 707 q 417 776 331 776 q 566 742 503 776 q 664 644 629 707 q 699 494 699 581 l 699 271 q 664 119 699 183 q 566 22 629 56 q 417 -12 503 -12 m 417 68 q 557 121 507 68 q 607 271 607 174 l 607 493 q 557 643 607 590 q 417 696 507 696 q 277 643 328 696 q 226 493 226 590 l 226 271 q 276 121 226 174 q 417 68 326 68 m 372 896 l 446 994 q 468 1042 468 1025 q 419 1076 468 1076 l 301 1076 l 301 1142 l 433 1142 q 514 1117 483 1142 q 544 1051 544 1093 q 519 978 544 1013 l 460 896 l 372 896 z "},"ỡ":{"ha":833,"x_min":135,"x_max":725,"o":"m 544 671 l 544 736 l 593 736 q 635 753 619 736 q 650 797 650 769 l 650 889 l 725 889 l 725 794 q 690 705 725 739 q 596 671 654 671 l 544 671 m 417 -12 q 267 22 331 -12 q 169 119 204 56 q 135 271 135 183 l 135 493 q 169 644 135 581 q 267 742 204 707 q 417 776 331 776 q 566 742 503 776 q 664 644 629 707 q 699 494 699 581 l 699 271 q 664 119 699 183 q 566 22 629 56 q 417 -12 503 -12 m 417 68 q 557 121 507 68 q 607 271 607 174 l 607 493 q 557 643 607 590 q 417 696 507 696 q 277 643 328 696 q 226 493 226 590 l 226 271 q 276 121 226 174 q 417 68 326 68 m 504 903 q 438 920 464 903 q 391 960 411 938 q 352 1001 371 983 q 308 1018 333 1018 q 266 1001 282 1018 q 250 956 250 985 l 250 910 l 181 910 l 181 956 q 215 1049 181 1015 q 306 1083 249 1083 q 372 1066 346 1083 q 419 1026 399 1049 q 458 985 439 1003 q 501 968 476 968 q 541 985 526 968 q 556 1031 556 1001 l 556 1076 l 625 1076 l 625 1031 q 592 937 625 971 q 504 903 560 903 z "},"ő":{"ha":833,"x_min":135,"x_max":710,"o":"m 417 -12 q 267 22 331 -12 q 169 119 204 56 q 135 271 135 183 l 135 493 q 169 644 135 581 q 267 742 204 707 q 417 776 331 776 q 566 742 503 776 q 664 644 629 707 q 699 494 699 581 l 699 271 q 664 119 699 183 q 566 22 629 56 q 417 -12 503 -12 m 417 68 q 557 121 507 68 q 607 271 607 174 l 607 493 q 557 643 607 590 q 417 696 507 696 q 277 643 328 696 q 226 493 226 590 l 226 271 q 276 121 226 174 q 417 68 326 68 m 460 896 l 610 1090 l 710 1090 l 551 896 l 460 896 m 228 896 l 378 1090 l 478 1090 l 319 896 l 228 896 z "},"ō":{"ha":833,"x_min":135,"x_max":699,"o":"m 417 -12 q 267 22 331 -12 q 169 119 204 56 q 135 271 135 183 l 135 493 q 169 644 135 581 q 267 742 204 707 q 417 776 331 776 q 566 742 503 776 q 664 644 629 707 q 699 494 699 581 l 699 271 q 664 119 699 183 q 566 22 629 56 q 417 -12 503 -12 m 417 68 q 557 121 507 68 q 607 271 607 174 l 607 493 q 557 643 607 590 q 417 696 507 696 q 277 643 328 696 q 226 493 226 590 l 226 271 q 276 121 226 174 q 417 68 326 68 m 211 942 l 211 1019 l 622 1019 l 622 942 l 211 942 z "},"ǫ":{"ha":833,"x_min":136,"x_max":697,"o":"m 518 -275 q 414 -242 453 -275 q 375 -157 375 -210 q 394 -90 375 -125 q 460 -11 414 -54 q 447 -12 454 -11 q 432 -13 439 -12 q 417 -14 425 -14 q 267 20 331 -14 q 170 118 204 54 q 136 269 136 182 l 136 494 q 170 645 136 582 q 267 743 204 708 q 417 778 331 778 q 566 743 503 778 q 663 645 629 708 q 697 494 697 582 l 697 269 q 667 128 697 189 q 585 32 638 68 l 549 0 q 484 -73 506 -37 q 463 -137 463 -108 q 482 -188 463 -169 q 535 -207 501 -207 l 622 -207 l 622 -275 l 518 -275 m 417 67 q 556 119 507 67 q 606 269 606 172 l 606 494 q 556 644 606 592 q 417 697 506 697 q 278 644 328 697 q 228 494 228 592 l 228 269 q 277 119 228 172 q 417 67 326 67 z "},"ø":{"ha":833,"x_min":68,"x_max":765,"o":"m 68 -42 l 674 819 l 765 819 l 160 -42 l 68 -42 m 417 -14 q 267 20 331 -14 q 170 118 204 54 q 136 269 136 182 l 136 494 q 170 645 136 582 q 267 743 204 708 q 417 778 331 778 q 566 743 503 778 q 663 645 629 708 q 697 494 697 582 l 697 269 q 663 118 697 182 q 566 20 629 54 q 417 -14 503 -14 m 417 67 q 558 120 507 67 q 608 269 608 174 l 608 494 q 558 644 608 590 q 417 697 507 697 q 276 644 326 697 q 225 494 225 590 l 225 269 q 276 120 225 174 q 417 67 326 67 z "},"ǿ":{"ha":833,"x_min":68,"x_max":765,"o":"m 68 -42 l 674 819 l 765 819 l 160 -42 l 68 -42 m 417 -14 q 267 20 331 -14 q 170 118 204 54 q 136 269 136 182 l 136 494 q 170 645 136 582 q 267 743 204 708 q 417 778 331 778 q 566 743 503 778 q 663 645 629 708 q 697 494 697 582 l 697 269 q 663 118 697 182 q 566 20 629 54 q 417 -14 503 -14 m 417 67 q 558 120 507 67 q 608 269 608 174 l 608 494 q 558 644 608 590 q 417 697 507 697 q 276 644 326 697 q 225 494 225 590 l 225 269 q 276 120 225 174 q 417 67 326 67 m 363 896 l 510 1090 l 613 1090 l 458 896 l 363 896 z "},"õ":{"ha":833,"x_min":135,"x_max":699,"o":"m 417 -12 q 267 22 331 -12 q 169 119 204 56 q 135 271 135 183 l 135 493 q 169 644 135 581 q 267 742 204 707 q 417 776 331 776 q 566 742 503 776 q 664 644 629 707 q 699 494 699 581 l 699 271 q 664 119 699 183 q 566 22 629 56 q 417 -12 503 -12 m 417 68 q 557 121 507 68 q 607 271 607 174 l 607 493 q 557 643 607 590 q 417 696 507 696 q 277 643 328 696 q 226 493 226 590 l 226 271 q 276 121 226 174 q 417 68 326 68 m 518 903 q 451 920 478 903 q 405 960 425 938 q 366 1001 385 983 q 322 1018 347 1018 q 280 1001 296 1018 q 264 956 264 985 l 264 910 l 194 910 l 194 956 q 228 1049 194 1015 q 319 1083 263 1083 q 386 1066 360 1083 q 433 1026 413 1049 q 472 985 453 1003 q 515 968 490 968 q 555 985 540 968 q 569 1031 569 1001 l 569 1076 l 639 1076 l 639 1031 q 606 937 639 971 q 518 903 574 903 z "},"œ":{"ha":833,"x_min":49,"x_max":788,"o":"m 244 -14 q 101 44 154 -14 q 49 199 49 101 l 49 563 q 103 719 49 661 q 250 778 158 778 q 340 759 304 778 q 394 714 375 740 q 417 661 414 688 l 421 661 q 445 714 426 688 q 499 759 464 740 q 586 778 535 778 q 731 719 678 778 q 785 564 785 661 l 785 356 l 463 356 l 463 200 q 495 103 463 140 q 581 65 528 65 q 661 96 629 65 q 699 174 693 126 l 788 174 q 724 38 778 89 q 589 -14 671 -14 q 499 5 535 -14 q 444 50 463 24 q 421 101 425 76 l 417 101 q 394 50 414 76 q 338 5 374 24 q 244 -14 301 -14 m 258 65 q 343 103 311 65 q 375 200 375 140 l 375 564 q 343 661 375 624 q 258 699 311 699 q 172 661 204 699 q 139 563 139 624 l 139 199 q 172 102 139 139 q 258 65 204 65 m 463 438 l 696 438 l 696 564 q 664 661 696 624 q 578 699 632 699 q 494 661 525 699 q 463 564 463 624 l 463 438 z "},"p":{"ha":833,"x_min":143,"x_max":699,"o":"m 143 -250 l 143 764 l 235 764 l 235 643 l 268 643 l 226 578 q 287 724 226 669 q 446 778 347 778 q 630 702 561 778 q 699 499 699 626 l 699 267 q 667 119 699 182 q 578 21 635 56 q 446 -14 522 -14 q 287 41 347 -14 q 226 186 226 96 l 260 121 l 233 121 l 235 -11 l 235 -250 l 143 -250 m 421 65 q 558 119 508 65 q 607 269 607 172 l 607 496 q 558 646 607 593 q 421 699 508 699 q 285 645 335 699 q 235 496 235 592 l 235 269 q 285 119 235 174 q 421 65 335 65 z "},"þ":{"ha":833,"x_min":140,"x_max":696,"o":"m 140 -244 l 140 82 l 232 82 l 232 -244 l 140 -244 m 443 -14 q 284 40 344 -14 q 224 186 224 94 l 265 121 l 232 121 l 232 0 l 140 0 l 140 1014 l 232 1014 l 232 800 l 231 643 l 257 643 l 224 578 q 285 723 224 668 q 443 778 346 778 q 627 701 558 778 q 696 497 696 625 l 696 265 q 627 62 696 138 q 443 -14 558 -14 m 418 65 q 555 119 506 65 q 604 268 604 172 l 604 494 q 555 645 604 592 q 418 699 506 699 q 281 644 331 699 q 232 494 232 590 l 232 268 q 281 119 232 174 q 418 65 331 65 z "},"q":{"ha":833,"x_min":136,"x_max":690,"o":"m 599 -250 l 599 -36 l 600 121 l 574 121 l 607 186 q 547 41 607 96 q 388 -14 486 -14 q 205 63 274 -14 q 136 267 136 139 l 136 499 q 205 702 136 626 q 388 778 274 778 q 547 724 486 778 q 607 578 607 669 l 565 643 l 599 643 l 599 764 l 690 764 l 690 -250 l 599 -250 m 413 65 q 550 119 501 65 q 599 269 599 174 l 599 496 q 550 645 599 592 q 413 699 501 699 q 276 646 325 699 q 228 496 228 593 l 228 269 q 276 119 228 174 q 413 65 325 65 z "},"r":{"ha":833,"x_min":168,"x_max":728,"o":"m 168 0 l 168 764 l 258 764 l 258 626 l 279 626 l 244 542 q 303 715 246 653 q 464 778 361 778 q 657 703 586 778 q 728 499 728 628 l 728 456 l 632 456 l 632 494 q 583 646 632 592 q 446 700 535 700 q 309 646 358 700 q 260 494 260 592 l 260 0 l 168 0 z "},"ŕ":{"ha":833,"x_min":168,"x_max":728,"o":"m 168 0 l 168 764 l 258 764 l 258 626 l 279 626 l 244 542 q 303 715 246 653 q 464 778 361 778 q 657 703 586 778 q 728 499 728 628 l 728 456 l 632 456 l 632 494 q 583 646 632 592 q 446 700 535 700 q 309 646 358 700 q 260 494 260 592 l 260 0 l 168 0 m 390 896 l 538 1090 l 640 1090 l 486 896 l 390 896 z "},"ř":{"ha":833,"x_min":168,"x_max":728,"o":"m 168 0 l 168 764 l 258 764 l 258 626 l 279 626 l 244 542 q 303 715 246 653 q 464 778 361 778 q 657 703 586 778 q 728 499 728 628 l 728 456 l 632 456 l 632 494 q 583 646 632 592 q 446 700 535 700 q 309 646 358 700 q 260 494 260 592 l 260 0 l 168 0 m 397 896 l 219 1090 l 317 1090 l 446 956 l 574 1090 l 669 1090 l 493 896 l 397 896 z "},"ŗ":{"ha":833,"x_min":56,"x_max":728,"o":"m 168 0 l 168 764 l 258 764 l 258 626 l 279 626 l 244 542 q 303 715 246 653 q 464 778 361 778 q 657 703 586 778 q 728 499 728 628 l 728 456 l 632 456 l 632 494 q 583 646 632 592 q 446 700 535 700 q 309 646 358 700 q 260 494 260 592 l 260 0 l 168 0 m 56 -333 l 183 -132 l 296 -132 l 150 -333 l 56 -333 z "},"s":{"ha":833,"x_min":128,"x_max":711,"o":"m 383 -12 q 256 13 311 -12 q 168 83 201 38 q 128 188 135 128 l 219 188 q 273 103 229 136 q 383 69 317 69 l 463 69 q 580 105 539 69 q 621 200 621 140 q 586 292 621 256 q 490 338 551 329 l 360 357 q 201 424 256 372 q 147 567 147 476 q 213 720 147 664 q 397 776 279 776 l 453 776 q 626 725 560 776 q 703 588 692 674 l 611 588 q 561 665 603 635 q 453 694 519 694 l 397 694 q 281 660 322 694 q 240 567 240 626 q 274 484 240 514 q 374 443 307 454 l 501 425 q 658 355 604 410 q 711 208 711 300 q 647 47 711 107 q 463 -12 582 -12 l 383 -12 z "},"ś":{"ha":833,"x_min":128,"x_max":711,"o":"m 383 -12 q 256 13 311 -12 q 168 83 201 38 q 128 188 135 128 l 219 188 q 273 103 229 136 q 383 69 317 69 l 463 69 q 580 105 539 69 q 621 200 621 140 q 586 292 621 256 q 490 338 551 329 l 360 357 q 201 424 256 372 q 147 567 147 476 q 213 720 147 664 q 397 776 279 776 l 453 776 q 626 725 560 776 q 703 588 692 674 l 611 588 q 561 665 603 635 q 453 694 519 694 l 397 694 q 281 660 322 694 q 240 567 240 626 q 274 484 240 514 q 374 443 307 454 l 501 425 q 658 355 604 410 q 711 208 711 300 q 647 47 711 107 q 463 -12 582 -12 l 383 -12 m 376 896 l 524 1090 l 626 1090 l 472 896 l 376 896 z "},"š":{"ha":833,"x_min":128,"x_max":711,"o":"m 383 -12 q 256 13 311 -12 q 168 83 201 38 q 128 188 135 128 l 219 188 q 273 103 229 136 q 383 69 317 69 l 463 69 q 580 105 539 69 q 621 200 621 140 q 586 292 621 256 q 490 338 551 329 l 360 357 q 201 424 256 372 q 147 567 147 476 q 213 720 147 664 q 397 776 279 776 l 453 776 q 626 725 560 776 q 703 588 692 674 l 611 588 q 561 665 603 635 q 453 694 519 694 l 397 694 q 281 660 322 694 q 240 567 240 626 q 274 484 240 514 q 374 443 307 454 l 501 425 q 658 355 604 410 q 711 208 711 300 q 647 47 711 107 q 463 -12 582 -12 l 383 -12 m 383 896 l 206 1090 l 303 1090 l 432 956 l 560 1090 l 656 1090 l 479 896 l 383 896 z "},"ş":{"ha":833,"x_min":128,"x_max":711,"o":"m 303 -275 l 303 -215 l 408 -215 q 460 -198 440 -215 q 481 -161 481 -181 q 438 -111 481 -131 q 324 -92 396 -92 l 372 36 l 439 36 l 408 -47 q 480 -63 443 -50 q 542 -101 517 -76 q 567 -165 567 -126 q 526 -243 567 -211 q 417 -275 485 -275 l 303 -275 m 383 -12 q 256 13 311 -12 q 168 83 201 38 q 128 188 135 128 l 219 188 q 273 103 229 136 q 383 69 317 69 l 463 69 q 580 105 539 69 q 621 200 621 140 q 586 292 621 256 q 490 338 551 329 l 360 357 q 201 424 256 372 q 147 567 147 476 q 213 720 147 664 q 397 776 279 776 l 453 776 q 626 725 560 776 q 703 588 692 674 l 611 588 q 561 665 603 635 q 453 694 519 694 l 397 694 q 281 660 322 694 q 240 567 240 626 q 274 484 240 514 q 374 443 307 454 l 501 425 q 658 355 604 410 q 711 208 711 300 q 647 47 711 107 q 463 -12 582 -12 l 383 -12 z "},"ŝ":{"ha":833,"x_min":128,"x_max":711,"o":"m 383 -12 q 256 13 311 -12 q 168 83 201 38 q 128 188 135 128 l 219 188 q 273 103 229 136 q 383 69 317 69 l 463 69 q 580 105 539 69 q 621 200 621 140 q 586 292 621 256 q 490 338 551 329 l 360 357 q 201 424 256 372 q 147 567 147 476 q 213 720 147 664 q 397 776 279 776 l 453 776 q 626 725 560 776 q 703 588 692 674 l 611 588 q 561 665 603 635 q 453 694 519 694 l 397 694 q 281 660 322 694 q 240 567 240 626 q 274 484 240 514 q 374 443 307 454 l 501 425 q 658 355 604 410 q 711 208 711 300 q 647 47 711 107 q 463 -12 582 -12 l 383 -12 m 206 896 l 382 1090 l 478 1090 l 656 896 l 560 896 l 431 1031 l 304 896 l 206 896 z "},"ș":{"ha":833,"x_min":128,"x_max":711,"o":"m 383 -12 q 256 13 311 -12 q 168 83 201 38 q 128 188 135 128 l 219 188 q 273 103 229 136 q 383 69 317 69 l 463 69 q 580 105 539 69 q 621 200 621 140 q 586 292 621 256 q 490 338 551 329 l 360 357 q 201 424 256 372 q 147 567 147 476 q 213 720 147 664 q 397 776 279 776 l 453 776 q 626 725 560 776 q 703 588 692 674 l 611 588 q 561 665 603 635 q 453 694 519 694 l 397 694 q 281 660 322 694 q 240 567 240 626 q 274 484 240 514 q 374 443 307 454 l 501 425 q 658 355 604 410 q 711 208 711 300 q 647 47 711 107 q 463 -12 582 -12 l 383 -12 m 279 -333 l 407 -132 l 519 -132 l 374 -333 l 279 -333 z "},"ß":{"ha":833,"x_min":143,"x_max":724,"o":"m 143 0 l 143 749 q 178 896 143 833 q 276 993 213 958 q 422 1028 339 1028 q 572 997 508 1028 q 669 906 635 965 q 703 767 703 847 q 674 639 703 694 q 594 552 646 583 q 472 521 542 521 l 472 538 q 606 508 550 539 q 693 422 663 478 q 724 289 724 365 q 688 137 724 201 q 586 36 651 72 q 429 0 521 0 l 340 0 l 340 83 l 424 83 q 576 136 522 82 q 629 283 629 190 q 576 428 629 376 q 424 479 524 479 l 365 479 l 365 560 l 422 560 q 560 614 510 560 q 610 751 610 668 q 560 893 610 842 q 422 944 511 944 q 286 892 338 944 q 235 749 235 839 l 235 0 l 143 0 z "},"ſ":{"ha":833,"x_min":242,"x_max":696,"o":"m 242 0 l 242 813 q 299 959 242 904 q 449 1014 356 1014 l 696 1014 l 696 932 l 449 932 q 365 899 397 932 q 333 813 333 865 l 333 0 l 242 0 z "},"t":{"ha":833,"x_min":89,"x_max":710,"o":"m 500 0 q 358 48 408 0 q 308 185 308 96 l 308 681 l 89 681 l 89 764 l 308 764 l 308 979 l 400 979 l 400 764 l 710 764 l 710 681 l 400 681 l 400 185 q 500 83 400 83 l 696 83 l 696 0 l 500 0 z "},"ŧ":{"ha":833,"x_min":89,"x_max":710,"o":"m 125 350 l 125 428 l 651 428 l 651 350 l 125 350 m 500 0 q 358 48 408 0 q 308 185 308 96 l 308 681 l 89 681 l 89 764 l 308 764 l 308 979 l 400 979 l 400 764 l 710 764 l 710 681 l 400 681 l 400 185 q 500 83 400 83 l 696 83 l 696 0 l 500 0 z "},"ť":{"ha":833,"x_min":89,"x_max":753,"o":"m 532 861 l 649 1078 l 753 1078 l 614 861 l 532 861 m 500 0 q 358 48 408 0 q 308 185 308 96 l 308 681 l 89 681 l 89 764 l 308 764 l 308 979 l 400 979 l 400 764 l 710 764 l 710 681 l 400 681 l 400 185 q 500 83 400 83 l 696 83 l 696 0 l 500 0 z "},"ţ":{"ha":833,"x_min":89,"x_max":710,"o":"m 372 -275 l 372 -215 l 478 -215 q 530 -198 510 -215 q 550 -161 550 -181 q 508 -111 550 -131 q 393 -92 465 -92 l 442 36 l 508 36 l 478 -47 q 549 -63 513 -50 q 611 -101 586 -76 q 636 -165 636 -126 q 595 -243 636 -211 q 486 -275 554 -275 l 372 -275 m 500 0 q 358 48 408 0 q 308 185 308 96 l 308 681 l 89 681 l 89 764 l 308 764 l 308 979 l 400 979 l 400 764 l 710 764 l 710 681 l 400 681 l 400 185 q 500 83 400 83 l 696 83 l 696 0 l 500 0 z "},"ț":{"ha":833,"x_min":89,"x_max":710,"o":"m 500 0 q 358 48 408 0 q 308 185 308 96 l 308 681 l 89 681 l 89 764 l 308 764 l 308 979 l 400 979 l 400 764 l 710 764 l 710 681 l 400 681 l 400 185 q 500 83 400 83 l 696 83 l 696 0 l 500 0 m 285 -333 l 413 -132 l 525 -132 l 379 -333 l 285 -333 z "},"u":{"ha":833,"x_min":140,"x_max":693,"o":"m 415 -14 q 215 63 289 -14 q 140 272 140 140 l 140 764 l 232 764 l 232 272 q 281 122 232 175 q 415 68 329 68 q 552 122 503 68 q 601 272 601 175 l 601 764 l 693 764 l 693 272 q 618 63 693 140 q 415 -14 543 -14 z "},"ú":{"ha":833,"x_min":140,"x_max":693,"o":"m 415 -14 q 215 63 289 -14 q 140 272 140 140 l 140 764 l 232 764 l 232 272 q 281 122 232 175 q 415 68 329 68 q 552 122 503 68 q 601 272 601 175 l 601 764 l 693 764 l 693 272 q 618 63 693 140 q 415 -14 543 -14 m 363 896 l 510 1090 l 613 1090 l 458 896 l 363 896 z "},"ŭ":{"ha":833,"x_min":140,"x_max":693,"o":"m 415 -14 q 215 63 289 -14 q 140 272 140 140 l 140 764 l 232 764 l 232 272 q 281 122 232 175 q 415 68 329 68 q 552 122 503 68 q 601 272 601 175 l 601 764 l 693 764 l 693 272 q 618 63 693 140 q 415 -14 543 -14 m 417 892 q 264 946 321 892 q 207 1090 207 1000 l 283 1090 q 319 993 283 1029 q 415 957 354 957 q 514 993 478 957 q 550 1090 550 1029 l 626 1090 q 569 946 626 1000 q 417 892 513 892 z "},"û":{"ha":833,"x_min":140,"x_max":693,"o":"m 415 -14 q 215 63 289 -14 q 140 272 140 140 l 140 764 l 232 764 l 232 272 q 281 122 232 175 q 415 68 329 68 q 552 122 503 68 q 601 272 601 175 l 601 764 l 693 764 l 693 272 q 618 63 693 140 q 415 -14 543 -14 m 192 896 l 368 1090 l 464 1090 l 642 896 l 546 896 l 417 1031 l 290 896 l 192 896 z "},"ü":{"ha":833,"x_min":140,"x_max":693,"o":"m 415 -14 q 215 63 289 -14 q 140 272 140 140 l 140 764 l 232 764 l 232 272 q 281 122 232 175 q 415 68 329 68 q 552 122 503 68 q 601 272 601 175 l 601 764 l 693 764 l 693 272 q 618 63 693 140 q 415 -14 543 -14 m 568 907 q 510 928 532 907 q 489 988 489 950 q 510 1047 489 1025 q 568 1069 532 1069 q 625 1047 604 1069 q 646 988 646 1025 q 625 928 646 950 q 568 907 604 907 m 265 907 q 209 928 231 907 q 188 988 188 950 q 209 1047 188 1025 q 265 1069 231 1069 q 323 1047 301 1069 q 344 988 344 1025 q 323 928 344 950 q 265 907 301 907 z "},"ụ":{"ha":833,"x_min":140,"x_max":693,"o":"m 415 -14 q 215 63 289 -14 q 140 272 140 140 l 140 764 l 232 764 l 232 272 q 281 122 232 175 q 415 68 329 68 q 552 122 503 68 q 601 272 601 175 l 601 764 l 693 764 l 693 272 q 618 63 693 140 q 415 -14 543 -14 m 417 -289 q 353 -267 376 -289 q 329 -208 329 -246 q 353 -149 329 -171 q 417 -126 376 -126 q 481 -149 457 -126 q 504 -208 504 -171 q 481 -267 504 -246 q 417 -289 457 -289 z "},"ù":{"ha":833,"x_min":140,"x_max":693,"o":"m 415 -14 q 215 63 289 -14 q 140 272 140 140 l 140 764 l 232 764 l 232 272 q 281 122 232 175 q 415 68 329 68 q 552 122 503 68 q 601 272 601 175 l 601 764 l 693 764 l 693 272 q 618 63 693 140 q 415 -14 543 -14 m 385 896 l 226 1090 l 333 1090 l 483 896 l 385 896 z "},"ủ":{"ha":833,"x_min":140,"x_max":693,"o":"m 415 -14 q 215 63 289 -14 q 140 272 140 140 l 140 764 l 232 764 l 232 272 q 281 122 232 175 q 415 68 329 68 q 552 122 503 68 q 601 272 601 175 l 601 764 l 693 764 l 693 272 q 618 63 693 140 q 415 -14 543 -14 m 372 896 l 446 994 q 468 1042 468 1025 q 419 1076 468 1076 l 301 1076 l 301 1142 l 433 1142 q 514 1117 483 1142 q 544 1051 544 1093 q 519 978 544 1013 l 460 896 l 372 896 z "},"ư":{"ha":833,"x_min":140,"x_max":814,"o":"m 140 272 l 140 764 l 232 764 l 232 272 q 281 122 232 175 q 415 68 329 68 q 552 122 503 68 q 601 272 601 175 l 601 764 l 682 764 q 723 781 707 764 q 739 825 739 797 l 739 917 l 814 917 l 814 822 q 783 733 814 767 q 693 699 751 699 l 693 272 q 618 63 693 140 q 415 -14 543 -14 q 215 63 289 -14 q 140 272 140 140 z "},"ứ":{"ha":833,"x_min":140,"x_max":814,"o":"m 140 272 l 140 764 l 232 764 l 232 272 q 281 122 232 175 q 415 68 329 68 q 552 122 503 68 q 601 272 601 175 l 601 764 l 682 764 q 723 781 707 764 q 739 825 739 797 l 739 917 l 814 917 l 814 822 q 783 733 814 767 q 693 699 751 699 l 693 272 q 618 63 693 140 q 415 -14 543 -14 q 215 63 289 -14 q 140 272 140 140 m 363 896 l 510 1090 l 613 1090 l 458 896 l 363 896 z "},"ự":{"ha":833,"x_min":140,"x_max":814,"o":"m 140 272 l 140 764 l 232 764 l 232 272 q 281 122 232 175 q 415 68 329 68 q 552 122 503 68 q 601 272 601 175 l 601 764 l 682 764 q 723 781 707 764 q 739 825 739 797 l 739 917 l 814 917 l 814 822 q 783 733 814 767 q 693 699 751 699 l 693 272 q 618 63 693 140 q 415 -14 543 -14 q 215 63 289 -14 q 140 272 140 140 m 415 -289 q 351 -267 375 -289 q 328 -208 328 -246 q 351 -149 328 -171 q 415 -126 375 -126 q 479 -149 456 -126 q 503 -208 503 -171 q 479 -267 503 -246 q 415 -289 456 -289 z "},"ừ":{"ha":833,"x_min":140,"x_max":814,"o":"m 140 272 l 140 764 l 232 764 l 232 272 q 281 122 232 175 q 415 68 329 68 q 552 122 503 68 q 601 272 601 175 l 601 764 l 682 764 q 723 781 707 764 q 739 825 739 797 l 739 917 l 814 917 l 814 822 q 783 733 814 767 q 693 699 751 699 l 693 272 q 618 63 693 140 q 415 -14 543 -14 q 215 63 289 -14 q 140 272 140 140 m 385 896 l 226 1090 l 333 1090 l 483 896 l 385 896 z "},"ử":{"ha":833,"x_min":140,"x_max":814,"o":"m 140 272 l 140 764 l 232 764 l 232 272 q 281 122 232 175 q 415 68 329 68 q 552 122 503 68 q 601 272 601 175 l 601 764 l 682 764 q 723 781 707 764 q 739 825 739 797 l 739 917 l 814 917 l 814 822 q 783 733 814 767 q 693 699 751 699 l 693 272 q 618 63 693 140 q 415 -14 543 -14 q 215 63 289 -14 q 140 272 140 140 m 372 896 l 446 994 q 468 1042 468 1025 q 419 1076 468 1076 l 301 1076 l 301 1142 l 433 1142 q 514 1117 483 1142 q 544 1051 544 1093 q 519 978 544 1013 l 460 896 l 372 896 z "},"ữ":{"ha":833,"x_min":140,"x_max":814,"o":"m 140 272 l 140 764 l 232 764 l 232 272 q 281 122 232 175 q 415 68 329 68 q 552 122 503 68 q 601 272 601 175 l 601 764 l 682 764 q 723 781 707 764 q 739 825 739 797 l 739 917 l 814 917 l 814 822 q 783 733 814 767 q 693 699 751 699 l 693 272 q 618 63 693 140 q 415 -14 543 -14 q 215 63 289 -14 q 140 272 140 140 m 518 903 q 451 920 478 903 q 405 960 425 938 q 366 1001 385 983 q 322 1018 347 1018 q 280 1001 296 1018 q 264 956 264 985 l 264 910 l 194 910 l 194 956 q 228 1049 194 1015 q 319 1083 263 1083 q 386 1066 360 1083 q 433 1026 413 1049 q 472 985 453 1003 q 515 968 490 968 q 555 985 540 968 q 569 1031 569 1001 l 569 1076 l 639 1076 l 639 1031 q 606 937 639 971 q 518 903 574 903 z "},"ű":{"ha":833,"x_min":140,"x_max":710,"o":"m 415 -14 q 215 63 289 -14 q 140 272 140 140 l 140 764 l 232 764 l 232 272 q 281 122 232 175 q 415 68 329 68 q 552 122 503 68 q 601 272 601 175 l 601 764 l 693 764 l 693 272 q 618 63 693 140 q 415 -14 543 -14 m 460 896 l 610 1090 l 710 1090 l 551 896 l 460 896 m 228 896 l 378 1090 l 478 1090 l 319 896 l 228 896 z "},"ū":{"ha":833,"x_min":140,"x_max":693,"o":"m 415 -14 q 215 63 289 -14 q 140 272 140 140 l 140 764 l 232 764 l 232 272 q 281 122 232 175 q 415 68 329 68 q 552 122 503 68 q 601 272 601 175 l 601 764 l 693 764 l 693 272 q 618 63 693 140 q 415 -14 543 -14 m 211 942 l 211 1019 l 622 1019 l 622 942 l 211 942 z "},"ų":{"ha":833,"x_min":140,"x_max":693,"o":"m 518 -275 q 414 -242 453 -275 q 375 -157 375 -210 q 394 -90 375 -125 q 460 -11 414 -54 q 447 -12 454 -11 q 432 -13 439 -12 q 417 -14 425 -14 q 215 63 289 -14 q 140 269 140 139 l 140 764 l 232 764 l 232 269 q 279 119 232 172 q 417 67 326 67 q 554 119 507 67 q 601 269 601 172 l 601 764 l 693 764 l 693 269 q 665 128 693 189 q 585 32 638 68 l 549 0 q 484 -73 506 -37 q 463 -137 463 -108 q 482 -188 463 -169 q 535 -207 501 -207 l 622 -207 l 622 -275 l 518 -275 z "},"ů":{"ha":833,"x_min":140,"x_max":693,"o":"m 415 -14 q 215 63 289 -14 q 140 272 140 140 l 140 764 l 232 764 l 232 272 q 281 122 232 175 q 415 68 329 68 q 552 122 503 68 q 601 272 601 175 l 601 764 l 693 764 l 693 272 q 618 63 693 140 q 415 -14 543 -14 m 418 850 q 306 891 349 850 q 263 997 263 932 q 306 1103 263 1063 q 418 1143 349 1143 q 528 1103 486 1143 q 571 997 571 1063 q 528 890 571 931 q 418 850 486 850 m 417 908 q 480 933 456 908 q 504 997 504 957 q 480 1062 504 1038 q 417 1086 456 1086 q 353 1062 378 1086 q 329 997 329 1038 q 353 933 329 957 q 417 908 378 908 z "},"ũ":{"ha":833,"x_min":140,"x_max":693,"o":"m 415 -14 q 215 63 289 -14 q 140 272 140 140 l 140 764 l 232 764 l 232 272 q 281 122 232 175 q 415 68 329 68 q 552 122 503 68 q 601 272 601 175 l 601 764 l 693 764 l 693 272 q 618 63 693 140 q 415 -14 543 -14 m 518 903 q 451 920 478 903 q 405 960 425 938 q 366 1001 385 983 q 322 1018 347 1018 q 280 1001 296 1018 q 264 956 264 985 l 264 910 l 194 910 l 194 956 q 228 1049 194 1015 q 319 1083 263 1083 q 386 1066 360 1083 q 433 1026 413 1049 q 472 985 453 1003 q 515 968 490 968 q 555 985 540 968 q 569 1031 569 1001 l 569 1076 l 639 1076 l 639 1031 q 606 937 639 971 q 518 903 574 903 z "},"v":{"ha":833,"x_min":94,"x_max":739,"o":"m 357 0 l 94 764 l 189 764 l 372 217 q 399 135 386 176 q 418 69 413 93 q 438 135 425 93 q 464 217 450 176 l 646 764 l 739 764 l 476 0 l 357 0 z "},"w":{"ha":833,"x_min":61,"x_max":772,"o":"m 188 0 l 61 764 l 146 764 l 233 207 q 243 135 238 176 q 251 68 249 94 q 260 135 254 94 q 272 206 267 175 l 372 764 l 463 764 l 563 206 q 574 135 568 175 q 583 68 581 94 q 592 135 586 94 q 603 207 597 176 l 690 764 l 772 764 l 643 0 l 533 0 l 443 538 q 429 619 438 575 q 417 689 421 663 q 406 619 413 663 q 392 538 399 575 l 297 0 l 188 0 z "},"ẃ":{"ha":833,"x_min":61,"x_max":772,"o":"m 188 0 l 61 764 l 146 764 l 233 207 q 243 135 238 176 q 251 68 249 94 q 260 135 254 94 q 272 206 267 175 l 372 764 l 463 764 l 563 206 q 574 135 568 175 q 583 68 581 94 q 592 135 586 94 q 603 207 597 176 l 690 764 l 772 764 l 643 0 l 533 0 l 443 538 q 429 619 438 575 q 417 689 421 663 q 406 619 413 663 q 392 538 399 575 l 297 0 l 188 0 m 363 896 l 510 1090 l 613 1090 l 458 896 l 363 896 z "},"ŵ":{"ha":833,"x_min":61,"x_max":772,"o":"m 188 0 l 61 764 l 146 764 l 233 207 q 243 135 238 176 q 251 68 249 94 q 260 135 254 94 q 272 206 267 175 l 372 764 l 463 764 l 563 206 q 574 135 568 175 q 583 68 581 94 q 592 135 586 94 q 603 207 597 176 l 690 764 l 772 764 l 643 0 l 533 0 l 443 538 q 429 619 438 575 q 417 689 421 663 q 406 619 413 663 q 392 538 399 575 l 297 0 l 188 0 m 192 896 l 368 1090 l 464 1090 l 642 896 l 546 896 l 417 1031 l 290 896 l 192 896 z "},"ẅ":{"ha":833,"x_min":61,"x_max":772,"o":"m 188 0 l 61 764 l 146 764 l 233 207 q 243 135 238 176 q 251 68 249 94 q 260 135 254 94 q 272 206 267 175 l 372 764 l 463 764 l 563 206 q 574 135 568 175 q 583 68 581 94 q 592 135 586 94 q 603 207 597 176 l 690 764 l 772 764 l 643 0 l 533 0 l 443 538 q 429 619 438 575 q 417 689 421 663 q 406 619 413 663 q 392 538 399 575 l 297 0 l 188 0 m 568 907 q 510 928 532 907 q 489 988 489 950 q 510 1047 489 1025 q 568 1069 532 1069 q 625 1047 604 1069 q 646 988 646 1025 q 625 928 646 950 q 568 907 604 907 m 265 907 q 209 928 231 907 q 188 988 188 950 q 209 1047 188 1025 q 265 1069 231 1069 q 323 1047 301 1069 q 344 988 344 1025 q 323 928 344 950 q 265 907 301 907 z "},"ẁ":{"ha":833,"x_min":61,"x_max":772,"o":"m 188 0 l 61 764 l 146 764 l 233 207 q 243 135 238 176 q 251 68 249 94 q 260 135 254 94 q 272 206 267 175 l 372 764 l 463 764 l 563 206 q 574 135 568 175 q 583 68 581 94 q 592 135 586 94 q 603 207 597 176 l 690 764 l 772 764 l 643 0 l 533 0 l 443 538 q 429 619 438 575 q 417 689 421 663 q 406 619 413 663 q 392 538 399 575 l 297 0 l 188 0 m 385 896 l 226 1090 l 333 1090 l 483 896 l 385 896 z "},"x":{"ha":833,"x_min":90,"x_max":743,"o":"m 90 0 l 363 392 l 107 764 l 215 764 l 386 503 q 403 474 394 490 q 418 449 413 458 q 433 474 424 458 q 450 503 442 490 l 621 764 l 728 764 l 472 392 l 743 0 l 636 0 l 453 275 q 434 306 444 289 q 417 333 424 324 q 401 306 411 324 q 381 275 390 289 l 196 0 l 90 0 z "},"y":{"ha":833,"x_min":94,"x_max":739,"o":"m 265 -250 l 378 51 l 94 764 l 196 764 l 381 283 q 406 214 393 250 q 425 157 418 178 q 444 215 432 178 q 467 285 456 251 l 640 764 l 739 764 l 361 -250 l 265 -250 z "},"ý":{"ha":833,"x_min":94,"x_max":739,"o":"m 265 -250 l 378 51 l 94 764 l 196 764 l 381 283 q 406 214 393 250 q 425 157 418 178 q 444 215 432 178 q 467 285 456 251 l 640 764 l 739 764 l 361 -250 l 265 -250 m 363 896 l 510 1090 l 613 1090 l 458 896 l 363 896 z "},"ŷ":{"ha":833,"x_min":94,"x_max":739,"o":"m 265 -250 l 378 51 l 94 764 l 196 764 l 381 283 q 406 214 393 250 q 425 157 418 178 q 444 215 432 178 q 467 285 456 251 l 640 764 l 739 764 l 361 -250 l 265 -250 m 192 896 l 368 1090 l 464 1090 l 642 896 l 546 896 l 417 1031 l 290 896 l 192 896 z "},"ÿ":{"ha":833,"x_min":94,"x_max":739,"o":"m 265 -250 l 378 51 l 94 764 l 196 764 l 381 283 q 406 214 393 250 q 425 157 418 178 q 444 215 432 178 q 467 285 456 251 l 640 764 l 739 764 l 361 -250 l 265 -250 m 568 907 q 510 928 532 907 q 489 988 489 950 q 510 1047 489 1025 q 568 1069 532 1069 q 625 1047 604 1069 q 646 988 646 1025 q 625 928 646 950 q 568 907 604 907 m 265 907 q 209 928 231 907 q 188 988 188 950 q 209 1047 188 1025 q 265 1069 231 1069 q 323 1047 301 1069 q 344 988 344 1025 q 323 928 344 950 q 265 907 301 907 z "},"ỵ":{"ha":833,"x_min":94,"x_max":739,"o":"m 265 -250 l 378 51 l 94 764 l 196 764 l 381 283 q 406 214 393 250 q 425 157 418 178 q 444 215 432 178 q 467 285 456 251 l 640 764 l 739 764 l 361 -250 l 265 -250 m 639 -289 q 575 -267 599 -289 q 551 -208 551 -246 q 575 -149 551 -171 q 639 -126 599 -126 q 703 -149 679 -126 q 726 -208 726 -171 q 703 -267 726 -246 q 639 -289 679 -289 z "},"ỳ":{"ha":833,"x_min":94,"x_max":739,"o":"m 265 -250 l 378 51 l 94 764 l 196 764 l 381 283 q 406 214 393 250 q 425 157 418 178 q 444 215 432 178 q 467 285 456 251 l 640 764 l 739 764 l 361 -250 l 265 -250 m 385 896 l 226 1090 l 333 1090 l 483 896 l 385 896 z "},"ỷ":{"ha":833,"x_min":94,"x_max":739,"o":"m 265 -250 l 378 51 l 94 764 l 196 764 l 381 283 q 406 214 393 250 q 425 157 418 178 q 444 215 432 178 q 467 285 456 251 l 640 764 l 739 764 l 361 -250 l 265 -250 m 372 896 l 446 994 q 468 1042 468 1025 q 419 1076 468 1076 l 301 1076 l 301 1142 l 433 1142 q 514 1117 483 1142 q 544 1051 544 1093 q 519 978 544 1013 l 460 896 l 372 896 z "},"ȳ":{"ha":833,"x_min":94,"x_max":739,"o":"m 265 -250 l 378 51 l 94 764 l 196 764 l 381 283 q 406 214 393 250 q 425 157 418 178 q 444 215 432 178 q 467 285 456 251 l 640 764 l 739 764 l 361 -250 l 265 -250 m 211 942 l 211 1019 l 622 1019 l 622 942 l 211 942 z "},"ỹ":{"ha":833,"x_min":94,"x_max":739,"o":"m 265 -250 l 378 51 l 94 764 l 196 764 l 381 283 q 406 214 393 250 q 425 157 418 178 q 444 215 432 178 q 467 285 456 251 l 640 764 l 739 764 l 361 -250 l 265 -250 m 518 903 q 451 920 478 903 q 405 960 425 938 q 366 1001 385 983 q 322 1018 347 1018 q 280 1001 296 1018 q 264 956 264 985 l 264 910 l 194 910 l 194 956 q 228 1049 194 1015 q 319 1083 263 1083 q 386 1066 360 1083 q 433 1026 413 1049 q 472 985 453 1003 q 515 968 490 968 q 555 985 540 968 q 569 1031 569 1001 l 569 1076 l 639 1076 l 639 1031 q 606 937 639 971 q 518 903 574 903 z "},"z":{"ha":833,"x_min":136,"x_max":697,"o":"m 136 0 l 136 89 l 576 681 l 147 681 l 147 764 l 681 764 l 681 675 l 235 83 l 697 83 l 697 0 l 136 0 z "},"ź":{"ha":833,"x_min":136,"x_max":697,"o":"m 136 0 l 136 89 l 576 681 l 147 681 l 147 764 l 681 764 l 681 675 l 235 83 l 697 83 l 697 0 l 136 0 m 363 896 l 510 1090 l 613 1090 l 458 896 l 363 896 z "},"ž":{"ha":833,"x_min":136,"x_max":697,"o":"m 136 0 l 136 89 l 576 681 l 147 681 l 147 764 l 681 764 l 681 675 l 235 83 l 697 83 l 697 0 l 136 0 m 369 896 l 192 1090 l 289 1090 l 418 956 l 546 1090 l 642 1090 l 465 896 l 369 896 z "},"ż":{"ha":833,"x_min":136,"x_max":697,"o":"m 136 0 l 136 89 l 576 681 l 147 681 l 147 764 l 681 764 l 681 675 l 235 83 l 697 83 l 697 0 l 136 0 m 417 907 q 353 928 376 907 q 329 988 329 950 q 353 1047 329 1025 q 417 1069 376 1069 q 481 1047 457 1069 q 504 988 504 1025 q 481 928 504 950 q 417 907 457 907 z "},"ª":{"ha":833,"x_min":247,"x_max":579,"o":"m 526 632 l 526 708 l 522 708 l 522 903 q 495 959 522 938 q 424 981 468 981 q 358 963 385 981 q 325 917 331 946 l 268 917 q 319 998 276 968 q 424 1028 361 1028 q 537 994 494 1028 q 579 903 579 960 l 579 632 l 526 632 m 381 625 q 283 657 319 625 q 247 743 247 689 q 285 829 247 797 q 385 861 322 861 l 538 861 l 538 814 l 385 814 q 326 795 347 814 q 304 743 304 776 q 330 690 304 710 q 399 669 356 669 q 489 697 456 669 q 522 771 522 725 l 538 771 l 538 708 l 522 708 q 470 648 508 671 q 381 625 432 625 z "},"º":{"ha":833,"x_min":263,"x_max":571,"o":"m 417 618 q 305 656 347 618 q 263 756 263 694 l 263 888 q 305 987 263 949 q 417 1025 347 1025 q 528 987 486 1025 q 571 888 571 949 l 571 756 q 528 656 571 694 q 417 618 486 618 m 417 665 q 488 690 461 665 q 515 756 515 715 l 515 888 q 488 953 515 928 q 417 978 461 978 q 345 953 372 978 q 318 888 318 928 l 318 756 q 345 690 318 715 q 417 665 372 665 z "},"А":{"ha":833,"x_min":85,"x_max":749,"o":"m 85 0 l 357 1014 l 476 1014 l 749 0 l 656 0 l 582 283 l 250 283 l 178 0 l 85 0 m 271 363 l 561 363 l 464 733 q 431 868 443 814 q 417 939 419 922 q 401 868 414 922 q 368 733 389 814 l 271 363 z "},"Б":{"ha":833,"x_min":144,"x_max":725,"o":"m 144 0 l 144 1014 l 683 1014 l 683 931 l 236 931 l 236 575 l 425 575 q 584 540 517 575 q 688 440 651 504 q 725 289 725 376 q 688 136 725 201 q 583 35 650 71 q 425 0 517 0 l 144 0 m 236 83 l 425 83 q 576 138 521 83 q 631 288 631 193 q 576 438 631 383 q 425 492 522 492 l 236 492 l 236 83 z "},"В":{"ha":833,"x_min":143,"x_max":725,"o":"m 143 0 l 143 1014 l 415 1014 q 623 944 546 1014 q 700 753 700 874 q 672 629 700 682 q 594 547 644 576 q 472 518 543 518 l 472 535 q 606 505 550 536 q 694 416 663 474 q 725 279 725 358 q 689 131 725 194 q 585 34 653 68 q 426 0 518 0 l 143 0 m 233 83 l 421 83 q 576 136 519 83 q 633 281 633 189 q 576 428 633 372 q 421 483 519 483 l 233 483 l 233 83 m 233 564 l 414 564 q 557 613 506 564 q 608 747 608 663 q 557 882 608 833 q 415 931 506 931 l 233 931 l 233 564 z "},"Г":{"ha":833,"x_min":161,"x_max":735,"o":"m 161 0 l 161 1014 l 735 1014 l 735 931 l 253 931 l 253 0 l 161 0 z "},"Ѓ":{"ha":833,"x_min":161,"x_max":735,"o":"m 161 0 l 161 1014 l 735 1014 l 735 931 l 253 931 l 253 0 l 161 0 m 361 1125 l 508 1319 l 611 1319 l 457 1125 l 361 1125 z "},"Ґ":{"ha":833,"x_min":161,"x_max":735,"o":"m 161 0 l 161 1014 l 646 1014 l 646 1146 l 735 1146 l 735 931 l 253 931 l 253 0 l 161 0 z "},"Д":{"ha":833,"x_min":54,"x_max":778,"o":"m 54 -194 l 54 81 l 107 81 q 144 154 125 107 q 178 263 164 201 q 194 396 193 325 l 207 1014 l 679 1014 l 679 81 l 778 81 l 778 -194 l 696 -194 l 696 0 l 136 0 l 136 -194 l 54 -194 m 204 81 l 588 81 l 588 932 l 296 932 l 285 396 q 256 201 283 285 q 204 81 229 117 z "},"Е":{"ha":833,"x_min":156,"x_max":714,"o":"m 156 0 l 156 1014 l 714 1014 l 714 931 l 247 931 l 247 571 l 665 571 l 665 488 l 247 488 l 247 83 l 714 83 l 714 0 l 156 0 z "},"Ё":{"ha":833,"x_min":156,"x_max":714,"o":"m 156 0 l 156 1014 l 714 1014 l 714 931 l 247 931 l 247 571 l 665 571 l 665 488 l 247 488 l 247 83 l 714 83 l 714 0 l 156 0 m 597 1142 q 540 1163 561 1142 q 518 1222 518 1185 q 540 1282 518 1260 q 597 1304 561 1304 q 654 1282 633 1304 q 675 1222 675 1260 q 654 1163 675 1185 q 597 1142 633 1142 m 294 1142 q 238 1163 260 1142 q 217 1222 217 1185 q 238 1282 217 1260 q 294 1304 260 1304 q 352 1282 331 1304 q 374 1222 374 1260 q 352 1163 374 1185 q 294 1142 331 1142 z "},"Ж":{"ha":833,"x_min":31,"x_max":801,"o":"m 31 0 l 215 525 l 44 1014 l 139 1014 l 294 556 l 376 556 l 376 1014 l 456 1014 l 456 556 l 539 556 l 693 1014 l 788 1014 l 617 524 l 801 0 l 706 0 l 539 485 l 456 485 l 456 0 l 376 0 l 376 485 l 292 485 l 125 0 l 31 0 z "},"З":{"ha":833,"x_min":100,"x_max":725,"o":"m 411 -14 q 250 20 319 -14 q 141 116 181 54 q 100 261 101 178 l 192 261 q 254 119 196 171 q 411 68 313 68 q 572 123 514 68 q 631 271 631 178 q 572 422 631 368 q 411 476 514 476 l 290 476 l 290 560 l 411 560 q 558 613 504 560 q 611 756 611 667 q 557 897 611 846 q 410 947 503 947 q 255 894 313 947 q 197 751 197 840 l 106 751 q 143 898 106 836 q 249 994 181 960 q 410 1028 317 1028 q 625 958 544 1028 q 706 764 706 888 q 677 638 706 693 q 597 552 649 583 q 474 521 544 521 l 474 538 q 606 507 550 539 q 694 417 663 475 q 725 281 725 358 q 687 127 725 193 q 578 24 649 61 q 411 -14 507 -14 z "},"И":{"ha":833,"x_min":140,"x_max":693,"o":"m 140 0 l 140 1014 l 229 1014 l 229 319 q 228 238 229 279 q 226 161 226 196 q 222 104 225 126 l 568 1014 l 693 1014 l 693 0 l 604 0 l 604 694 q 606 760 604 722 q 609 839 607 799 q 613 910 611 879 l 265 0 l 140 0 z "},"Й":{"ha":833,"x_min":140,"x_max":693,"o":"m 140 0 l 140 1014 l 229 1014 l 229 319 q 228 238 229 279 q 226 161 226 196 q 222 104 225 126 l 568 1014 l 693 1014 l 693 0 l 604 0 l 604 694 q 606 760 604 722 q 609 839 607 799 q 613 910 611 879 l 265 0 l 140 0 m 417 1121 q 264 1175 321 1121 q 207 1319 207 1229 l 283 1319 q 319 1222 283 1258 q 415 1186 354 1186 q 514 1222 478 1186 q 550 1319 550 1258 l 626 1319 q 569 1175 626 1229 q 417 1121 513 1121 z "},"К":{"ha":833,"x_min":143,"x_max":761,"o":"m 143 0 l 143 1015 l 235 1015 l 235 565 l 422 565 l 647 1015 l 747 1015 l 503 528 l 761 0 l 654 0 l 419 485 l 235 485 l 235 0 l 143 0 z "},"Ќ":{"ha":833,"x_min":143,"x_max":761,"o":"m 354 1125 l 501 1319 l 604 1319 l 450 1125 l 354 1125 m 143 0 l 143 1015 l 235 1015 l 235 565 l 422 565 l 647 1015 l 747 1015 l 503 528 l 761 0 l 654 0 l 419 485 l 235 485 l 235 0 l 143 0 z "},"Л":{"ha":833,"x_min":32,"x_max":689,"o":"m 32 -7 l 32 82 l 67 82 q 153 131 124 82 q 183 278 182 179 l 194 1014 l 689 1014 l 689 0 l 597 0 l 597 931 l 286 931 l 275 278 q 221 66 274 139 q 69 -7 168 -7 l 32 -7 z "},"М":{"ha":833,"x_min":119,"x_max":714,"o":"m 119 0 l 119 1014 l 247 1014 l 374 650 q 400 574 388 614 q 419 511 413 535 q 439 574 426 535 q 463 650 451 614 l 588 1014 l 714 1014 l 714 0 l 625 0 l 625 514 q 627 633 625 569 q 633 758 629 696 q 640 875 636 821 q 646 968 643 929 l 467 449 l 369 449 l 188 968 q 195 876 192 929 q 201 762 199 824 q 206 636 204 700 q 208 514 208 572 l 208 0 l 119 0 z "},"Н":{"ha":833,"x_min":143,"x_max":690,"o":"m 143 0 l 143 1014 l 235 1014 l 235 567 l 599 567 l 599 1014 l 690 1014 l 690 0 l 599 0 l 599 483 l 235 483 l 235 0 l 143 0 z "},"О":{"ha":833,"x_min":136,"x_max":697,"o":"m 417 -14 q 267 20 331 -14 q 170 118 204 54 q 136 269 136 182 l 136 744 q 170 895 136 832 q 267 993 204 958 q 417 1028 331 1028 q 566 993 503 1028 q 663 895 629 958 q 697 744 697 832 l 697 269 q 663 118 697 182 q 566 20 629 54 q 417 -14 503 -14 m 417 68 q 556 121 507 68 q 606 269 606 174 l 606 744 q 556 893 606 840 q 417 946 506 946 q 278 893 328 946 q 228 744 228 840 l 228 269 q 277 121 228 174 q 417 68 326 68 z "},"П":{"ha":833,"x_min":144,"x_max":689,"o":"m 144 0 l 144 1014 l 689 1014 l 689 0 l 597 0 l 597 931 l 236 931 l 236 0 l 144 0 z "},"Р":{"ha":833,"x_min":143,"x_max":751,"o":"m 143 0 l 143 1014 l 453 1014 q 610 978 543 1014 q 715 878 678 943 q 751 725 751 814 q 715 573 751 638 q 610 472 678 508 q 453 436 543 436 l 235 436 l 235 0 l 143 0 m 235 519 l 453 519 q 602 576 546 519 q 658 725 658 632 q 603 876 658 821 q 453 931 547 931 l 235 931 l 235 519 z "},"С":{"ha":833,"x_min":136,"x_max":713,"o":"m 424 -14 q 272 21 336 -14 q 172 119 207 56 q 136 269 136 183 l 136 744 q 172 896 136 832 q 272 994 207 960 q 424 1028 336 1028 q 577 992 513 1028 q 677 890 642 956 q 713 736 713 825 l 621 736 q 568 890 621 835 q 424 946 515 946 q 281 892 333 946 q 228 744 228 839 l 228 269 q 281 122 228 175 q 424 68 333 68 q 569 124 517 68 q 621 278 621 181 l 713 278 q 677 124 713 189 q 577 22 642 58 q 424 -14 513 -14 z "},"Т":{"ha":833,"x_min":81,"x_max":753,"o":"m 372 0 l 372 931 l 81 931 l 81 1014 l 753 1014 l 753 931 l 464 931 l 464 0 l 372 0 z "},"У":{"ha":833,"x_min":85,"x_max":749,"o":"m 281 0 l 383 264 l 85 1014 l 186 1014 l 374 518 q 407 425 392 472 q 429 351 422 378 q 449 425 436 378 q 479 518 463 472 l 650 1014 l 749 1014 l 381 0 l 281 0 z "},"Ў":{"ha":833,"x_min":85,"x_max":749,"o":"m 281 0 l 383 264 l 85 1014 l 186 1014 l 374 518 q 407 425 392 472 q 429 351 422 378 q 449 425 436 378 q 479 518 463 472 l 650 1014 l 749 1014 l 381 0 l 281 0 m 417 1121 q 264 1175 321 1121 q 207 1319 207 1229 l 283 1319 q 319 1222 283 1258 q 415 1186 354 1186 q 514 1222 478 1186 q 550 1319 550 1258 l 626 1319 q 569 1175 626 1229 q 417 1121 513 1121 z "},"Ф":{"ha":833,"x_min":85,"x_max":749,"o":"m 372 -35 l 372 63 q 220 97 285 63 q 120 196 156 132 q 85 346 85 260 l 85 688 q 119 838 85 774 q 219 937 154 901 q 372 972 283 972 l 372 1069 l 461 1069 l 461 972 q 615 937 550 972 q 714 838 679 901 q 749 688 749 774 l 749 346 q 713 196 749 260 q 614 97 678 132 q 461 63 550 63 l 461 -35 l 372 -35 m 372 142 l 372 893 q 267 867 313 893 q 198 794 222 840 q 174 688 174 749 l 174 346 q 199 240 174 286 q 269 168 224 194 q 372 142 314 142 m 461 142 q 565 168 521 142 q 635 240 610 194 q 660 346 660 286 l 660 688 q 635 794 660 749 q 566 867 611 840 q 461 893 521 893 l 461 142 z "},"Х":{"ha":833,"x_min":67,"x_max":767,"o":"m 67 0 l 364 522 l 85 1014 l 189 1014 l 354 708 q 385 651 367 685 q 418 594 404 617 q 449 651 429 617 q 481 708 468 685 l 649 1014 l 749 1014 l 469 528 l 767 0 l 663 0 l 481 339 q 449 396 468 361 q 417 454 429 431 q 385 397 404 431 q 354 339 367 363 l 168 0 l 67 0 z "},"Ч":{"ha":833,"x_min":117,"x_max":689,"o":"m 597 0 l 599 414 q 523 405 575 410 q 404 400 471 400 q 192 474 267 400 q 117 676 117 549 l 117 1014 l 208 1014 l 208 676 q 264 535 208 588 q 421 482 319 482 q 531 487 483 482 q 597 496 578 492 l 597 1014 l 689 1014 l 689 0 l 597 0 z "},"Ц":{"ha":833,"x_min":144,"x_max":772,"o":"m 686 -194 l 686 0 l 144 0 l 144 1014 l 236 1014 l 236 82 l 575 82 l 575 1014 l 667 1014 l 667 82 l 772 82 l 772 -194 l 686 -194 z "},"Ш":{"ha":833,"x_min":99,"x_max":735,"o":"m 100 0 l 99 1014 l 186 1014 l 186 74 l 378 74 l 378 1014 l 457 1014 l 457 74 l 649 74 l 649 1014 l 735 1014 l 735 0 l 100 0 z "},"Щ":{"ha":833,"x_min":99,"x_max":790,"o":"m 704 -194 l 704 0 l 99 0 l 99 1014 l 183 1014 l 183 78 l 372 78 l 372 1014 l 451 1014 l 451 78 l 640 78 l 640 1014 l 725 1014 l 725 78 l 790 78 l 790 -194 l 704 -194 z "},"Џ":{"ha":833,"x_min":144,"x_max":689,"o":"m 369 -174 l 369 0 l 144 0 l 144 1014 l 240 1014 l 240 88 l 593 88 l 593 1014 l 689 1014 l 689 0 l 465 0 l 465 -174 l 369 -174 z "},"Ь":{"ha":833,"x_min":144,"x_max":743,"o":"m 144 0 l 144 1014 l 236 1014 l 236 589 l 442 589 q 601 552 533 589 q 706 449 668 515 q 743 294 743 383 q 706 140 743 206 q 601 37 668 74 q 442 0 533 0 l 144 0 m 236 83 l 439 83 q 592 141 535 83 q 649 294 649 199 q 592 448 649 390 q 439 506 535 506 l 236 506 l 236 83 z "},"Ъ":{"ha":833,"x_min":6,"x_max":743,"o":"m 192 0 l 192 926 l 6 926 l 6 1014 l 283 1014 l 283 589 l 442 589 q 601 552 533 589 q 706 449 668 515 q 743 294 743 383 q 706 140 743 206 q 601 37 668 74 q 442 0 533 0 l 192 0 m 283 83 l 439 83 q 592 141 535 83 q 649 294 649 199 q 592 448 649 390 q 439 506 535 506 l 283 506 l 283 83 z "},"Ы":{"ha":833,"x_min":103,"x_max":731,"o":"m 103 0 l 103 1014 l 192 1014 l 192 589 l 260 589 q 458 517 385 589 q 531 325 531 446 l 531 264 q 458 72 531 143 q 260 0 385 0 l 103 0 m 192 82 l 260 82 q 394 131 346 82 q 442 264 442 179 l 442 325 q 394 459 442 411 q 260 507 346 507 l 192 507 l 192 82 m 642 0 l 642 1014 l 731 1014 l 731 0 l 642 0 z "},"Љ":{"ha":833,"x_min":-7,"x_max":793,"o":"m -7 -7 l -7 79 l 24 79 q 89 122 65 79 q 114 239 113 165 l 125 1014 l 489 1014 l 489 589 l 579 589 q 735 531 676 589 q 793 378 793 474 l 793 211 q 735 58 793 115 q 579 0 676 0 l 403 0 l 403 935 l 210 935 l 200 239 q 151 60 199 126 q 22 -7 103 -7 l -7 -7 m 489 79 l 579 79 q 673 115 639 79 q 707 211 707 150 l 707 378 q 673 474 707 439 q 579 510 639 510 l 489 510 l 489 79 z "},"Њ":{"ha":833,"x_min":81,"x_max":793,"o":"m 81 0 l 81 1014 l 167 1014 l 167 589 l 403 589 l 403 1014 l 489 1014 l 489 589 l 575 589 q 734 532 675 589 q 793 378 793 475 l 793 211 q 734 57 793 114 q 575 0 675 0 l 403 0 l 403 510 l 167 510 l 167 0 l 81 0 m 489 79 l 575 79 q 672 115 638 79 q 707 211 707 150 l 707 378 q 672 475 707 440 q 575 510 638 510 l 489 510 l 489 79 z "},"Ѕ":{"ha":833,"x_min":111,"x_max":722,"o":"m 424 -14 q 258 19 328 -14 q 149 115 188 53 q 111 260 111 176 l 203 260 q 263 120 203 172 q 424 68 322 68 q 576 117 521 68 q 631 251 631 165 q 590 379 631 325 q 478 454 550 433 l 353 493 q 195 597 251 524 q 139 769 139 669 q 174 906 139 849 q 273 996 208 964 q 425 1028 338 1028 q 632 956 556 1028 q 710 760 708 883 l 618 760 q 565 896 618 846 q 424 946 513 946 q 282 901 333 946 q 231 776 231 857 q 269 655 231 707 q 378 581 308 603 l 503 542 q 664 433 606 510 q 722 256 722 357 q 685 113 722 174 q 581 19 649 53 q 424 -14 514 -14 z "},"Є":{"ha":833,"x_min":138,"x_max":711,"o":"m 424 -14 q 272 21 336 -14 q 173 119 208 56 q 138 269 138 183 l 138 744 q 173 896 138 832 q 272 994 208 960 q 424 1028 336 1028 q 577 992 513 1028 q 676 890 642 956 q 711 736 711 825 l 619 736 q 567 890 619 835 q 424 946 515 946 q 281 892 333 946 q 229 744 229 839 l 229 553 l 550 553 l 550 469 l 229 469 l 229 269 q 281 122 229 175 q 424 68 333 68 q 568 124 517 68 q 619 278 619 181 l 711 278 q 676 124 711 189 q 577 22 642 58 q 424 -14 513 -14 z "},"Э":{"ha":833,"x_min":126,"x_max":700,"o":"m 414 -14 q 261 22 326 -14 q 161 124 196 58 q 126 278 126 189 l 218 278 q 269 124 218 181 q 414 68 321 68 q 557 122 506 68 q 608 269 608 175 l 608 469 l 288 469 l 288 553 l 608 553 l 608 744 q 556 892 608 839 q 414 946 504 946 q 270 890 322 946 q 218 736 218 835 l 126 736 q 161 890 126 825 q 261 992 196 956 q 414 1028 326 1028 q 565 994 501 1028 q 665 896 629 960 q 700 744 700 832 l 700 269 q 665 119 700 183 q 565 21 629 56 q 414 -14 501 -14 z "},"І":{"ha":833,"x_min":158,"x_max":675,"o":"m 158 0 l 158 83 l 371 83 l 371 931 l 158 931 l 158 1015 l 675 1015 l 675 931 l 464 931 l 464 83 l 675 83 l 675 0 l 158 0 z "},"Ї":{"ha":833,"x_min":158,"x_max":675,"o":"m 158 0 l 158 83 l 371 83 l 371 931 l 158 931 l 158 1015 l 675 1015 l 675 931 l 464 931 l 464 83 l 675 83 l 675 0 l 158 0 m 568 1142 q 510 1163 532 1142 q 489 1222 489 1185 q 510 1282 489 1260 q 568 1304 532 1304 q 625 1282 604 1304 q 646 1222 646 1260 q 625 1163 646 1185 q 568 1142 604 1142 m 265 1142 q 209 1163 231 1142 q 188 1222 188 1185 q 209 1282 188 1260 q 265 1304 231 1304 q 323 1282 301 1304 q 344 1222 344 1260 q 323 1163 344 1185 q 265 1142 301 1142 z "},"Ј":{"ha":833,"x_min":83,"x_max":675,"o":"m 379 -14 q 162 65 240 -14 q 83 283 83 144 l 175 283 q 229 125 175 182 q 379 68 283 68 q 529 125 475 68 q 583 282 583 182 l 583 929 l 331 929 l 331 1014 l 675 1014 l 675 282 q 595 65 675 144 q 379 -14 515 -14 z "},"Ћ":{"ha":833,"x_min":0,"x_max":726,"o":"m 169 0 l 169 932 l 0 932 l 0 1014 l 432 1014 l 432 932 l 261 932 l 261 525 l 310 576 q 532 688 413 688 q 674 627 621 688 q 726 464 726 567 l 726 0 l 635 0 l 635 444 q 603 567 635 524 q 513 610 571 610 q 349 522 432 610 l 261 431 l 261 0 l 169 0 z "},"Ю":{"ha":833,"x_min":97,"x_max":760,"o":"m 538 -14 q 377 52 436 -14 q 318 233 318 118 l 318 483 l 183 483 l 183 0 l 97 0 l 97 1014 l 183 1014 l 183 561 l 318 561 l 318 781 q 377 963 318 897 q 538 1028 436 1028 q 701 962 642 1028 q 760 781 760 896 l 760 233 q 701 52 760 118 q 538 -14 642 -14 m 538 67 q 638 111 601 67 q 674 233 674 156 l 674 781 q 638 903 674 858 q 538 947 601 947 q 438 903 474 947 q 403 781 403 858 l 403 233 q 438 111 403 156 q 538 67 474 67 z "},"Я":{"ha":833,"x_min":92,"x_max":689,"o":"m 92 0 l 314 454 q 156 549 214 475 q 99 729 99 622 q 135 879 99 815 q 238 978 171 943 q 393 1014 304 1014 l 689 1014 l 689 0 l 597 0 l 597 447 l 411 447 l 197 0 l 92 0 m 393 529 l 597 529 l 597 932 l 393 932 q 247 877 303 932 q 192 731 192 822 q 247 585 192 640 q 393 529 301 529 z "},"Ђ":{"ha":833,"x_min":0,"x_max":726,"o":"m 367 -250 l 367 -167 l 440 -167 q 583 -117 532 -167 q 635 21 635 -67 l 635 444 q 603 567 635 524 q 513 610 571 610 q 349 522 432 610 l 261 431 l 261 0 l 169 0 l 169 932 l 0 932 l 0 1014 l 432 1014 l 432 932 l 261 932 l 261 526 l 310 576 q 531 688 413 688 q 673 627 619 688 q 726 464 726 567 l 726 21 q 691 -123 726 -62 q 592 -217 656 -183 q 440 -250 528 -250 l 367 -250 z "},"Ү":{"ha":833,"x_min":61,"x_max":772,"o":"m 371 0 l 371 385 l 61 1014 l 156 1014 l 374 572 q 402 515 390 540 q 418 476 414 489 q 435 514 424 488 q 463 572 447 540 l 678 1014 l 772 1014 l 463 385 l 463 0 l 371 0 z "},"Ө":{"ha":833,"x_min":138,"x_max":696,"o":"m 417 -14 q 213 63 289 -14 q 138 269 138 140 l 138 744 q 213 951 138 875 q 417 1028 289 1028 q 621 951 546 1028 q 696 744 696 875 l 696 269 q 662 119 696 183 q 565 21 628 56 q 417 -14 503 -14 m 417 67 q 556 119 507 67 q 604 269 604 172 l 604 478 l 229 478 l 229 269 q 278 119 229 172 q 417 67 326 67 m 229 560 l 604 560 l 604 744 q 555 894 604 842 q 417 947 506 947 q 278 894 328 947 q 229 744 229 842 l 229 560 z "},"а":{"ha":833,"x_min":104,"x_max":693,"o":"m 364 -14 q 174 49 244 -14 q 104 214 104 111 q 172 376 104 317 q 350 436 239 436 l 601 436 l 601 521 q 555 650 601 604 q 422 696 508 696 q 294 660 344 696 q 235 563 243 624 l 143 563 q 233 719 156 660 q 422 778 310 778 q 619 708 546 778 q 693 522 693 639 l 693 0 l 603 0 l 603 151 l 588 151 l 608 176 q 542 38 608 90 q 364 -14 475 -14 m 388 63 q 542 111 483 63 q 601 236 601 160 l 601 363 l 350 363 q 238 324 281 363 q 196 221 196 285 q 248 106 196 149 q 388 63 300 63 z "},"б":{"ha":833,"x_min":138,"x_max":696,"o":"m 418 -14 q 211 64 285 -14 q 138 281 138 142 l 138 649 q 226 919 138 825 q 479 1014 314 1014 l 661 1014 l 661 922 l 479 922 q 294 851 358 922 q 229 649 229 781 l 229 544 l 249 544 l 229 504 q 285 639 229 590 q 440 688 342 688 q 629 611 563 688 q 696 396 696 535 l 696 281 q 663 122 696 188 q 568 21 631 56 q 418 -14 506 -14 m 418 68 q 556 124 507 68 q 604 281 604 181 l 604 396 q 556 553 604 497 q 418 610 507 610 q 278 552 326 610 q 229 396 229 494 l 229 281 q 279 124 229 181 q 418 68 329 68 z "},"в":{"ha":833,"x_min":144,"x_max":719,"o":"m 144 0 l 144 764 l 467 764 q 640 710 575 764 q 704 564 704 656 q 651 436 704 485 q 513 388 599 388 l 513 397 q 663 347 606 397 q 719 214 719 297 q 651 58 719 117 q 468 0 583 0 l 144 0 m 235 82 l 468 82 q 583 119 539 82 q 628 215 628 156 q 583 314 628 276 q 468 351 539 351 l 235 351 l 235 82 m 235 432 l 467 432 q 572 466 531 432 q 613 556 613 500 q 572 647 613 613 q 467 682 532 682 l 235 682 l 235 432 z "},"г":{"ha":833,"x_min":193,"x_max":725,"o":"m 193 0 l 193 764 l 725 764 l 725 681 l 285 681 l 285 0 l 193 0 z "},"ѓ":{"ha":833,"x_min":193,"x_max":725,"o":"m 193 0 l 193 764 l 725 764 l 725 681 l 285 681 l 285 0 l 193 0 m 404 896 l 551 1090 l 654 1090 l 500 896 l 404 896 z "},"ґ":{"ha":833,"x_min":193,"x_max":725,"o":"m 193 0 l 193 764 l 636 764 l 636 910 l 725 910 l 725 681 l 285 681 l 285 0 l 193 0 z "},"д":{"ha":833,"x_min":54,"x_max":772,"o":"m 54 -194 l 54 81 l 118 81 q 166 178 142 110 q 192 333 190 246 l 200 764 l 674 764 l 674 81 l 772 81 l 772 -194 l 690 -194 l 690 0 l 136 0 l 136 -194 l 54 -194 m 217 81 l 582 81 l 582 682 l 289 682 l 282 333 q 258 171 281 236 q 217 81 236 106 z "},"е":{"ha":833,"x_min":135,"x_max":699,"o":"m 418 -14 q 267 21 331 -14 q 169 119 203 56 q 135 269 135 183 l 135 494 q 169 644 135 581 q 267 742 203 707 q 418 778 331 778 q 567 742 504 778 q 665 644 631 707 q 699 494 699 581 l 699 361 l 225 361 l 225 269 q 275 119 225 174 q 418 65 325 65 q 541 98 493 65 q 606 190 589 131 l 697 190 q 605 41 679 96 q 418 -14 531 -14 m 608 424 l 608 494 q 559 645 608 590 q 418 700 510 700 q 275 646 325 700 q 225 494 225 592 l 225 435 l 621 435 l 608 424 z "},"ё":{"ha":833,"x_min":135,"x_max":699,"o":"m 568 907 q 510 928 532 907 q 489 988 489 950 q 510 1047 489 1025 q 568 1069 532 1069 q 625 1047 604 1069 q 646 988 646 1025 q 625 928 646 950 q 568 907 604 907 m 265 907 q 209 928 231 907 q 188 988 188 950 q 209 1047 188 1025 q 265 1069 231 1069 q 323 1047 301 1069 q 344 988 344 1025 q 323 928 344 950 q 265 907 301 907 m 418 -14 q 267 21 331 -14 q 169 119 203 56 q 135 269 135 183 l 135 494 q 169 644 135 581 q 267 742 203 707 q 418 778 331 778 q 567 742 504 778 q 665 644 631 707 q 699 494 699 581 l 699 361 l 225 361 l 225 269 q 275 119 225 174 q 418 65 325 65 q 541 98 493 65 q 606 190 589 131 l 697 190 q 605 41 679 96 q 418 -14 531 -14 m 608 424 l 608 494 q 559 645 608 590 q 418 700 510 700 q 275 646 325 700 q 225 494 225 592 l 225 435 l 621 435 l 608 424 z "},"ж":{"ha":833,"x_min":39,"x_max":794,"o":"m 39 0 l 207 392 l 50 764 l 142 764 l 283 422 l 378 422 l 378 764 l 456 764 l 456 422 l 547 422 l 692 764 l 783 764 l 626 396 l 794 0 l 700 0 l 550 356 l 456 356 l 456 0 l 378 0 l 378 356 l 282 356 l 131 0 l 39 0 z "}}}
